<?xml version="1.0" encoding="UTF-8"?>
<svg width="18px" height="18px" viewBox="0 0 18 18" version="1.1" xmlns="http://www.w3.org/2000/svg" xmlns:xlink="http://www.w3.org/1999/xlink">
    <title>切片</title>
    <g id="播放列表" stroke="none" stroke-width="1" fill="none" fill-rule="evenodd">
        <g id="广告列表" transform="translate(-1818.000000, -653.000000)">
            <g id="编组-6" transform="translate(1818.000000, 214.000000)">
                <g id="icon/bianji备份-22" transform="translate(0.000000, 439.000000)">
                    <rect id="矩形" fill="#D8D8D8" opacity="0" x="0" y="0" width="18" height="18"></rect>
                    <path d="M8.95542292,1.6 C10.9298409,1.6 12.7173409,2.40029101 14.0112364,3.69418651 C15.3051319,4.98808202 16.1054229,6.77558202 16.1054229,8.75 C16.1054229,10.724418 15.3051319,12.511918 14.0112364,13.8058135 C12.7173409,15.099709 10.9298409,15.9 8.95542292,15.9 C6.98100494,15.9 5.19350494,15.099709 3.89960943,13.8058135 C2.60571393,12.511918 1.80542292,10.724418 1.80542292,8.75 C1.80542292,6.77558202 2.60571393,4.98808202 3.89960943,3.69418651 C5.19350494,2.40029101 6.98100494,1.6 8.95542292,1.6 L8.95542292,1.6 Z" id="椭圆形" stroke="#4096FF" stroke-width="1.2"></path>
                    <polygon id="路径-19" stroke="#4096FF" stroke-width="1.2" stroke-linejoin="round" points="7.43333333 6.36666667 7.43333333 11.7 11.7020221 9.03333333"></polygon>
                </g>
            </g>
        </g>
    </g>
</svg>