<?xml version="1.0" encoding="UTF-8"?>
<svg width="16px" height="16px" viewBox="0 0 16 16" version="1.1" xmlns="http://www.w3.org/2000/svg" xmlns:xlink="http://www.w3.org/1999/xlink">
    <title>切片</title>
    <g id="设备管理" stroke="none" stroke-width="1" fill="none" fill-rule="evenodd">
        <g id="广告机/LED" transform="translate(-1846.000000, -208.000000)">
            <g id="按钮/新增备份-4" transform="translate(1748.000000, 200.000000)">
                <g id="icon/jiantou4备份-5" transform="translate(98.000000, 8.000000)">
                    <rect id="矩形" fill-opacity="0.01" fill="#FFFFFF" fill-rule="nonzero" x="0" y="0" width="16" height="16"></rect>
                    <g id="编组-9">
                        <rect id="矩形" fill="#D8D8D8" opacity="0" x="0" y="0" width="16" height="16"></rect>
                        <path d="M5,5.43425855 L5,11.5657415 C5,11.8418838 5.22385763,12.0657415 5.5,12.0657415 C5.59871249,12.0657415 5.69521634,12.0365224 5.7773501,11.9817666 L10.3759623,8.91602515 C10.6057266,8.76284892 10.6678136,8.45241425 10.5146373,8.2226499 C10.4780199,8.16772376 10.4308884,8.12059228 10.3759623,8.08397485 L5.7773501,5.0182334 C5.54758575,4.86505717 5.23715108,4.9271441 5.08397485,5.15690845 C5.02921901,5.23904221 5,5.33554605 5,5.43425855 Z" id="路径-3" fill="#4096FF" transform="translate(8.000000, 8.500000) rotate(90.000000) translate(-8.000000, -8.500000) "></path>
                    </g>
                </g>
            </g>
        </g>
    </g>
</svg>