<?xml version="1.0" encoding="UTF-8"?>
<svg width="17px" height="16px" viewBox="0 0 17 16" version="1.1" xmlns="http://www.w3.org/2000/svg" xmlns:xlink="http://www.w3.org/1999/xlink">
    <title>切片</title>
    <g id="数据总览" stroke="none" stroke-width="1" fill="none" fill-rule="evenodd">
        <g id="设备统计" transform="translate(-1836.000000, -656.000000)">
            <g id="编组-21" transform="translate(1778.000000, 648.000000)">
                <g id="排行榜_ranking" transform="translate(58.500000, 8.000000)">
                    <rect id="矩形" fill-opacity="0.01" fill="#FFFFFF" fill-rule="nonzero" x="0" y="0" width="16" height="16"></rect>
                    <path d="M1.83333333,6 L5.16666667,6 C5.44280904,6 5.66666667,6.22385763 5.66666667,6.5 L5.66666667,14 L5.66666667,14 L1.83333333,14 C1.55719096,14 1.33333333,13.7761424 1.33333333,13.5 L1.33333333,6.5 C1.33333333,6.22385763 1.55719096,6 1.83333333,6 Z" id="矩形" stroke="#333333" stroke-width="1.2" stroke-linecap="round" stroke-linejoin="round"></path>
                    <path d="M6.16666667,2 L9.5,2 C9.77614237,2 10,2.22385763 10,2.5 L10,14 L10,14 L5.66666667,14 L5.66666667,2.5 C5.66666667,2.22385763 5.89052429,2 6.16666667,2 Z" id="矩形" stroke="#333333" stroke-width="1.2"></path>
                    <rect id="矩形" stroke="#333333" stroke-width="1.2" stroke-linecap="round" stroke-linejoin="round" x="10" y="8.66666667" width="4.33333333" height="5.33333333" rx="0.5"></rect>
                </g>
            </g>
        </g>
    </g>
</svg>