<?xml version="1.0" encoding="UTF-8"?>
<svg width="18px" height="18px" viewBox="0 0 18 18" version="1.1" xmlns="http://www.w3.org/2000/svg" xmlns:xlink="http://www.w3.org/1999/xlink">
    <title>切片</title>
    <g id="设备管理" stroke="none" stroke-width="1" fill="none" fill-rule="evenodd">
        <g id="广告机/LED1" transform="translate(-1747.000000, -340.000000)">
            <g id="编组-2" transform="translate(1729.000000, 237.514155)">
                <g id="编组备份-2" transform="translate(18.000000, 99.485845)">
                    <g id="icon/fuxuankuang" transform="translate(0.000000, 3.000000)">
                        <rect id="矩形" fill="#D8D8D8" opacity="0" x="0" y="0" width="18" height="18"></rect>
                        <g id="编组" opacity="0.300000012" transform="translate(1.205423, 1.000000)">
                            <path d="M7.75,0.533333333 C9.74282747,0.533333333 11.5469941,1.34108626 12.8529539,2.64704606 C14.1589137,3.95300586 14.9666667,5.75717253 14.9666667,7.75 C14.9666667,9.74282747 14.1589137,11.5469941 12.8529539,12.8529539 C11.5469941,14.1589137 9.74282747,14.9666667 7.75,14.9666667 C5.75717253,14.9666667 3.95300586,14.1589137 2.64704606,12.8529539 C1.34108626,11.5469941 0.533333333,9.74282747 0.533333333,7.75 C0.533333333,5.75717253 1.34108626,3.95300586 2.64704606,2.64704606 C3.95300586,1.34108626 5.75717253,0.533333333 7.75,0.533333333 Z" id="椭圆形" stroke="#4096FF" stroke-width="1.06666667"></path>
                            <rect id="矩形" fill="#4096FF" x="5.79457708" y="6" width="4" height="4" rx="0.888888889"></rect>
                        </g>
                    </g>
                </g>
            </g>
        </g>
    </g>
</svg>