<?xml version="1.0" encoding="UTF-8"?>
<svg width="18px" height="18px" viewBox="0 0 18 18" version="1.1" xmlns="http://www.w3.org/2000/svg" xmlns:xlink="http://www.w3.org/1999/xlink">
    <title>切片</title>
    <g id="设备管理" stroke="none" stroke-width="1" fill="none" fill-rule="evenodd">
        <g id="广告机/LED2" transform="translate(-1747.000000, -340.000000)">
            <g id="编组-2" transform="translate(1729.000000, 237.514155)">
                <g id="编组备份-2" transform="translate(18.000000, 99.485845)">
                    <g id="icon/fuxuankuang" transform="translate(0.000000, 3.000000)">
                        <rect id="矩形" fill="#D8D8D8" opacity="0" x="0" y="0" width="18" height="18"></rect>
                        <path d="M8.95542292,1.53333333 C10.9482504,1.53333333 12.7524171,2.34108626 14.0583769,3.64704606 C15.3643367,4.95300586 16.1720896,6.75717253 16.1720896,8.75 C16.1720896,10.7428275 15.3643367,12.5469941 14.0583769,13.8529539 C12.7524171,15.1589137 10.9482504,15.9666667 8.95542292,15.9666667 C6.96259544,15.9666667 5.15842878,15.1589137 3.85246898,13.8529539 C2.54650918,12.5469941 1.73875625,10.7428275 1.73875625,8.75 C1.73875625,6.75717253 2.54650918,4.95300586 3.85246898,3.64704606 C5.15842878,2.34108626 6.96259544,1.53333333 8.95542292,1.53333333 Z" id="椭圆形" stroke="#4096FF" stroke-width="1.06666667"></path>
                        <rect id="矩形" fill="#4096FF" x="7" y="7" width="4" height="4" rx="0.888888889"></rect>
                    </g>
                </g>
            </g>
        </g>
    </g>
</svg>