<?xml version="1.0" encoding="UTF-8"?>
<svg width="24px" height="24px" viewBox="0 0 24 24" version="1.1" xmlns="http://www.w3.org/2000/svg" xmlns:xlink="http://www.w3.org/1999/xlink">
    <title>放大</title>
    <g id="v1.3" stroke="none" stroke-width="1" fill="none" fill-rule="evenodd">
        <g id="我的模板/默认状态" transform="translate(-1058.000000, -541.000000)">
            <g id="编组-58" transform="translate(917.000000, 281.000000)">
                <g id="放大" transform="translate(141.000000, 260.000000)">
                    <rect id="矩形" x="0" y="0" width="24" height="24"></rect>
                    <g id="编组备份" transform="translate(1.500000, 1.500000)" fill="#FFFFFF" fill-rule="nonzero">
                        <path d="M16.030935,14.617035 L20.314035,18.898935 L18.898935,20.314035 L14.617035,16.030935 C13.023735,17.308185 11.04201,18.002985 9,17.999985 C4.032,17.999985 0,13.967985 0,9 C0,4.032 4.032,0 9,0 C13.967985,0 17.999985,4.032 17.999985,9 C18.002985,11.04201 17.308185,13.023735 16.030935,14.617035 Z M14.024985,13.874985 C15.294135,12.569895 16.002885,10.82043 16.0000436,9.00001 C16.0000436,5.13201 12.867,2.00001 9,2.00001 C5.13201,2.00001 2.00001,5.13201 2.00001,9.00001 C2.00001,12.867 5.13201,16.0000436 9,16.0000436 C10.82043,16.002885 12.569895,15.294135 13.874985,14.024985 L14.024985,13.874985 L14.024985,13.874985 Z M8.00001,8.00001 L8.00001,5.00001 L10.00001,5.00001 L10.00001,8.00001 L13.00001,8.00001 L13.00001,10.00001 L10.00001,10.00001 L10.00001,13.00001 L8.00001,13.00001 L8.00001,10.00001 L5.00001,10.00001 L5.00001,8.00001 L8.00001,8.00001 Z" id="形状"></path>
                    </g>
                </g>
            </g>
        </g>
    </g>
</svg>