<?xml version="1.0" encoding="UTF-8"?>
<svg width="18px" height="19px" viewBox="0 0 18 19" version="1.1" xmlns="http://www.w3.org/2000/svg" xmlns:xlink="http://www.w3.org/1999/xlink">
    <title>切片</title>
    <g id="上屏发布" stroke="none" stroke-width="1" fill="none" fill-rule="evenodd" stroke-linejoin="round">
        <g id="广告发布" transform="translate(-1746.000000, -468.000000)" stroke="#4096FF" stroke-width="1.2">
            <g id="编组-6" transform="translate(1704.000000, 294.000000)">
                <g id="icon/bianji备份-25" transform="translate(42.000000, 175.000000)">
                    <path d="M4.94736842,4.73795789 L4.94736842,3.03618421 C4.94736842,2.46391579 5.41128421,2 5.98355263,2 L14.9638158,2 C15.5360842,2 16,2.46391579 16,3.03618421 L16,12.0164474 C16,12.5887158 15.5360842,13.0526316 14.9638158,13.0526316 L13.2428474,13.0526316" id="路径" stroke-linecap="round"></path>
                    <path d="M12.0164474,4.94736842 L3.03618421,4.94736842 C2.46391579,4.94736842 2,5.41128421 2,5.98355263 L2,14.9638158 C2,15.5360842 2.46391579,16 3.03618421,16 L12.0164474,16 C12.5887158,16 13.0526316,15.5360842 13.0526316,14.9638158 L13.0526316,5.98355263 C13.0526316,5.41128421 12.5887158,4.94736842 12.0164474,4.94736842 Z" id="路径"></path>
                </g>
            </g>
        </g>
    </g>
</svg>