<?xml version="1.0" encoding="UTF-8"?>
<svg width="18px" height="18px" viewBox="0 0 18 18" version="1.1" xmlns="http://www.w3.org/2000/svg" xmlns:xlink="http://www.w3.org/1999/xlink">
    <title>编组 20</title>
    <g id="v1.3" stroke="none" stroke-width="1" fill="none" fill-rule="evenodd">
        <g id="我的模板/默认状态" transform="translate(-446.000000, -780.000000)">
            <g id="编组-15备份" transform="translate(423.000000, 715.000000)">
                <g id="编组-40" transform="translate(23.000000, 64.000000)">
                    <g id="编组-20" transform="translate(0.000000, 1.000000)">
                        <rect id="矩形" x="0" y="0" width="18" height="18"></rect>
                        <g id="编组" transform="translate(2.000000, 1.000000)" fill="#4096FF">
                            <path d="M1.14619883,0.49122807 C1.14619883,0.219930175 1.36612982,0 1.6374269,0 L12.692269,0 C13.4174035,0 14,0.588180117 14,1.30994152 L14,13.5906433 C14,13.8619649 13.7800936,14.0818713 13.5087719,14.0818713 C13.2374503,14.0818713 13.0175439,13.8619649 13.0175439,13.5906433 L13.0175439,1.30994152 C13.0175439,1.12737661 12.8714035,0.98245614 12.692269,0.98245614 L1.6374269,0.98245614 C1.36612982,0.98245614 1.14619883,0.762525146 1.14619883,0.49122807 Z M1.96491228,5.40350877 C1.96491228,5.1322117 2.18484327,4.9122807 2.45614035,4.9122807 L9.00584795,4.9122807 C9.27716959,4.9122807 9.49707602,5.1322117 9.49707602,5.40350877 C9.49707602,5.67480585 9.27716959,5.89473684 9.00584795,5.89473684 L2.45614035,5.89473684 C2.18484327,5.89473684 1.96491228,5.67480585 1.96491228,5.40350877 Z M1.96491228,9.0877193 C1.96491228,8.81639766 2.18484327,8.59649123 2.45614035,8.59649123 L9.00584795,8.59649123 C9.27716959,8.59649123 9.49707602,8.81639766 9.49707602,9.0877193 C9.49707602,9.35904094 9.27716959,9.57894737 9.00584795,9.57894737 L2.45614035,9.57894737 C2.18484327,9.57894737 1.96491228,9.35904094 1.96491228,9.0877193 Z M1.96491228,12.7719298 C1.96491228,12.5006082 2.18484327,12.2807018 2.45614035,12.2807018 L6.69418596,12.2807018 C6.96548304,12.2807018 7.18541404,12.5006082 7.18541404,12.7719298 C7.18541404,13.0432515 6.96548304,13.2631579 6.69418596,13.2631579 L2.45614035,13.2631579 C2.18484327,13.2631579 1.96491228,13.0432515 1.96491228,12.7719298 Z M11.2982456,14.6549708 L0.98245614,14.6549708 L0.98245614,3.11111111 L11.2982456,3.11111111 L11.2982456,14.6549708 Z M0,14.8187135 L0,2.94736842 C0,2.49520936 0.366550292,2.12865497 0.81871345,2.12865497 L11.4619883,2.12865497 C11.9141637,2.12865497 12.2807018,2.49520936 12.2807018,2.94736842 L12.2807018,14.8187135 C12.2807018,15.2708889 11.9141637,15.6374269 11.4619883,15.6374269 L0.81871345,15.6374269 C0.366550292,15.6374269 0,15.2708889 0,14.8187135 Z" id="形状"></path>
                        </g>
                    </g>
                </g>
            </g>
        </g>
    </g>
</svg>