<?xml version="1.0" encoding="UTF-8"?>
<svg width="98px" height="87px" viewBox="0 0 98 87" version="1.1" xmlns="http://www.w3.org/2000/svg" xmlns:xlink="http://www.w3.org/1999/xlink">
    <title>编组 25</title>
    <g id="数据总览" stroke="none" stroke-width="1" fill="none" fill-rule="evenodd">
        <g id="设备统计-空数据" transform="translate(-732.000000, -385.000000)">
            <g id="编组-25" transform="translate(732.000000, 385.000000)">
                <path d="M19.2,26.88 L4,26.88 C1.790861,26.88 -2.705415e-16,28.670861 0,30.88 L0,84.48 L0,84.48 L19.2,84.48 L19.2,26.88 Z" id="路径-46" fill="#E6EBF1"></path>
                <path d="M22.3116888,0 L65.2224405,0 L65.2224405,0 L84.48,20.0377542 L84.48,84.48 L7.68,84.48 C14.7677925,80.2838988 18.3116888,74.2245479 18.3116888,66.3019475 C18.3116888,58.6748294 18.3116888,37.907513 18.3116888,3.99999841 C18.3116904,1.79086029 20.1025507,4.3300297e-15 22.3116888,0 Z" id="路径-45" fill="#EFF2F6"></path>
                <path d="M65.2224405,9.09494702e-13 L65.2224405,16.7258248 C65.2224405,18.9349638 67.0133015,20.7258248 69.2224405,20.7258248 L84.48,20.7258248 L84.48,20.7258248 L65.2224405,9.09494702e-13 Z" id="路径-47" fill="#D8E1EC"></path>
                <line x1="31.0541623" y1="38.934075" x2="71.0541623" y2="38.934075" id="路径-48" stroke="#FFFFFF" stroke-width="3" stroke-linecap="round"></line>
                <line x1="31.0541623" y1="50.3207417" x2="71.0541623" y2="50.3207417" id="路径-49" stroke="#FFFFFF" stroke-width="3" stroke-linecap="round"></line>
                <line x1="31.0541623" y1="63.1274084" x2="53.0591462" y2="63.1274084" id="路径-50" stroke="#FFFFFF" stroke-width="3" stroke-linecap="round"></line>
                <line x1="31.0541623" y1="26.1274084" x2="53.0591462" y2="26.1274084" id="路径-50备份" stroke="#FFFFFF" stroke-width="3" stroke-linecap="round"></line>
                <circle id="椭圆形" fill="#4096FF" cx="82.56" cy="71.04" r="15.36"></circle>
                <path d="M84.48,63.86 L84.48,71.54 C84.48,72.6003867 83.6203867,73.46 82.56,73.46 C81.4996133,73.46 80.64,72.6003867 80.64,71.54 L80.64,63.86 C80.64,62.7996133 81.4996133,61.94 82.56,61.94 C83.6203867,61.94 84.48,62.7996133 84.48,63.86 Z" id="路径-51" fill="#FFFFFF" fill-rule="nonzero"></path>
                <path d="M84.48,77.3 C84.48,78.3603867 83.6203867,79.22 82.56,79.22 C81.4996133,79.22 80.64,78.3603867 80.64,77.3 C80.64,76.2396133 81.4996133,75.38 82.56,75.38 C83.6203867,75.38 84.48,76.2396133 84.48,77.3 Z" id="路径-52" fill="#FFFFFF" fill-rule="nonzero"></path>
            </g>
        </g>
    </g>
</svg>