<?xml version="1.0" encoding="UTF-8"?>
<svg width="18px" height="18px" viewBox="0 0 18 18" version="1.1" xmlns="http://www.w3.org/2000/svg" xmlns:xlink="http://www.w3.org/1999/xlink">
    <title>切片</title>
    <g id="上屏发布" stroke="none" stroke-width="1" fill="none" fill-rule="evenodd">
        <g id="缺省管理" transform="translate(-1762.000000, -629.000000)">
            <g id="编组-6" transform="translate(1762.000000, 190.000000)">
                <g id="icon/bianji备份-22" transform="translate(0.000000, 439.000000)">
                    <rect id="矩形" x="0" y="0" width="18" height="18"></rect>
                    <g id="编组" transform="translate(1.500000, 3.000000)" stroke="#4096FF" stroke-linecap="round" stroke-linejoin="round" stroke-width="1.2">
                        <path d="M13.5581966,9.86414752 C14.7691557,9.02958371 15.2883803,7.52201719 14.841262,6.13888955 C14.3941438,4.7557619 13.024934,3.99800642 11.5445618,3.99912586 L10.6893813,3.99912586 C10.1303269,1.86380385 8.28577535,0.287344555 6.0512158,0.0351012454 C3.8166194,-0.217142064 1.65472255,0.907040051 0.614983803,2.86191486 C-0.424754947,4.81678967 -0.127029832,7.19755889 1.36362223,8.84848651" id="路径"></path>
                        <line x1="7.47532517" y1="13" x2="7.47223016" y2="6.50000062" id="路径" transform="translate(7.473778, 9.750000) scale(1, -1) translate(-7.473778, -9.750000) "></line>
                        <polyline id="路径" transform="translate(7.472083, 7.649056) scale(1, -1) translate(-7.472083, -7.649056) " points="9.81692045 6.50000062 7.47208278 8.79811151 5.12724512 6.50000062"></polyline>
                    </g>
                </g>
            </g>
        </g>
    </g>
</svg>