<?xml version="1.0" encoding="UTF-8"?>
<svg width="96px" height="90px" viewBox="0 0 96 90" version="1.1" xmlns="http://www.w3.org/2000/svg" xmlns:xlink="http://www.w3.org/1999/xlink">
    <title>编组 3</title>
    <g id="v1.3" stroke="none" stroke-width="1" fill="none" fill-rule="evenodd">
        <g id="我的素材/无素材时" transform="translate(-1014.000000, -275.000000)">
            <g id="编组-3" transform="translate(1014.000000, 275.000000)">
                <g id="编组" fill="#EFF2F6" fill-rule="nonzero">
                    <path d="M72.3050158,18.0119199 L42.4137561,0.623630628 C41.119515,-0.207876876 39.4755433,-0.207876876 38.1813022,0.623630628 L8.29004254,18.0119199 C6.43195007,19.2078234 5.87050161,21.7243564 7.03151202,23.6319324 C7.35031405,24.155293 7.78091092,24.5979485 8.29004254,24.9256602 L38.1813022,42.3139495 C39.4731642,43.1527939 41.119515,43.1527939 42.4137561,42.3139495 L72.3050158,24.9256602 C74.1631083,23.7297568 74.7245805,21.2132238 73.5635701,19.3056478 C73.242389,18.7822872 72.8141474,18.3396317 72.3050158,18.0119199 Z" id="路径"></path>
                    <path d="M35.3691828,46.9850652 L5.97994112,28.6967913 C4.05761241,27.6182772 1.64756418,28.3470691 0.595993277,30.3231222 C0.310498915,30.8636021 0.146342512,31.4627766 0.115413956,32.0766248 L0.00597659159,67.4059113 C-0.0772925973,68.9662107 0.714949261,70.4384681 2.04487716,71.1990529 L31.4341188,89.5020004 C33.3612057,90.5805146 35.7760122,89.8492771 36.825204,87.8683327 C37.1106984,87.3302985 37.2724785,86.7335695 37.3034071,86.122167 L37.4128466,50.7928805 C37.4984949,49.2252443 36.7038689,47.74565 35.3691828,46.9850652 Z" id="路径"></path>
                    <path d="M79.9134406,32.0619511 C79.7992428,29.8119896 77.9316339,28.0853888 75.7428438,28.2027781 C75.150443,28.234571 74.5723169,28.4033181 74.0489105,28.6967913 L44.6596451,46.9997389 C43.3178216,47.7505412 42.5136792,49.2227986 42.5874319,50.7928805 L42.6968714,86.122167 C42.80869,88.3745741 44.676299,90.1085118 46.8674682,89.9935681 C47.4622481,89.9617751 48.0427533,89.793028 48.5661596,89.5020004 L77.9554251,71.1990529 C79.285353,70.4409137 80.0752207,68.9686563 79.9943306,67.4059113 L79.9134406,32.0619511 Z" id="路径"></path>
                </g>
                <g id="编组-2" transform="translate(64.000000, 58.000000)">
                    <circle id="椭圆形" fill="#4096FF" cx="16" cy="16" r="16"></circle>
                    <text id="?" font-family="MicrosoftYaHei, Microsoft YaHei" font-size="24" font-weight="normal" letter-spacing="1.33714286" fill="#FFFFFF">
                        <tspan x="11" y="26">?</tspan>
                    </text>
                </g>
            </g>
        </g>
    </g>
</svg>