<?xml version="1.0" encoding="UTF-8"?>
<svg width="18px" height="19px" viewBox="0 0 18 19" version="1.1" xmlns="http://www.w3.org/2000/svg" xmlns:xlink="http://www.w3.org/1999/xlink">
    <title>切片</title>
    <g id="V1.2" stroke="none" stroke-width="1" fill="none" fill-rule="evenodd">
        <g id="设备列表" transform="translate(-1763.000000, -634.000000)">
            <g id="编组-2" transform="translate(1745.000000, 418.000000)">
                <g id="编组备份-6" transform="translate(18.000000, 213.485845)">
                    <g id="icon/fuxuankuang" transform="translate(0.000000, 3.000000)">
                        <rect id="矩形" fill="#D8D8D8" opacity="0" x="0" y="0" width="18" height="18"></rect>
                        <g id="编组" transform="translate(2.000000, 2.000000)" stroke="#F5222D" stroke-linecap="round" stroke-linejoin="round" stroke-width="1.06666667">
                            <path d="M14,7 C14,10.86596 10.86596,14 7,14 C3.13404,14 0,10.86596 0,7 C0,3.13404 3.13404,0 7,0 C8.86074,0 10.55194,0.72604 11.80571,1.9103 C13.15685,3.18647 14,4.99478 14,7 Z" id="路径"></path>
                            <line x1="2.1" y1="2.1" x2="11.9" y2="11.9" id="路径"></line>
                            <path d="M14,7 C14,10.86596 10.86596,14 7,14" id="路径"></path>
                            <path d="M0,7 C0,3.13404 3.13404,0 7,0" id="路径"></path>
                        </g>
                    </g>
                </g>
            </g>
        </g>
    </g>
</svg>