<?xml version="1.0" encoding="UTF-8"?>
<svg width="18px" height="19px" viewBox="0 0 18 19" version="1.1" xmlns="http://www.w3.org/2000/svg" xmlns:xlink="http://www.w3.org/1999/xlink">
    <title>切片</title>
    <g id="V1.2" stroke="none" stroke-width="1" fill="none" fill-rule="evenodd" opacity="0.300000012" stroke-linecap="round">
        <g id="设备列表" transform="translate(-1763.000000, -752.000000)" stroke="#4096FF" stroke-width="1.06666667">
            <g id="编组-2备份" transform="translate(1745.000000, 726.000000)">
                <g id="编组备份-3" transform="translate(18.000000, 23.485845)">
                    <g id="icon/fuxuankuang" transform="translate(0.000000, 3.000000)">
                        <g id="编组" transform="translate(2.500000, 1.000000)">
                            <path d="M6.4,16.000012 L0.8,16.000012 C0.358172,16.000012 -2.30926389e-14,15.641812 -2.30926389e-14,15.200012 L-2.30926389e-14,0.8 C-2.30926389e-14,0.358172 0.358172,5.32907052e-15 0.8,5.32907052e-15 L12,5.32907052e-15 C12.44184,5.32907052e-15 12.8,0.358172 12.8,0.8 L12.8,8.000012" id="路径" stroke-linejoin="round"></path>
                            <line x1="11" y1="16.000012" x2="11" y2="10.800012" id="路径" stroke-linejoin="round"></line>
                            <polyline id="路径" stroke-linejoin="round" points="9.2 12.200012 9.8 11.600012 11 10.400012 12.2 11.600012 12.8 12.200012"></polyline>
                            <line x1="3.2" y1="4.800012" x2="9.6" y2="4.800012" id="路径"></line>
                            <line x1="3.2" y1="8.000012" x2="6.4" y2="8.000012" id="路径"></line>
                        </g>
                    </g>
                </g>
            </g>
        </g>
    </g>
</svg>