<?xml version="1.0" encoding="UTF-8"?>
<svg width="16px" height="16px" viewBox="0 0 16 16" version="1.1" xmlns="http://www.w3.org/2000/svg" xmlns:xlink="http://www.w3.org/1999/xlink">
    <title>编组 8备份 2</title>
    <g id="v1.3" stroke="none" stroke-width="1" fill="none" fill-rule="evenodd">
        <g id="我的模板/默认状态" transform="translate(-371.000000, -731.000000)">
            <g id="编组-4" transform="translate(267.000000, 281.000000)">
                <g id="编组-56备份" transform="translate(0.000000, 446.000000)">
                    <g id="编组-8备份" transform="translate(104.000000, 4.000000)">
                        <rect id="矩形" x="0" y="0" width="16" height="16"></rect>
                        <g id="编组" transform="translate(1.777778, 1.777778)" fill="#333333">
                            <path d="M4.19310961,9.19689035 L2.61084273,9.19689035 L2.61084273,7.61465095 L9.34406871,0.881397488 L10.9263081,2.46366437 L4.19310961,9.19689035 Z M1.78636608,9.33430312 L1.78636608,7.55769335 C1.78636608,7.37548402 1.85875513,7.20069497 1.98760021,7.07187049 L8.85824584,0.201236543 C9.12654428,-0.0670783897 9.56159313,-0.0670790768 9.82989157,0.201235856 L11.6065013,1.97783463 C11.8747998,2.24615369 11.8747998,2.68117505 11.6065013,2.94949411 L4.73585572,9.82012599 C4.60701063,9.94895047 4.43224906,10.021367 4.25003285,10.021367 L2.47342995,10.021367 C2.09397831,10.021367 1.78636608,9.7137685 1.78636608,9.33430312 Z M0.360708535,11.6703203 C0.161494622,11.6703203 0,11.8548657 0,12.0825586 C0,12.3102516 0.161494622,12.494797 0.360708535,12.494797 L0.362205475,12.494797 L0.363864734,12.494797 L0.365698336,12.494797 L0.367700268,12.494797 L0.369870531,12.494797 L0.372209125,12.494797 L0.374710038,12.494797 L0.377385293,12.494797 L0.380222866,12.494797 L0.383222759,12.494797 L0.386390982,12.494797 L0.389721524,12.494797 L0.393220397,12.494797 L0.396881589,12.494797 L0.400705099,12.494797 L0.404690929,12.494797 L0.408839077,12.494797 L0.413143532,12.494797 L0.417616318,12.494797 L0.422245411,12.494797 L0.427036822,12.494797 L0.431990553,12.494797 L0.43710059,12.494797 L0.442366935,12.494797 L0.447795598,12.494797 L0.453380569,12.494797 L0.459121846,12.494797 L0.465019431,12.494797 L0.471073323,12.494797 L0.477277509,12.494797 L0.483644015,12.494797 L0.490160816,12.494797 L0.496833924,12.494797 L0.503663339,12.494797 L0.510637037,12.494797 L0.517773054,12.494797 L0.525053355,12.494797 L0.532489962,12.494797 L0.540076865,12.494797 L0.547814063,12.494797 L0.555695545,12.494797 L0.563733333,12.494797 L0.571915405,12.494797 L0.580253784,12.494797 L0.588730435,12.494797 L0.597363392,12.494797 L0.606134622,12.494797 L0.615056146,12.494797 L0.624127966,12.494797 L0.633338057,12.494797 L0.642698443,12.494797 L0.652197101,12.494797 L0.661846055,12.494797 L0.67163328,12.494797 L0.6815708,12.494797 L0.69164058,12.494797 L0.701860655,12.494797 L0.712219002,12.494797 L0.72271562,12.494797 L0.733356522,12.494797 L0.744135695,12.494797 L0.75505314,12.494797 L0.766114868,12.494797 L0.777308857,12.494797 L0.788641116,12.494797 L0.800111648,12.494797 L0.811720451,12.494797 L0.823467525,12.494797 L0.83534686,12.494797 L0.847358454,12.494797 L0.85950832,12.494797 L0.871796457,12.494797 L0.884210843,12.494797 L0.8967635,12.494797 L0.909448417,12.494797 L0.922265593,12.494797 L0.93521503,12.494797 L0.948290714,12.494797 L0.96150467,12.494797 L0.974844874,12.494797 L0.988311326,12.494797 L1.00191004,12.494797 L1.01564101,12.494797 L1.02949823,12.494797 L1.0434817,12.494797 L1.05759141,12.494797 L1.07182738,12.494797 L1.0861956,12.494797 L1.10068406,12.494797 L1.11529877,12.494797 L1.13003972,12.494797 L1.14490091,12.494797 L1.15988835,12.494797 L1.17500204,12.494797 L1.19023596,12.494797 L1.20559012,12.494797 L1.22107053,12.494797 L1.23666516,12.494797 L1.25238604,12.494797 L1.26822716,12.494797 L1.2841825,12.494797 L1.30026409,12.494797 L1.3164599,12.494797 L1.33277595,12.494797 L1.34920623,12.494797 L1.36575674,12.494797 L1.38242147,12.494797 L1.39920644,12.494797 L1.41609962,12.494797 L1.43311304,12.494797 L1.45024069,12.494797 L1.46748256,12.494797 L1.48483865,12.494797 L1.50230896,12.494797 L1.51988749,12.494797 L1.53758025,12.494797 L1.55538722,12.494797 L1.57330242,12.494797 L1.59132582,12.494797 L1.60946345,12.494797 L1.62770929,12.494797 L1.64606334,12.494797 L1.6645256,12.494797 L1.68310209,12.494797 L1.70178078,12.494797 L1.72056167,12.494797 L1.73945679,12.494797 L1.75845411,12.494797 L1.77755963,12.494797 L1.79676736,12.494797 L1.81607729,12.494797 L1.83549544,12.494797 L1.85501578,12.494797 L1.87464434,12.494797 L1.89436908,12.494797 L1.91419603,12.494797 L1.93412517,12.494797 L1.95415652,12.494797 L1.97428406,12.494797 L1.99451981,12.494797 L2.01484573,12.494797 L2.03527386,12.494797 L2.05580419,12.494797 L2.0764307,12.494797 L2.09715341,12.494797 L2.1179723,12.494797 L2.13888739,12.494797 L2.15989866,12.494797 L2.18100612,12.494797 L2.20220977,12.494797 L2.22350961,12.494797 L2.24489962,12.494797 L2.26637982,12.494797 L2.2879562,12.494797 L2.30962877,12.494797 L2.33139152,12.494797 L2.35324444,12.494797 L2.37518755,12.494797 L2.39722083,12.494797 L2.41934428,12.494797 L2.44155792,12.494797 L2.46385572,12.494797 L2.48624369,12.494797 L2.50872185,12.494797 L2.53129018,12.494797 L2.55394267,12.494797 L2.57667933,12.494797 L2.59950016,12.494797 L2.62241116,12.494797 L2.64540633,12.494797 L2.66848567,12.494797 L2.69164316,12.494797 L2.71489082,12.494797 L2.73821664,12.494797 L2.76162662,12.494797 L2.78512077,12.494797 L2.80869308,12.494797 L2.83234954,12.494797 L2.85608417,12.494797 L2.87989694,12.494797 L2.90378787,12.494797 L2.92776296,12.494797 L2.9518102,12.494797 L2.9759416,12.494797 L3.00014514,12.494797 L3.02442684,12.494797 L3.04878669,12.494797 L3.07321868,12.494797 L3.09772882,12.494797 L3.12231111,12.494797 L3.14696554,12.494797 L3.17169812,12.494797 L3.19650284,12.494797 L3.22137971,12.494797 L3.24632872,12.494797 L3.27134987,12.494797 L3.29644316,12.494797 L3.32160258,12.494797 L3.34684015,12.494797 L3.37213784,12.494797 L3.39751369,12.494797 L3.42294965,12.494797 L3.44845776,12.494797 L3.474038,12.494797 L3.49967837,12.494797 L3.52538486,12.494797 L3.5511635,12.494797 L3.57700225,12.494797 L3.60291315,12.494797 L3.62887815,12.494797 L3.6549153,12.494797 L3.68101256,12.494797 L3.70717595,12.494797 L3.73339946,12.494797 L3.75968309,12.494797 L3.78603285,12.494797 L3.81244273,12.494797 L3.83891272,12.494797 L3.86544283,12.494797 L3.89202705,12.494797 L3.9186774,12.494797 L3.94538186,12.494797 L3.97214643,12.494797 L3.99897112,12.494797 L4.02584992,12.494797 L4.05278282,12.494797 L4.07977585,12.494797 L4.10681696,12.494797 L4.13392421,12.494797 L4.16107955,12.494797 L4.188289,12.494797 L4.21555255,12.494797 L4.2428642,12.494797 L4.27023596,12.494797 L4.29765582,12.494797 L4.32512979,12.494797 L4.35265185,12.494797 L4.38022802,12.494797 L4.40784627,12.494797 L4.43552464,12.494797 L4.46324509,12.494797 L4.49101363,12.494797 L4.51883027,12.494797 L4.54669501,12.494797 L4.57460784,12.494797 L4.60256876,12.494797 L4.63057177,12.494797 L4.65862287,12.494797 L4.68671605,12.494797 L4.71485733,12.494797 L4.74304069,12.494797 L4.77126613,12.494797 L4.79953366,12.494797 L4.82784928,12.494797 L4.85620097,12.494797 L4.88459474,12.494797 L4.9130306,12.494797 L4.94150853,12.494797 L4.97002254,12.494797 L4.99857864,12.494797 L5.0271708,12.494797 L5.05580505,12.494797 L5.08446935,12.494797 L5.11318175,12.494797 L5.14192421,12.494797 L5.17070274,12.494797 L5.19951734,12.494797 L5.22836801,12.494797 L5.25725475,12.494797 L5.28617756,12.494797 L5.31513043,12.494797 L5.34411938,12.494797 L5.37313838,12.494797 L5.40218744,12.494797 L5.43127257,12.494797 L5.46038776,12.494797 L5.48953301,12.494797 L5.51870832,12.494797 L5.5479197,12.494797 L5.57714911,12.494797 L5.6064146,12.494797 L5.63571014,12.494797 L5.66502373,12.494797 L5.69437338,12.494797 L5.72374707,12.494797 L5.75314482,12.494797 L5.78257864,12.494797 L5.8120365,12.494797 L5.84149436,12.494797 L5.87101235,12.494797 L5.90053033,12.494797 L5.93004831,12.494797 L5.95962641,12.494797 L5.98920451,12.494797 L6.01884273,12.494797 L6.04848094,12.494797 L6.07811916,12.494797 L6.1078175,12.494797 L6.13751583,12.494797 L6.16721417,12.494797 L6.19691251,12.494797 L6.22667096,12.494797 L6.25642941,12.494797 L6.28624799,12.494797 L6.31606656,12.494797 L6.34582501,12.494797 L6.3757037,12.494797 L6.40552228,12.494797 L6.43540097,12.494797 L6.46527966,12.494797 L6.49515835,12.494797 L6.52503704,12.494797 L6.55497585,12.494797 L6.58491465,12.494797 L6.61485346,12.494797 L6.64479227,12.494797 L6.67473108,12.494797 L6.70473001,12.494797 L6.73472893,12.494797 L6.76466774,12.494797 L6.79466667,12.494797 L6.82472571,12.494797 L6.85472464,12.494797 L6.88472356,12.494797 L6.91478261,12.494797 L6.94478154,12.494797 L6.97484058,12.494797 L7.00483951,12.494797 L7.03489855,12.494797 L7.0649576,12.494797 L7.09501664,12.494797 L7.12507568,12.494797 L7.15513473,12.494797 L7.18519377,12.494797 L7.21525282,12.494797 L7.24531186,12.494797 L7.27537091,12.494797 L7.30542995,12.494797 L7.335489,12.494797 L7.36554804,12.494797 L7.3956672,12.494797 L7.42572625,12.494797 L7.45572517,12.494797 L7.48578422,12.494797 L7.51584326,12.494797 L7.54590231,12.494797 L7.57596135,12.494797 L7.60596028,12.494797 L7.63601932,12.494797 L7.66601825,12.494797 L7.69601718,12.494797 L7.72607622,12.494797 L7.75607515,12.494797 L7.78607407,12.494797 L7.81601288,12.494797 L7.84601181,12.494797 L7.87595062,12.494797 L7.90594954,12.494797 L7.93588835,12.494797 L7.96582716,12.494797 L7.99570585,12.494797 L8.02564466,12.494797 L8.05552335,12.494797 L8.08540204,12.494797 L8.11528073,12.494797 L8.14515942,12.494797 L8.17497799,12.494797 L8.20479656,12.494797 L8.23461514,12.494797 L8.26443371,12.494797 L8.29419216,12.494797 L8.32395062,12.494797 L8.35370907,12.494797 L8.38340741,12.494797 L8.41310574,12.494797 L8.44280408,12.494797 L8.47250242,12.494797 L8.50214063,12.494797 L8.53177885,12.494797 L8.56135695,12.494797 L8.59093505,12.494797 L8.62051315,12.494797 L8.65003113,12.494797 L8.67954911,12.494797 L8.7090671,12.494797 L8.73852496,12.494797 L8.76792271,12.494797 L8.79738057,12.494797 L8.8267182,12.494797 L8.85611594,12.494797 L8.88545357,12.494797 L8.91473108,12.494797 L8.94400859,12.494797 L8.9732861,12.494797 L9.00250349,12.494797 L9.03172088,12.494797 L9.06087815,12.494797 L9.08997531,12.494797 L9.11907246,12.494797 L9.14816962,12.494797 L9.17720666,12.494797 L9.20624369,12.494797 L9.23522061,12.494797 L9.26413741,12.494797 L9.29305421,12.494797 L9.3219109,12.494797 L9.35076758,12.494797 L9.37956414,12.494797 L9.40830059,12.494797 L9.43703704,12.494797 L9.46571337,12.494797 L9.49438969,12.494797 L9.5230059,12.494797 L9.551562,12.494797 L9.58011809,12.494797 L9.60861406,12.494797 L9.63704992,12.494797 L9.66548578,12.494797 L9.69386151,12.494797 L9.72223725,12.494797 L9.75049275,12.494797 L9.77874826,12.494797 L9.80694364,12.494797 L9.83513902,12.494797 L9.86327429,12.494797 L9.89134944,12.494797 L9.91936447,12.494797 L9.94731938,12.494797 L9.97527429,12.494797 L10.0031691,12.494797 L10.0310038,12.494797 L10.0588384,12.494797 L10.0865529,12.494797 L10.1142673,12.494797 L10.1419216,12.494797 L10.1695158,12.494797 L10.19711,12.494797 L10.224584,12.494797 L10.252058,12.494797 L10.2794117,12.494797 L10.3067654,12.494797 L10.334059,12.494797 L10.3612925,12.494797 L10.388526,12.494797 L10.4156393,12.494797 L10.4426924,12.494797 L10.4697456,12.494797 L10.4967386,12.494797 L10.5236114,12.494797 L10.5504842,12.494797 L10.5772968,12.494797 L10.6039893,12.494797 L10.6306817,12.494797 L10.657314,12.494797 L10.6838862,12.494797 L10.7103983,12.494797 L10.7368502,12.494797 L10.7632421,12.494797 L10.7895137,12.494797 L10.8157853,12.494797 L10.8419968,12.494797 L10.8681481,12.494797 L10.8941793,12.494797 L10.9202104,12.494797 L10.9461814,12.494797 L10.9720322,12.494797 L10.997883,12.494797 L11.0236135,12.494797 L11.049284,12.494797 L11.0748943,12.494797 L11.1004444,12.494797 L11.1259345,12.494797 L11.1513645,12.494797 L11.1766742,12.494797 L11.2019839,12.494797 L11.2271734,12.494797 L11.2523027,12.494797 L11.277372,12.494797 L11.302321,12.494797 L11.32727,12.494797 L11.3520988,12.494797 L11.3768674,12.494797 L11.401576,12.494797 L11.4262244,12.494797 L11.4507525,12.494797 L11.4752206,12.494797 L11.4996286,12.494797 L11.5239764,12.494797 L11.548204,12.494797 L11.5724316,12.494797 L11.5964788,12.494797 L11.620526,12.494797 L11.644453,12.494797 L11.6683199,12.494797 L11.6921267,12.494797 L11.7158132,12.494797 L11.7394396,12.494797 L11.7629458,12.494797 L11.7863918,12.494797 L11.8097778,12.494797 L11.8331036,12.494797 L11.8563092,12.494797 L11.8794546,12.494797 L11.9024799,12.494797 L11.925445,12.494797 L11.9482899,12.494797 L11.9710746,12.494797 L11.9937992,12.494797 L12.0164037,12.494797 L12.0389479,12.494797 L12.061372,12.494797 L12.0837359,12.494797 C12.2829673,12.494797 12.4444444,12.3102516 12.4444444,12.0825586 C12.4444444,11.8548657 12.2829673,11.6703203 12.0837359,11.6703203 L12.061372,11.6703203 L12.0389479,11.6703203 L12.0164037,11.6703203 L11.9937992,11.6703203 L11.9710746,11.6703203 L11.9482899,11.6703203 L11.925445,11.6703203 L11.9024799,11.6703203 L11.8794546,11.6703203 L11.8563092,11.6703203 L11.8331036,11.6703203 L11.8097778,11.6703203 L11.7863918,11.6703203 L11.7629458,11.6703203 L11.7394396,11.6703203 L11.7158132,11.6703203 L11.6921267,11.6703203 L11.6683199,11.6703203 L11.644453,11.6703203 L11.620526,11.6703203 L11.5964788,11.6703203 L11.5724316,11.6703203 L11.548204,11.6703203 L11.5239764,11.6703203 L11.4996286,11.6703203 L11.4752206,11.6703203 L11.4507525,11.6703203 L11.4262244,11.6703203 L11.401576,11.6703203 L11.3768674,11.6703203 L11.3520988,11.6703203 L11.32727,11.6703203 L11.302321,11.6703203 L11.277372,11.6703203 L11.2523027,11.6703203 L11.2271734,11.6703203 L11.2019839,11.6703203 L11.1766742,11.6703203 L11.1513645,11.6703203 L11.1259345,11.6703203 L11.1004444,11.6703203 L11.0748943,11.6703203 L11.049284,11.6703203 L11.0236135,11.6703203 L10.997883,11.6703203 L10.9720322,11.6703203 L10.9461814,11.6703203 L10.9202104,11.6703203 L10.8941793,11.6703203 L10.8681481,11.6703203 L10.8419968,11.6703203 L10.8157853,11.6703203 L10.7895137,11.6703203 L10.7632421,11.6703203 L10.7368502,11.6703203 L10.7103983,11.6703203 L10.6838862,11.6703203 L10.657314,11.6703203 L10.6306817,11.6703203 L10.6039893,11.6703203 L10.5772968,11.6703203 L10.5504842,11.6703203 L10.5236114,11.6703203 L10.4967386,11.6703203 L10.4697456,11.6703203 L10.4426924,11.6703203 L10.4156393,11.6703203 L10.388526,11.6703203 L10.3612925,11.6703203 L10.334059,11.6703203 L10.3067654,11.6703203 L10.2794117,11.6703203 L10.252058,11.6703203 L10.224584,11.6703203 L10.19711,11.6703203 L10.1695158,11.6703203 L10.1419216,11.6703203 L10.1142673,11.6703203 L10.0865529,11.6703203 L10.0588384,11.6703203 L10.0310038,11.6703203 L10.0031691,11.6703203 L9.97527429,11.6703203 L9.94731938,11.6703203 L9.91936447,11.6703203 L9.89134944,11.6703203 L9.86327429,11.6703203 L9.83513902,11.6703203 L9.80694364,11.6703203 L9.77874826,11.6703203 L9.75049275,11.6703203 L9.72223725,11.6703203 L9.69386151,11.6703203 L9.66548578,11.6703203 L9.63704992,11.6703203 L9.60861406,11.6703203 L9.58011809,11.6703203 L9.551562,11.6703203 L9.5230059,11.6703203 L9.49438969,11.6703203 L9.46571337,11.6703203 L9.43703704,11.6703203 L9.40830059,11.6703203 L9.37956414,11.6703203 L9.35076758,11.6703203 L9.3219109,11.6703203 L9.29305421,11.6703203 L9.26413741,11.6703203 L9.23522061,11.6703203 L9.20624369,11.6703203 L9.17720666,11.6703203 L9.14816962,11.6703203 L9.11907246,11.6703203 L9.08997531,11.6703203 L9.06087815,11.6703203 L9.03172088,11.6703203 L9.00250349,11.6703203 L8.9732861,11.6703203 L8.94400859,11.6703203 L8.91473108,11.6703203 L8.88545357,11.6703203 L8.85611594,11.6703203 L8.8267182,11.6703203 L8.79738057,11.6703203 L8.76792271,11.6703203 L8.73852496,11.6703203 L8.7090671,11.6703203 L8.67954911,11.6703203 L8.65003113,11.6703203 L8.62051315,11.6703203 L8.59093505,11.6703203 L8.56135695,11.6703203 L8.53177885,11.6703203 L8.50214063,11.6703203 L8.47250242,11.6703203 L8.44280408,11.6703203 L8.41310574,11.6703203 L8.38340741,11.6703203 L8.35370907,11.6703203 L8.32395062,11.6703203 L8.29419216,11.6703203 L8.26443371,11.6703203 L8.23461514,11.6703203 L8.20479656,11.6703203 L8.17497799,11.6703203 L8.14515942,11.6703203 L8.11528073,11.6703203 L8.08540204,11.6703203 L8.05552335,11.6703203 L8.02564466,11.6703203 L7.99570585,11.6703203 L7.96582716,11.6703203 L7.93588835,11.6703203 L7.90594954,11.6703203 L7.87595062,11.6703203 L7.84601181,11.6703203 L7.81601288,11.6703203 L7.78607407,11.6703203 L7.75607515,11.6703203 L7.72607622,11.6703203 L7.69601718,11.6703203 L7.66601825,11.6703203 L7.63601932,11.6703203 L7.60596028,11.6703203 L7.57596135,11.6703203 L7.54590231,11.6703203 L7.51584326,11.6703203 L7.48578422,11.6703203 L7.45572517,11.6703203 L7.42572625,11.6703203 L7.3956672,11.6703203 L7.36554804,11.6703203 L7.335489,11.6703203 L7.30542995,11.6703203 L7.27537091,11.6703203 L7.24531186,11.6703203 L7.21525282,11.6703203 L7.18519377,11.6703203 L7.15513473,11.6703203 L7.12507568,11.6703203 L7.09501664,11.6703203 L7.0649576,11.6703203 L7.03489855,11.6703203 L7.00483951,11.6703203 L6.97484058,11.6703203 L6.94478154,11.6703203 L6.91478261,11.6703203 L6.88472356,11.6703203 L6.85472464,11.6703203 L6.82472571,11.6703203 L6.79466667,11.6703203 L6.76466774,11.6703203 L6.73472893,11.6703203 L6.70473001,11.6703203 L6.67473108,11.6703203 L6.64479227,11.6703203 L6.61485346,11.6703203 L6.58491465,11.6703203 L6.55497585,11.6703203 L6.52503704,11.6703203 L6.49515835,11.6703203 L6.46527966,11.6703203 L6.43540097,11.6703203 L6.40552228,11.6703203 L6.3757037,11.6703203 L6.34582501,11.6703203 L6.31606656,11.6703203 L6.28624799,11.6703203 L6.25642941,11.6703203 L6.22667096,11.6703203 L6.19691251,11.6703203 L6.16721417,11.6703203 L6.13751583,11.6703203 L6.1078175,11.6703203 L6.07811916,11.6703203 L6.04848094,11.6703203 L6.01884273,11.6703203 L5.98920451,11.6703203 L5.95962641,11.6703203 L5.93004831,11.6703203 L5.90053033,11.6703203 L5.87101235,11.6703203 L5.84149436,11.6703203 L5.8120365,11.6703203 L5.78257864,11.6703203 L5.75314482,11.6703203 L5.72374707,11.6703203 L5.69437338,11.6703203 L5.66502373,11.6703203 L5.63571014,11.6703203 L5.6064146,11.6703203 L5.57714911,11.6703203 L5.5479197,11.6703203 L5.51870832,11.6703203 L5.48953301,11.6703203 L5.46038776,11.6703203 L5.43127257,11.6703203 L5.40218744,11.6703203 L5.37313838,11.6703203 L5.34411938,11.6703203 L5.31513043,11.6703203 L5.28617756,11.6703203 L5.25725475,11.6703203 L5.22836801,11.6703203 L5.19951734,11.6703203 L5.17070274,11.6703203 L5.14192421,11.6703203 L5.11318175,11.6703203 L5.08446935,11.6703203 L5.05580505,11.6703203 L5.0271708,11.6703203 L4.99857864,11.6703203 L4.97002254,11.6703203 L4.94150853,11.6703203 L4.9130306,11.6703203 L4.88459474,11.6703203 L4.85620097,11.6703203 L4.82784928,11.6703203 L4.79953366,11.6703203 L4.77126613,11.6703203 L4.74304069,11.6703203 L4.71485733,11.6703203 L4.68671605,11.6703203 L4.65862287,11.6703203 L4.63057177,11.6703203 L4.60256876,11.6703203 L4.57460784,11.6703203 L4.54669501,11.6703203 L4.51883027,11.6703203 L4.49101363,11.6703203 L4.46324509,11.6703203 L4.43552464,11.6703203 L4.40784627,11.6703203 L4.38022802,11.6703203 L4.35265185,11.6703203 L4.32512979,11.6703203 L4.29765582,11.6703203 L4.27023596,11.6703203 L4.2428642,11.6703203 L4.21555255,11.6703203 L4.188289,11.6703203 L4.16107955,11.6703203 L4.13392421,11.6703203 L4.10681696,11.6703203 L4.07977585,11.6703203 L4.05278282,11.6703203 L4.02584992,11.6703203 L3.99897112,11.6703203 L3.97214643,11.6703203 L3.94538186,11.6703203 L3.9186774,11.6703203 L3.89202705,11.6703203 L3.86544283,11.6703203 L3.83891272,11.6703203 L3.81244273,11.6703203 L3.78603285,11.6703203 L3.75968309,11.6703203 L3.73339946,11.6703203 L3.70717595,11.6703203 L3.68101256,11.6703203 L3.6549153,11.6703203 L3.62887815,11.6703203 L3.60291315,11.6703203 L3.57700225,11.6703203 L3.5511635,11.6703203 L3.52538486,11.6703203 L3.49967837,11.6703203 L3.474038,11.6703203 L3.44845776,11.6703203 L3.42294965,11.6703203 L3.39751369,11.6703203 L3.37213784,11.6703203 L3.34684015,11.6703203 L3.32160258,11.6703203 L3.29644316,11.6703203 L3.27134987,11.6703203 L3.24632872,11.6703203 L3.22137971,11.6703203 L3.19650284,11.6703203 L3.17169812,11.6703203 L3.14696554,11.6703203 L3.12231111,11.6703203 L3.09772882,11.6703203 L3.07321868,11.6703203 L3.04878669,11.6703203 L3.02442684,11.6703203 L3.00014514,11.6703203 L2.9759416,11.6703203 L2.9518102,11.6703203 L2.92776296,11.6703203 L2.90378787,11.6703203 L2.87989694,11.6703203 L2.85608417,11.6703203 L2.83234954,11.6703203 L2.80869308,11.6703203 L2.78512077,11.6703203 L2.76162662,11.6703203 L2.73821664,11.6703203 L2.71489082,11.6703203 L2.69164316,11.6703203 L2.66848567,11.6703203 L2.64540633,11.6703203 L2.62241116,11.6703203 L2.59950016,11.6703203 L2.57667933,11.6703203 L2.55394267,11.6703203 L2.53129018,11.6703203 L2.50872185,11.6703203 L2.48624369,11.6703203 L2.46385572,11.6703203 L2.44155792,11.6703203 L2.41934428,11.6703203 L2.39722083,11.6703203 L2.37518755,11.6703203 L2.35324444,11.6703203 L2.33139152,11.6703203 L2.30962877,11.6703203 L2.2879562,11.6703203 L2.26637982,11.6703203 L2.24489962,11.6703203 L2.22350961,11.6703203 L2.20220977,11.6703203 L2.18100612,11.6703203 L2.15989866,11.6703203 L2.13888739,11.6703203 L2.1179723,11.6703203 L2.09715341,11.6703203 L2.0764307,11.6703203 L2.05580419,11.6703203 L2.03527386,11.6703203 L2.01484573,11.6703203 L1.99451981,11.6703203 L1.97428406,11.6703203 L1.95415652,11.6703203 L1.93412517,11.6703203 L1.91419603,11.6703203 L1.89436908,11.6703203 L1.87464434,11.6703203 L1.85501578,11.6703203 L1.83549544,11.6703203 L1.81607729,11.6703203 L1.79676736,11.6703203 L1.77755963,11.6703203 L1.75845411,11.6703203 L1.73945679,11.6703203 L1.72056167,11.6703203 L1.70178078,11.6703203 L1.68310209,11.6703203 L1.6645256,11.6703203 L1.64606334,11.6703203 L1.62770929,11.6703203 L1.60946345,11.6703203 L1.59132582,11.6703203 L1.57330242,11.6703203 L1.55538722,11.6703203 L1.53758025,11.6703203 L1.51988749,11.6703203 L1.50230896,11.6703203 L1.48483865,11.6703203 L1.46748256,11.6703203 L1.45024069,11.6703203 L1.43311304,11.6703203 L1.41609962,11.6703203 L1.39920644,11.6703203 L1.38242147,11.6703203 L1.36575674,11.6703203 L1.34920623,11.6703203 L1.33277595,11.6703203 L1.3164599,11.6703203 L1.30026409,11.6703203 L1.2841825,11.6703203 L1.26822716,11.6703203 L1.25238604,11.6703203 L1.23666516,11.6703203 L1.22107053,11.6703203 L1.20559012,11.6703203 L1.19023596,11.6703203 L1.17500204,11.6703203 L1.15988835,11.6703203 L1.14490091,11.6703203 L1.13003972,11.6703203 L1.11529877,11.6703203 L1.10068406,11.6703203 L1.0861956,11.6703203 L1.07182738,11.6703203 L1.05759141,11.6703203 L1.0434817,11.6703203 L1.02949823,11.6703203 L1.01564101,11.6703203 L1.00191004,11.6703203 L0.988311326,11.6703203 L0.974844874,11.6703203 L0.96150467,11.6703203 L0.948290714,11.6703203 L0.93521503,11.6703203 L0.922265593,11.6703203 L0.909448417,11.6703203 L0.8967635,11.6703203 L0.884210843,11.6703203 L0.871796457,11.6703203 L0.85950832,11.6703203 L0.847358454,11.6703203 L0.83534686,11.6703203 L0.823467525,11.6703203 L0.811720451,11.6703203 L0.800111648,11.6703203 L0.788641116,11.6703203 L0.777308857,11.6703203 L0.766114868,11.6703203 L0.75505314,11.6703203 L0.744135695,11.6703203 L0.733356522,11.6703203 L0.72271562,11.6703203 L0.712219002,11.6703203 L0.701860655,11.6703203 L0.69164058,11.6703203 L0.6815708,11.6703203 L0.67163328,11.6703203 L0.661846055,11.6703203 L0.652197101,11.6703203 L0.642698443,11.6703203 L0.633338057,11.6703203 L0.624127966,11.6703203 L0.615056146,11.6703203 L0.606134622,11.6703203 L0.597363392,11.6703203 L0.588730435,11.6703203 L0.580253784,11.6703203 L0.571915405,11.6703203 L0.563733333,11.6703203 L0.555695545,11.6703203 L0.547814063,11.6703203 L0.540076865,11.6703203 L0.532489962,11.6703203 L0.525053355,11.6703203 L0.517773054,11.6703203 L0.510637037,11.6703203 L0.503663339,11.6703203 L0.496833924,11.6703203 L0.490160816,11.6703203 L0.483644015,11.6703203 L0.477277509,11.6703203 L0.471073323,11.6703203 L0.465019431,11.6703203 L0.459121846,11.6703203 L0.453380569,11.6703203 L0.447795598,11.6703203 L0.442366935,11.6703203 L0.43710059,11.6703203 L0.431990553,11.6703203 L0.427036822,11.6703203 L0.422245411,11.6703203 L0.417616318,11.6703203 L0.413143532,11.6703203 L0.408839077,11.6703203 L0.404690929,11.6703203 L0.400705099,11.6703203 L0.396881589,11.6703203 L0.393220397,11.6703203 L0.389721524,11.6703203 L0.386390982,11.6703203 L0.383222759,11.6703203 L0.380222866,11.6703203 L0.377385293,11.6703203 L0.374710038,11.6703203 L0.372209125,11.6703203 L0.369870531,11.6703203 L0.367700268,11.6703203 L0.365698336,11.6703203 L0.363864734,11.6703203 L0.362205475,11.6703203 L0.360708535,11.6703203 Z" id="形状"></path>
                        </g>
                    </g>
                </g>
            </g>
        </g>
    </g>
</svg>