<?xml version="1.0" encoding="UTF-8"?>
<svg width="32px" height="32px" viewBox="0 0 32 32" version="1.1" xmlns="http://www.w3.org/2000/svg" xmlns:xlink="http://www.w3.org/1999/xlink">
    <title>编组 28</title>
    <g id="v1.3" stroke="none" stroke-width="1" fill="none" fill-rule="evenodd">
        <g id="我的模板/全选删除备份" transform="translate(-261.000000, -445.000000)">
            <g id="编组-4" transform="translate(149.000000, 355.000000)">
                <g id="编组-29" transform="translate(83.000000, 90.000000)">
                    <g id="编组-28" transform="translate(29.000000, 0.000000)">
                        <rect id="矩形" x="0" y="0" width="32" height="32"></rect>
                        <g id="编组" transform="translate(3.809524, 3.809524)" fill="#333333">
                            <path d="M2.39120879,22.763951 L2.39120879,8.52823971 L2.74985026,8.17144344 L8.21370256,8.17144344 L8.21370256,2.7357024 L8.57234403,2.37890613 L20.3543678,2.37890613 L20.3543678,8.66463033 L22.7455766,6.2857242 L22.7455766,2.37890613 L22.7455766,0 L20.3543678,0 L7.58188542,0 L0,7.54287697 L0,22.763951 L0,25.1428571 L2.39120879,25.1428571 L20.3543678,25.1428571 L22.7455766,25.1428571 L22.7455766,22.763951 L22.7455766,16.3428869 L20.3543678,18.721793 L20.3543678,22.763951 L2.39120879,22.763951 Z M24.0093304,8.17144344 L13.2682995,18.8571924 L13.2682995,20.742872 L15.795588,20.742872 L25.9047619,10.6857292 L24.0093304,8.17144344 Z" id="形状"></path>
                        </g>
                    </g>
                </g>
            </g>
        </g>
    </g>
</svg>