<?xml version="1.0" encoding="UTF-8"?>
<svg width="18px" height="19px" viewBox="0 0 18 19" version="1.1" xmlns="http://www.w3.org/2000/svg" xmlns:xlink="http://www.w3.org/1999/xlink">
    <title>切片</title>
    <g id="V1.2" stroke="none" stroke-width="1" fill="none" fill-rule="evenodd">
        <g id="设备列表" transform="translate(-1836.000000, -393.000000)">
            <g id="编组-6" transform="translate(1668.000000, 351.000000)">
                <g id="icon/bianji备份-52" transform="translate(168.000000, 43.000000)">
                    <path d="M8.99842099,16.1428571 C12.9433138,16.1428571 16.1412781,12.9448929 16.1412781,9 C16.1412781,5.05510714 12.9433138,1.85714286 8.99842099,1.85714286 C5.05352813,1.85714286 1.85556385,5.05510714 1.85556385,9 C1.85556385,12.9448929 5.05352813,16.1428571 8.99842099,16.1428571 Z" id="路径" stroke="#ACC7E8" stroke-width="1.2" stroke-linejoin="round"></path>
                    <path d="M5.42699242,10.0714286 C6.01872608,10.0714286 6.49842099,9.59173366 6.49842099,9 C6.49842099,8.40826634 6.01872608,7.92857143 5.42699242,7.92857143 C4.83525876,7.92857143 4.35556385,8.40826634 4.35556385,9 C4.35556385,9.59173366 4.83525876,10.0714286 5.42699242,10.0714286 Z" id="椭圆形" fill="#ACC7E8" fill-rule="nonzero"></path>
                    <path d="M8.99842099,10.0714286 C9.59015465,10.0714286 10.0698496,9.59173366 10.0698496,9 C10.0698496,8.40826634 9.59015465,7.92857143 8.99842099,7.92857143 C8.40668733,7.92857143 7.92699242,8.40826634 7.92699242,9 C7.92699242,9.59173366 8.40668733,10.0714286 8.99842099,10.0714286 Z" id="椭圆形" fill="#ACC7E8" fill-rule="nonzero"></path>
                    <path d="M12.5698496,10.0714286 C13.1615832,10.0714286 13.6412781,9.59173366 13.6412781,9 C13.6412781,8.40826634 13.1615832,7.92857143 12.5698496,7.92857143 C11.9781159,7.92857143 11.498421,8.40826634 11.498421,9 C11.498421,9.59173366 11.9781159,10.0714286 12.5698496,10.0714286 Z" id="椭圆形" fill="#ACC7E8" fill-rule="nonzero"></path>
                </g>
            </g>
        </g>
    </g>
</svg>