<?xml version="1.0" encoding="UTF-8"?>
<svg width="18px" height="18px" viewBox="0 0 18 18" version="1.1" xmlns="http://www.w3.org/2000/svg" xmlns:xlink="http://www.w3.org/1999/xlink">
    <title>切片</title>
    <g id="设备管理" stroke="none" stroke-width="1" fill="none" fill-rule="evenodd">
        <g id="广告机/LED2" transform="translate(-1747.000000, -263.000000)">
            <g id="编组-2" transform="translate(1729.000000, 237.514155)">
                <g id="编组" transform="translate(18.000000, 23.485845)">
                    <g id="icon/fuxuankuang" transform="translate(0.000000, 2.000000)">
                        <path d="M8.95542292,1.53333333 C10.9482504,1.53333333 12.7524171,2.34108626 14.0583769,3.64704606 C15.3643367,4.95300586 16.1720896,6.75717253 16.1720896,8.75 C16.1720896,10.7428275 15.3643367,12.5469941 14.0583769,13.8529539 C12.7524171,15.1589137 10.9482504,15.9666667 8.95542292,15.9666667 C6.96259544,15.9666667 5.15842878,15.1589137 3.85246898,13.8529539 C2.54650918,12.5469941 1.73875625,10.7428275 1.73875625,8.75 C1.73875625,6.75717253 2.54650918,4.95300586 3.85246898,3.64704606 C5.15842878,2.34108626 6.96259544,1.53333333 8.95542292,1.53333333 Z" id="椭圆形" stroke="#4096FF" stroke-width="1.06666667"></path>
                        <path d="M9.10398732,5.77397766 C9.10398732,6.20144451 9.41648567,6.54795531 9.80199366,6.54795531 C10.1875017,6.54795531 10.5,6.20144451 10.5,5.77397766 C10.5,5.3465108 10.1875017,5 9.80199366,5 C9.41648567,5.00009082 9.10398732,5.34658346 9.10398732,5.77397766 L9.10398732,5.77397766 Z M9.6011475,12.9006897 C9.08619767,13.0435479 8.37336662,13.0307606 8.01714766,12.8721362 C7.66086319,12.7136025 7.53117564,12.1368837 7.72895857,11.5906801 L8.6173273,9.13658735 C8.81509385,8.59032924 8.55833969,8.01468211 8.04686261,7.85727463 L7.87709101,7.80501738 C7.36559755,7.64762805 7.37573732,7.4414326 7.89968026,7.3468537 L8.40814326,7.25503569 C8.9320862,7.1604023 9.65223951,7.21275037 10.0085076,7.3713385 C10.3647921,7.52987214 10.4936278,8.10619133 10.2948293,8.65199534 L9.46654568,10.9261938 C9.26774713,11.4719979 9.51655656,12.0563273 10.019319,12.2247602 C10.5220814,12.3931931 10.5122201,12.6479041 9.99727032,12.7907623 L9.60118026,12.9006897 L9.6011475,12.9006897 Z" id="形状" fill="#4096FF" fill-rule="nonzero"></path>
                    </g>
                </g>
            </g>
        </g>
    </g>
</svg>