<?xml version="1.0" encoding="UTF-8"?>
<svg width="18px" height="18px" viewBox="0 0 18 18" version="1.1" xmlns="http://www.w3.org/2000/svg" xmlns:xlink="http://www.w3.org/1999/xlink">
    <title>切片</title>
    <g id="设备管理" stroke="none" stroke-width="1" fill="none" fill-rule="evenodd" opacity="0.300000012">
        <g id="广告机/LED1" transform="translate(-1747.000000, -264.000000)">
            <g id="编组-2" transform="translate(1729.000000, 237.514155)">
                <g id="编组" transform="translate(18.000000, 23.485845)">
                    <g id="icon/fuxuankuang" transform="translate(0.000000, 3.000000)">
                        <g id="编组" transform="translate(1.205423, 1.000000)">
                            <path d="M7.75,0.533333333 C9.74282747,0.533333333 11.5469941,1.34108626 12.8529539,2.64704606 C14.1589137,3.95300586 14.9666667,5.75717253 14.9666667,7.75 C14.9666667,9.74282747 14.1589137,11.5469941 12.8529539,12.8529539 C11.5469941,14.1589137 9.74282747,14.9666667 7.75,14.9666667 C5.75717253,14.9666667 3.95300586,14.1589137 2.64704606,12.8529539 C1.34108626,11.5469941 0.533333333,9.74282747 0.533333333,7.75 C0.533333333,5.75717253 1.34108626,3.95300586 2.64704606,2.64704606 C3.95300586,1.34108626 5.75717253,0.533333333 7.75,0.533333333 Z" id="椭圆形" stroke="#4096FF" stroke-width="1.06666667"></path>
                            <path d="M7.89856441,4.77397766 C7.89856441,5.20144451 8.21106275,5.54795531 8.59657074,5.54795531 C8.98207874,5.54795531 9.29457708,5.20144451 9.29457708,4.77397766 C9.29457708,4.3465108 8.98207874,4 8.59657074,4 C8.21106275,4.00009082 7.89856441,4.34658346 7.89856441,4.77397766 L7.89856441,4.77397766 Z M8.39572458,11.9006897 C7.88077475,12.0435479 7.1679437,12.0307606 6.81172475,11.8721362 C6.45544027,11.7136025 6.32575272,11.1368837 6.52353565,10.5906801 L7.41190438,8.13658735 C7.60967093,7.59032924 7.35291678,7.01468211 6.84143969,6.85727463 L6.67166809,6.80501738 C6.16017463,6.64762805 6.1703144,6.4414326 6.69425735,6.3468537 L7.20272034,6.25503569 C7.72666329,6.1604023 8.4468166,6.21275037 8.80308469,6.3713385 C9.15936917,6.52987214 9.28820492,7.10619133 9.08940637,7.65199534 L8.26112277,9.92619384 C8.06232422,10.4719979 8.31113364,11.0563273 8.81389609,11.2247602 C9.31665853,11.3931931 9.30679723,11.6479041 8.7918474,11.7907623 L8.39575735,11.9006897 L8.39572458,11.9006897 Z" id="形状" fill="#4096FF" fill-rule="nonzero"></path>
                        </g>
                    </g>
                </g>
            </g>
        </g>
    </g>
</svg>