<?xml version="1.0" encoding="UTF-8"?>
<svg width="504px" height="66px" viewBox="0 0 504 66" version="1.1" xmlns="http://www.w3.org/2000/svg" xmlns:xlink="http://www.w3.org/1999/xlink">
    <title>tab-LED备份</title>
    <defs>
        <linearGradient x1="50%" y1="0%" x2="50%" y2="99.1477273%" id="linearGradient-1">
            <stop stop-color="#FFB67C" offset="0%"></stop>
            <stop stop-color="#FF8C30" offset="100%"></stop>
        </linearGradient>
        <path d="M16,0 C28.1959871,0 32,4.38769902 32,16 C32,27.612301 28.1959871,32 16,32 C3.80401293,32 0,27.612301 0,16 C0,4.38769902 3.80401293,0 16,0 Z" id="path-2"></path>
        <filter x="-23.4%" y="-14.1%" width="146.9%" height="156.2%" filterUnits="objectBoundingBox" id="filter-3">
            <feMorphology radius="3" operator="erode" in="SourceAlpha" result="shadowSpreadOuter1"></feMorphology>
            <feOffset dx="0" dy="6" in="shadowSpreadOuter1" result="shadowOffsetOuter1"></feOffset>
            <feGaussianBlur stdDeviation="4.5" in="shadowOffsetOuter1" result="shadowBlurOuter1"></feGaussianBlur>
            <feColorMatrix values="0 0 0 0 0.804489357   0 0 0 0 0.395380493   0 0 0 0 0.0680934017  0 0 0 0.6 0" type="matrix" in="shadowBlurOuter1"></feColorMatrix>
        </filter>
    </defs>
    <g id="tab-LED备份" stroke="none" stroke-width="1" fill="none" fill-rule="evenodd">
        <path d="M166.439,46.029 L166.434373,46.0175802 C168.769826,51.7673847 174.352103,55.8520183 180.905787,55.9960646 L181.264211,56 L0,56 L0,4 L0.00489530723,3.80035966 C0.105565453,1.75223915 1.74668502,0.109093099 3.7939606,0.00521491464 L4,0 L138.735789,0 L139.094213,0.00393537341 C145.528739,0.14536264 151.026861,4.08538588 153.435032,9.67045923 L153.565627,9.98241985 L166.439,46.029 Z" id="形状结合" fill="#F7F9FC"></path>
        <path d="M327.703211,46.029 L327.698584,46.0175802 C330.034036,51.7673847 335.616313,55.8520183 342.169998,55.9960646 L342.528421,56 L161.264211,56 L161.264211,4 L161.269106,3.80035966 C161.369776,1.75223915 163.010896,0.109093099 165.058171,0.00521491464 L165.264211,-8.52651283e-14 L300,-8.52651283e-14 L300.358423,0.00393537341 C306.79295,0.14536264 312.291072,4.08538588 314.699243,9.67045923 L314.829837,9.98241985 L327.703211,46.029 Z" id="形状结合备份-2" fill="#F7F9FC"></path>
        <path d="M504,56 L504,66 L0,66 L0,56 L504,56 Z M461.735789,-1.70530257e-13 L462.094213,0.00393537341 C468.528739,0.14536264 474.026861,4.08538588 476.435032,9.67045923 L476.565627,9.98241985 L489.434373,46.0175802 C491.769826,51.7673847 497.352103,55.8520183 503.905787,55.9960646 L504.264211,56 L323,56 L323,4 L323.004895,3.80035966 C323.105565,1.75223915 324.746685,0.109093099 326.793961,0.00521491464 L327,-1.70530257e-13 L461.735789,-1.70530257e-13 Z" id="形状结合" fill="#FFFFFF"></path>
        <g id="通用图标/识别次数" transform="translate(193.000000, 17.000000)">
            <path d="M16,0 C28.1959871,0 32,4.38769902 32,16 C32,27.612301 28.1959871,32 16,32 C3.80401293,32 0,27.612301 0,16 C0,4.38769902 3.80401293,0 16,0 Z" id="Rectangle" fill="#97C0FF" opacity="0.160178961"></path>
            <g id="编组" transform="translate(7.200000, 7.600000)">
                <rect id="矩形" fill="#8AB9FF" opacity="0.5" x="0" y="3.204" width="17.1428571" height="9.968" rx="1.1392"></rect>
                <rect id="矩形备份" fill="#8AB9FF" opacity="0.5" x="0" y="13.884" width="17.088" height="1.71428571" rx="0.857142857"></rect>
                <circle id="椭圆形" fill="#8AB9FF" opacity="0.800000012" cx="8.40342857" cy="14.8114286" r="1"></circle>
                <polygon id="路径-17" fill="#8AB9FF" fill-rule="nonzero" points="11.748 1.78 11.748 3.204 11.036 3.204 11.036 1.78"></polygon>
                <polygon id="路径-17备份" fill="#8AB9FF" fill-rule="nonzero" points="13.528 1.78 13.528 3.204 12.816 3.204 12.816 1.78"></polygon>
                <rect id="矩形" fill="#8AB9FF" x="9.968" y="0" width="4.5568" height="2.2784" rx="0.5696"></rect>
                <circle id="椭圆形" fill="#8AB9FF" cx="4.31171429" cy="6.586" r="1"></circle>
                <circle id="椭圆形备份-3" fill="#8AB9FF" cx="4.31171429" cy="8.366" r="1"></circle>
                <circle id="椭圆形备份-6" fill="#8AB9FF" cx="4.31171429" cy="10.146" r="1"></circle>
                <circle id="椭圆形备份" fill="#8AB9FF" cx="8.66542857" cy="6.586" r="1"></circle>
                <circle id="椭圆形备份-4" fill="#8AB9FF" cx="8.66542857" cy="8.366" r="1"></circle>
                <circle id="椭圆形备份-2" fill="#8AB9FF" cx="13.0191429" cy="6.586" r="1"></circle>
                <circle id="椭圆形备份-5" fill="#8AB9FF" cx="13.0191429" cy="8.366" r="1"></circle>
                <line x1="8.54790777" y1="10.146" x2="10.3279078" y2="10.146" id="路径-18" stroke="#8AB9FF" stroke-width="1.068" stroke-linecap="round"></line>
            </g>
        </g>
        <g id="编组" transform="translate(355.000000, 17.000000)">
            <g id="Rectangle备份">
                <use fill="black" fill-opacity="1" filter="url(#filter-3)" xlink:href="#path-2"></use>
                <use fill="url(#linearGradient-1)" fill-rule="evenodd" xlink:href="#path-2"></use>
            </g>
            <g transform="translate(7.428571, 8.000000)">
                <path d="M3.04778011,16.22344 C2.84912762,16.3200844 2.60974219,16.2373905 2.51309779,16.0387381 C2.42523924,15.8581449 2.48559415,15.6438881 2.64654443,15.5338145 L2.69779976,15.5040557 L4.947,14.285 L1.13714286,14.2857143 C0.509116199,14.2857143 2.98955689e-16,13.7765981 0,13.1485714 L0,1.13714286 C1.45133521e-16,0.509116199 0.509116199,3.3741123e-16 1.13714286,0 L16.0057143,0 C16.6337409,1.06677979e-16 17.1428571,0.509116199 17.1428571,1.13714286 L17.1428571,13.1485714 C17.1428571,13.7765981 16.6337409,14.2857143 16.0057143,14.2857143 L12.184,14.285 L14.434544,15.5040557 L14.4857993,15.5338145 C14.6467496,15.6438881 14.7071045,15.8581449 14.619246,16.0387381 C14.5226016,16.2373905 14.2832161,16.3200844 14.0845636,16.22344 L14.0845636,16.22344 L10.505,14.285 L6.626,14.285 L3.04778011,16.22344 Z" id="形状结合" fill="#FFFFFF" opacity="0.5"></path>
                <rect id="矩形" fill="#FFFFFF" opacity="0.600000024" x="9.21796828" y="6.77635953" width="5.40127768" height="5.39888552" rx="0.771611097"></rect>
                <rect id="矩形" fill="#FFFFFF" opacity="0.800000012" x="9.21796828" y="8.7088659" width="3.46791504" height="3.46637914" rx="0.771611097"></rect>
                <line x1="2.24164924" y1="7.82931418" x2="4.52736353" y2="7.82931418" id="路径-25" stroke="#FFFFFF" stroke-width="0.743124652" stroke-linecap="round"></line>
                <line x1="2.24164924" y1="9.68630301" x2="5.67022067" y2="9.68630301" id="路径-25备份" stroke="#FFFFFF" stroke-width="0.743124652" stroke-linecap="round"></line>
                <line x1="2.24164924" y1="11.5432918" x2="6.81307781" y2="11.5432918" id="路径-25备份-2" stroke="#FFFFFF" stroke-width="0.743124652" stroke-linecap="round"></line>
                <polyline id="路径-26" stroke="#FFFFFF" stroke-width="0.743124652" opacity="0.400000006" stroke-linecap="round" stroke-linejoin="round" points="2.24164924 4.74749141 6.2359848 2.50763212 10.1714286 4.74749141 14.619246 2.50763212"></polyline>
            </g>
        </g>
        <g id="通用图标/识别次数" transform="translate(32.000000, 17.000000)">
            <path d="M16,0 C28.1959871,0 32,4.38769902 32,16 C32,27.612301 28.1959871,32 16,32 C3.80401293,32 0,27.612301 0,16 C0,4.38769902 3.80401293,0 16,0 Z" id="Rectangle" fill="#97C0FF" opacity="0.160178961"></path>
            <g id="编组-6" transform="translate(7.200000, 8.509052)">
                <rect id="矩形" fill="#8AB9FF" opacity="0.5" x="0" y="11.8909478" width="17.6" height="1" rx="0.5"></rect>
                <rect id="矩形" stroke="#8AB9FF" stroke-width="0.64" fill="#8AB9FF" opacity="0.5" stroke-linejoin="round" x="0" y="1.09094784" width="17.6" height="10.4" rx="1.1392"></rect>
                <circle id="椭圆形" stroke="#8AB9FF" stroke-width="0.8" fill="#8AB9FF" cx="3.6" cy="4.29094784" r="1"></circle>
                <rect id="矩形备份" fill="#8AB9FF" opacity="0.5" x="7.2" y="12.6909478" width="3.2" height="1" rx="0.5"></rect>
                <rect id="矩形备份" fill="#8AB9FF" opacity="0.5" x="8" y="13.4909478" width="1.6" height="2.4"></rect>
                <path d="M4.95717187,11.2852368 L7.14130699,8.42657878 C7.1842256,8.37040569 7.26455528,8.35966081 7.32072837,8.40257941 C7.33037028,8.40994624 7.33891569,8.41864664 7.34610803,8.4284194 L9.44995998,11.2870774 C9.49186204,11.3440128 9.47967511,11.4241364 9.4227397,11.4660385 C9.40075294,11.4822198 9.37416865,11.4909478 9.34686932,11.4909478 L5.05888224,11.4909478 C4.98818979,11.4909478 4.93088224,11.4336403 4.93088224,11.3629478 C4.93088224,11.3348614 4.94012012,11.3075546 4.95717187,11.2852368 Z" id="路径-22" fill="#8AB9FF" opacity="0.800000012"></path>
                <path d="M8.25147499,11.1618102 L11.5015977,6.90795734 C11.5702675,6.8180804 11.698795,6.80088859 11.7886719,6.86955836 C11.804099,6.88134528 11.8177716,6.89526593 11.8292794,6.91090234 L14.959936,11.1647552 C15.0269793,11.2558519 15.0074802,11.3840496 14.9163835,11.4510929 C14.8812047,11.476983 14.8386698,11.4909478 14.7949909,11.4909478 L8.41421159,11.4909478 C8.30110367,11.4909478 8.20941159,11.3992558 8.20941159,11.2861478 C8.20941159,11.2412096 8.22419219,11.1975187 8.25147499,11.1618102 Z" id="路径-22备份" fill="#8AB9FF" opacity="0.600000024"></path>
                <g id="编组-5" transform="translate(1.200000, 0.000000)" stroke="#8AB9FF" stroke-width="0.5">
                    <g id="编组">
                        <line x1="0" y1="0.4" x2="1.42589023" y2="0.4" id="路径-23" stroke-linecap="round"></line>
                        <line x1="0.712945115" y1="0.4" x2="0.712945115" y2="0.931728979" id="路径-24" stroke-linecap="square"></line>
                    </g>
                    <g id="编组-2" transform="translate(4.533333, 0.000000)">
                        <line x1="0" y1="0.4" x2="1.42589023" y2="0.4" id="路径-23备份" stroke-linecap="round"></line>
                        <line x1="0.712945115" y1="0.4" x2="0.712945115" y2="0.931728979" id="路径-24备份" stroke-linecap="square"></line>
                    </g>
                    <g id="编组-3" transform="translate(9.066667, 0.000000)">
                        <line x1="0" y1="0.4" x2="1.42589023" y2="0.4" id="路径-23备份-2" stroke-linecap="round"></line>
                        <line x1="0.712945115" y1="0.4" x2="0.712945115" y2="0.931728979" id="路径-24备份-2" stroke-linecap="square"></line>
                    </g>
                    <g id="编组-4" transform="translate(13.600000, 0.000000)">
                        <line x1="0" y1="0.4" x2="1.42589023" y2="0.4" id="路径-23备份-3" stroke-linecap="round"></line>
                        <line x1="0.712945115" y1="0.4" x2="0.712945115" y2="0.931728979" id="路径-24备份-3" stroke-linecap="square"></line>
                    </g>
                </g>
            </g>
        </g>
        <path d="M323,24 C324.656854,24 326,25.3431458 326,27 L326,41 C326,42.6568542 324.656854,44 323,44 L323,44 L323,44 L323,24 Z" id="矩形" fill="#4096FF"></path>
    </g>
</svg>