<?xml version="1.0" encoding="UTF-8"?>
<svg width="24px" height="24px" viewBox="0 0 24 24" version="1.1" xmlns="http://www.w3.org/2000/svg" xmlns:xlink="http://www.w3.org/1999/xlink">
    <title>编组 34</title>
    <g id="v1.3" stroke="none" stroke-width="1" fill="none" fill-rule="evenodd">
        <g id="我的模板/全选删除备份" transform="translate(-302.000000, -629.000000)">
            <g id="编组-4" transform="translate(149.000000, 355.000000)">
                <g id="编组-6" transform="translate(24.000000, 266.000000)">
                    <g id="编组-34" transform="translate(129.000000, 8.000000)">
                        <rect id="矩形" x="0" y="0" width="24" height="24"></rect>
                        <g id="编组" transform="translate(3.000000, 3.000000)" fill="#F5222D">
                            <path d="M13.7795,5.98977 L13.7795,6 L4.2,6 L4.2,5.98977 C4.2,3.34445 6.34445,1.2 8.98977,1.2 C11.6351,1.2 13.7795,3.34445 13.7795,5.98977 Z M3,6 L1,6 C0.447716,6 0,6.44772 0,7 L0,17 C0,17.5523 0.447715,18 1,18 L17,18 C17.5523,18 18,17.5523 18,17 L18,7 C18,6.44772 17.5523,6 17,6 L14.9795,6 L14.9795,5.98977 C14.9795,2.68171 12.2978,0 8.98977,0 C5.68171,0 3,2.68171 3,5.98977 L3,6 Z M1.2,16.8 L16.8,16.8 L16.8,7.2 L1.2,7.2 L1.2,16.8 Z M9.99999,9.99994 L7.99999,9.99994 L7.99999,13.9999 L9.99999,13.9999 L9.99999,9.99994 Z" id="形状"></path>
                        </g>
                    </g>
                </g>
            </g>
        </g>
    </g>
</svg>