<?xml version="1.0" encoding="UTF-8"?>
<svg width="118px" height="32px" viewBox="0 0 118 32" version="1.1" xmlns="http://www.w3.org/2000/svg" xmlns:xlink="http://www.w3.org/1999/xlink">
    <title>编组 9</title>
    <g id="总览" stroke="none" stroke-width="1" fill="none" fill-rule="evenodd">
        <g id="通用" transform="translate(-24.000000, -12.000000)" fill="#FFFFFF" fill-rule="nonzero">
            <g id="编组-9" transform="translate(24.000000, 12.000000)">
                <circle id="椭圆形" transform="translate(23.607119, 15.770387) rotate(-76.020000) translate(-23.607119, -15.770387) " cx="23.6071187" cy="15.7703874" r="3.3984"></circle>
                <circle id="椭圆形" transform="translate(15.930106, 11.046679) rotate(-45.000000) translate(-15.930106, -11.046679) " cx="15.9301062" cy="11.0466791" r="2.5728"></circle>
                <circle id="椭圆形" transform="translate(8.455476, 15.779425) rotate(-76.720000) translate(-8.455476, -15.779425) " cx="8.45547566" cy="15.7794246" r="2.1824"></circle>
                <circle id="椭圆形" transform="translate(8.452936, 6.302941) rotate(-76.720000) translate(-8.452936, -6.302941) " cx="8.45293646" cy="6.30294111" r="2.1824"></circle>
                <circle id="椭圆形" transform="translate(8.452144, 25.596226) rotate(-76.720000) translate(-8.452144, -25.596226) " cx="8.45214436" cy="25.5962257" r="2.1824"></circle>
                <path d="M2.88004174,30.3104036 C2.88004174,30.8931201 2.52884832,31.4183977 1.99036423,31.6410935 C1.45188014,31.8637894 0.832260194,31.7400014 0.420675976,31.3275005 C0.00909175729,30.9149996 -0.113317407,30.2951058 0.110575842,29.7571185 C0.334469092,29.2191312 0.860526651,28.8691087 1.44324174,28.8704 C2.23728181,28.8721681 2.88004174,29.5163615 2.88004174,30.3104036 Z" id="路径"></path>
                <path d="M2.88004531,1.44000358 C2.88004531,2.02272011 2.52884832,2.54799767 1.99036423,2.77069351 C1.45188014,2.99338935 0.832260194,2.86960142 0.420675976,2.45710053 C0.00909175729,2.04459964 -0.113317407,1.42470584 0.110575842,0.886718516 C0.334469092,0.348731189 0.860526651,-0.00129134485 1.44324174,-6.88338275e-15 C1.82485988,-6.88338275e-15 2.19080136,0.151818532 2.46034581,0.421963298 C2.72989025,0.692108064 2.88089167,1.05838639 2.88004531,1.44000358 Z" id="路径"></path>
                <path d="M2.88004531,11.0496036 C2.88004531,11.6323201 2.52884832,12.1575977 1.99036423,12.3802935 C1.45188014,12.6029894 0.832260194,12.4792014 0.420675976,12.0667005 C0.00909175729,11.6541996 -0.113317407,11.0343058 0.110575842,10.4963185 C0.334469092,9.95833119 0.860526651,9.60830866 1.44324174,9.6096 C1.82485988,9.6096 2.19080136,9.76141853 2.46034581,10.0315633 C2.72989025,10.3017081 2.88089167,10.6679864 2.88004531,11.0496036 Z" id="路径"></path>
                <path d="M2.88004531,20.6784036 C2.88133587,21.2614096 2.53096635,21.7876692 1.99258566,22.0113741 C1.45420497,22.2350791 0.834060041,22.1120823 0.421811522,21.6998338 C0.00956300293,21.2875853 -0.113433772,20.6674404 0.110271194,20.1290597 C0.333976161,19.590679 0.860235729,19.2403094 1.44324174,19.2416 C2.23676447,19.2416 2.88004531,19.8848809 2.88004531,20.6784036 Z" id="路径"></path>
                <circle id="椭圆形" transform="translate(15.928697, 20.693609) rotate(-76.660000) translate(-15.928697, -20.693609) " cx="15.9286973" cy="20.6936087" r="2.5728"></circle>
                <path d="M38.2400417,18.0960036 C37.0965751,18.0469369 36.4704417,17.4869369 36.3616417,16.4160036 L36.3616417,5.85600358 C36.4704417,4.87360358 37.0688417,4.33920358 38.1568417,4.25600358 L41.3376417,4.25600358 C42.4811084,4.35200358 43.1061751,4.91307025 43.2128417,5.93920358 L43.2128417,16.6496036 C43.1040417,17.5349369 42.4523084,18.0256036 41.2576417,18.1216036 L38.2400417,18.0960036 Z M38.2400417,10.3232036 L41.3376417,10.3232036 L41.3376417,6.12160358 C41.314254,5.732301 40.9948002,5.42679705 40.6048417,5.42080358 L38.9728417,5.42080358 C38.5822475,5.42524238 38.2619047,5.73159643 38.2400417,6.12160358 L38.2400417,10.3232036 Z M40.6048417,16.9824036 C41.0944417,16.9824036 41.3376417,16.7488036 41.3376417,16.2816036 L41.3376417,11.6544036 L38.2400417,11.6544036 L38.2400417,16.2752036 C38.2820617,16.6874898 38.638861,16.9951239 39.0528417,16.9760036 L40.6048417,16.9824036 Z M47.7824417,18.9408036 L47.2928417,17.6032036 L49.9008417,17.6032036 C50.3904417,17.6032036 50.6368417,17.4432036 50.6368417,17.1136036 L50.6368417,7.94240358 L44.0288417,7.94240358 L44.0288417,6.61120358 L50.6368417,6.61120358 L50.6368417,3.32160358 L52.6752417,3.32160358 L52.6752417,6.61120358 L54.6336417,6.61120358 L54.6336417,7.94240358 L52.6752417,7.94240358 L52.6752417,17.3248036 C52.5664417,18.3040036 51.8048417,18.8373369 50.3904417,18.9248036 L47.7824417,18.9408036 Z M46.9728417,14.3136036 C46.3200417,12.6816036 45.5861751,11.0485369 44.7712417,9.41440358 L46.5664417,9.41440358 C47.4730774,11.0000781 48.2893139,12.6357562 49.0112417,14.3136036 L46.9728417,14.3136036 Z" id="形状"></path>
                <path d="M56.9184417,5.98080358 L56.9184417,4.72320358 L60.0160417,4.72320358 L60.0160417,3.32160358 L61.8944417,3.32160358 L61.8944417,4.72320358 L64.7488417,4.72320358 L64.7488417,5.98080358 L61.8944417,5.98080358 L61.8944417,7.58080358 L64.4224417,7.58080358 L64.4224417,8.83840358 L61.8944417,8.83840358 L61.8944417,10.3808036 L64.7488417,10.3808036 L64.7488417,11.6416036 L61.8944417,11.6416036 L61.8944417,19.0016036 L60.0160417,19.0016036 L60.0160417,11.6416036 L56.9184417,11.6416036 L56.9184417,10.3808036 L60.0160417,10.3808036 L60.0160417,8.83840358 L57.4880417,8.83840358 L57.4880417,7.58080358 L60.0160417,7.58080358 L60.0160417,5.98080358 L56.9184417,5.98080358 Z M58.3040417,17.7440036 L56.9184417,17.5360036 C57.3093602,15.8822708 57.5238919,14.1917608 57.5584417,12.4928036 L59.0240417,12.4928036 C58.9878803,14.265154 58.7462658,16.027329 58.3040417,17.7440036 L58.3040417,17.7440036 Z M63.5232417,17.7440036 C63.1824811,16.0114981 62.9685799,14.2564391 62.8832417,12.4928036 L64.3520417,12.4928036 C64.3831335,14.1881969 64.5749253,15.876822 64.9248417,17.5360036 L63.5232417,17.7440036 Z M64.9920417,7.38240358 L64.9920417,6.05120358 L66.7872417,6.05120358 L66.7872417,3.25120358 L68.6624417,3.25120358 L68.6624417,6.05120358 L71.2736417,6.05120358 L71.2736417,3.25120358 L73.2320417,3.25120358 L73.2320417,6.05120358 L75.0240417,6.05120358 L75.0240417,7.38240358 L73.2320417,7.38240358 L73.2320417,11.3728036 L75.3504417,11.3728036 L75.3504417,12.7040036 L73.2320417,12.7040036 L73.2320417,18.9344036 L71.2736417,18.9344036 L71.2736417,12.7040036 L68.4992417,12.7040036 C68.2783631,14.9972309 67.4632782,17.1932173 66.1344417,19.0752036 L64.5024417,18.5152036 C65.6689455,16.7780915 66.3969358,14.7840786 66.6240417,12.7040036 L64.9120417,12.7040036 L64.9120417,11.3728036 L66.7040417,11.3728036 C66.7137813,11.2300935 66.7417417,11.0892162 66.7872417,10.9536036 L66.7872417,7.38240358 L64.9920417,7.38240358 Z M68.6624417,10.6720036 C68.6612942,10.9078151 68.6344694,11.1428003 68.5824417,11.3728036 L71.2736417,11.3728036 L71.2736417,7.38240358 L68.6624417,7.38240358 L68.6624417,10.6720036 Z" id="形状"></path>
                <path d="M78.2048417,5.49120358 L77.9616417,4.16320358 C80.6240417,3.97547025 83.1253751,3.69493691 85.4656417,3.32160358 L85.7856417,4.65280358 C84.8064417,4.83840358 83.8656417,4.97280358 82.9312417,5.07200358 L82.9312417,7.52320358 L86.0288417,7.52320358 L86.0288417,8.78400358 L82.9312417,8.78400358 L82.9312417,18.9344036 L81.1360417,18.9344036 L81.1360417,8.78400358 L77.7152417,8.78400358 L77.7152417,7.52320358 L81.1424417,7.52320358 L81.1424417,5.28320358 C80.9291084,5.28320358 80.6027084,5.30560358 80.1632417,5.35040358 C79.3483084,5.39947025 78.6955084,5.44640358 78.2048417,5.49120358 Z M79.1040417,17.4656036 L77.7984417,17.3952036 C78.213826,14.8722006 78.4278344,12.3201501 78.4384417,9.76320358 L79.8240417,9.76320358 C79.8271559,12.347616 79.5860847,14.9265423 79.1040417,17.4656036 L79.1040417,17.4656036 Z M84.8128417,17.4656036 C84.3513795,14.924815 84.1370458,12.3453099 84.1728417,9.76320358 L85.4784417,9.76320358 C85.4002883,12.3279137 85.6465049,14.8922217 86.2112417,17.3952036 L84.8128417,17.4656036 Z M86.6080417,15.9232036 L86.3616417,14.5248036 L92.3968417,13.8848036 L92.3968417,3.32480358 L94.3552417,3.32480358 L94.3552417,13.7568036 L96.1504417,13.5488036 L96.3136417,15.0176036 L94.3552417,15.1584036 L94.3552417,18.9344036 L92.4128417,18.9344036 L92.4128417,15.3632036 L86.6080417,15.9232036 Z M89.2160417,12.9152036 C88.4455129,11.5396853 87.6016297,10.2065636 86.6880417,8.92160358 L88.5728417,8.92160358 C89.5955977,10.1820102 90.5229676,11.5169094 91.3472417,12.9152036 L89.2160417,12.9152036 Z M89.6256417,8.22400358 C88.8427555,6.86008982 87.9704488,5.54949172 87.0144417,4.30080358 L88.9728417,4.30080358 C89.8400417,5.42080358 90.7680417,6.72960358 91.7440417,8.22400358 L89.6256417,8.22400358 Z" id="形状"></path>
                <path d="M105.123242,19.0048036 L104.144042,17.5360036 C105.970233,17.0962836 107.728948,16.4128173 109.372842,15.5040036 C108.338175,14.7104036 107.195775,13.4037369 105.945642,11.5840036 L108.067242,11.5840036 C108.90069,12.699776 109.889977,13.6901413 111.004842,14.5248036 C112.239672,13.6107079 113.310811,12.4941263 114.172842,11.2224036 C114.336042,11.0368036 114.390442,10.9216036 114.336042,10.8736036 C114.281642,10.7328036 114.089642,10.6624036 113.763242,10.6624036 L105.532842,10.6624036 L105.532842,9.33440358 L110.012842,9.33440358 L110.012842,7.16160358 L105.286442,7.16160358 L105.286442,7.65120358 L103.164842,7.65120358 L103.164842,11.1552036 L105.040042,10.5152036 L105.286442,11.9840036 L103.164842,12.6240036 L103.164842,17.1744036 C103.056042,18.1568036 102.348842,18.6912036 101.043242,18.7744036 L99.2480417,18.7744036 L98.7584417,17.4464036 L100.227242,17.4464036 C100.867242,17.4464036 101.206442,17.2352036 101.206442,16.8064036 L101.206442,13.2640036 L98.9216417,13.9040036 L98.5152417,12.5024036 C99.4400417,12.2720036 100.336042,12.0128036 101.206442,11.7344036 L101.206442,7.67040358 L98.6784417,7.67040358 L98.6784417,6.34240358 L101.206442,6.34240358 L101.206442,3.33120358 L103.164842,3.33120358 L103.164842,6.34240358 L105.040042,6.34240358 L105.040042,5.78240358 L110.012842,5.78240358 L110.012842,3.26080358 L112.051242,3.26080358 L112.051242,5.78240358 L117.027242,5.78240358 L117.027242,7.18080358 L112.054442,7.18080358 L112.054442,9.35360358 L115.155242,9.35360358 C115.719518,9.26105057 116.279128,9.54279426 116.540842,10.0512036 C116.812842,10.2880036 116.758442,10.6912036 116.377642,11.2416036 C115.373346,12.8911959 114.07124,14.3397887 112.537642,15.5136036 C114.057405,16.3487881 115.667924,17.0069535 117.337642,17.4752036 L116.441642,18.9440036 C114.501194,18.340588 112.617653,17.5674686 110.812842,16.6336036 C108.993527,17.5978471 107.08887,18.3916326 105.123242,19.0048036 L105.123242,19.0048036 Z" id="路径"></path>
                <polygon id="路径" points="40.4576417 23.8016036 40.4576417 28.5024036 39.0144417 28.5024036 39.0144417 23.8016036 36.3616417 23.8016036 36.3616417 22.5216036 43.1104417 22.5216036 43.1104417 23.8016036"></polygon>
                <polygon id="路径" points="46.3072417 28.5024036 44.8640417 28.5024036 44.8640417 22.5216036 46.3072417 22.5216036"></polygon>
                <polygon id="路径" points="49.5072417 24.7072036 49.5072417 28.5024036 48.0608417 28.5024036 48.0608417 22.5216036 49.0848417 22.5216036 51.4368417 24.6048036 53.7888417 22.5216036 54.8096417 22.5216036 54.8096417 28.5024036 53.3728417 28.5024036 53.3728417 24.7072036 51.4528417 26.4160036"></polygon>
                <polygon id="路径" points="63.3088417 22.5216036 63.3088417 23.8016036 58.0096417 23.8016036 58.0096417 24.8704036 62.8288417 24.8704036 62.8288417 26.1504036 58.0096417 26.1504036 58.0096417 27.2224036 63.3088417 27.2224036 63.3088417 28.5024036 56.5728417 28.5024036 56.5728417 22.5216036"></polygon>
                <polygon id="路径" points="72.2208417 26.3136036 72.2208417 22.5216036 73.6672417 22.5216036 73.6672417 28.5024036 72.6432417 28.5024036 70.2944417 26.4192036 67.9424417 28.5024036 66.9184417 28.5024036 66.9184417 22.5216036 68.3648417 22.5216036 68.3648417 26.3136036 70.2848417 24.6048036"></polygon>
                <path d="M88.7392417,22.5216036 C90.0192417,22.5216036 90.6592417,23.0912036 90.6592417,24.2304036 L90.6592417,24.4416036 C90.6592417,25.5808036 90.0192417,26.1504036 88.7392417,26.1504036 L88.4992417,26.1504036 L91.1488417,28.4992036 L89.1072417,28.4992036 L86.4544417,26.1504036 L85.3728417,26.1504036 L85.3728417,28.5024036 L83.9264417,28.5024036 L83.9264417,22.5216036 L88.7392417,22.5216036 Z M89.2224417,24.2304036 C89.2224417,23.9456036 89.0592417,23.8016036 88.7392417,23.8016036 L85.3728417,23.8016036 L85.3728417,24.8704036 L88.7456417,24.8704036 C89.0656417,24.8704036 89.2288417,24.7264036 89.2288417,24.4416036 L89.2224417,24.2304036 Z" id="形状"></path>
                <polygon id="路径" points="98.1472417 22.5216036 100.188842 22.5216036 96.8160417 25.5104036 100.188842 28.5024036 98.1472417 28.5024036 95.4944417 26.1536036 93.8656417 26.1536036 93.8656417 28.5024036 92.4128417 28.5024036 92.4128417 22.5216036 93.8592417 22.5216036 93.8592417 24.8704036 95.4880417 24.8704036"></polygon>
                <path d="M78.6816417,28.8800036 C76.820663,28.8800036 75.3120417,27.3713823 75.3120417,25.5104036 C75.3120417,23.6494249 76.820663,22.1408036 78.6816417,22.1408036 C80.5426204,22.1408036 82.0512417,23.6494249 82.0512417,25.5104036 C82.0477199,27.3699215 80.5411597,28.8764818 78.6816417,28.8800036 Z M78.6816417,23.5968036 C77.621255,23.5968036 76.7616417,24.4564169 76.7616417,25.5168036 C76.7616417,26.5771903 77.621255,27.4368036 78.6816417,27.4368036 C79.7420285,27.4368036 80.6016417,26.5771903 80.6016417,25.5168036 C80.6016417,24.4564169 79.7420285,23.5968036 78.6816417,23.5968036 L78.6816417,23.5968036 Z" id="形状"></path>
            </g>
        </g>
    </g>
</svg>