<svg width="306" height="172" viewBox="0 0 306 172" fill="none" xmlns="http://www.w3.org/2000/svg">
<rect width="306" height="172" fill="#F1F6FC"/>
<path d="M89 135.5V30H158L144.5 65L161 109.5L151 135.5H89Z" fill="#EFF4FB"/>
<path d="M86 135.5V30H155L141.5 65L158 109.5L148 135.5H86Z" fill="#9FC7FF"/>
<path fill-rule="evenodd" clip-rule="evenodd" d="M186.5 30L164 65L170.5 106L155 127L191.485 141H198.534L220 40.5L186.5 30Z" fill="#9FC7FF"/>
<path d="M86 136V118.5L128.5 68L158 110.5L148 136H86Z" fill="white"/>
<circle cx="191" cy="63" r="11" fill="white"/>
<path d="M170.5 106L168.5 92.5L178.5 90.5L190.5 106L192 141L155 127L170.5 106Z" fill="white"/>
<path d="M182.39 134.024L201.811 103.164C203.602 100.317 207.756 100.33 209.53 103.188L228.685 134.048C230.567 137.08 228.386 141 224.818 141H186.242C182.661 141 180.483 137.055 182.39 134.024Z" fill="#4096FF"/>
<rect x="203" y="111" width="5.70363" height="15.8434" rx="2.85182" fill="white"/>
<circle cx="205.852" cy="131.596" r="2.85182" fill="white"/>
</svg>
