<?xml version="1.0" encoding="UTF-8"?>
<svg width="24px" height="24px" viewBox="0 0 24 24" version="1.1" xmlns="http://www.w3.org/2000/svg" xmlns:xlink="http://www.w3.org/1999/xlink">
    <title>切片</title>
    <g id="v1.3" stroke="none" stroke-width="1" fill="none" fill-rule="evenodd">
        <g id="我的模板/默认状态" transform="translate(-541.000000, -687.000000)">
            <g id="编组-4" transform="translate(267.000000, 281.000000)">
                <g id="右下更多备份-3" transform="translate(274.000000, 406.000000)">
                    <circle id="椭圆形" fill-opacity="0.4" fill="#000000" cx="12" cy="12" r="12"></circle>
                    <g id="右下更多" transform="translate(4.000000, 4.000000)">
                        <rect id="矩形" x="0" y="0" width="16" height="16"></rect>
                        <path d="M3.33333,7 C2.6,7 2,7.6 2,8.33333 C2,9.06666 2.6,9.66666 3.33333,9.66666 C4.06667,9.66666 4.66667,9.06666 4.66667,8.33333 C4.66667,7.6 4.06667,7 3.33333,7 Z M12.6667,7 C11.9333,7 11.3333,7.6 11.3333,8.33333 C11.3333,9.06666 11.9333,9.66666 12.6667,9.66666 C13.4,9.66666 14,9.06666 14,8.33333 C14,7.6 13.4,7 12.6667,7 Z M8,7 C7.26667,7 6.66667,7.6 6.66667,8.33333 C6.66667,9.06666 7.26667,9.66666 8,9.66666 C8.73333,9.66666 9.33333,9.06666 9.33333,8.33333 C9.33333,7.6 8.73333,7 8,7 Z" id="形状" fill="#FFFFFF" fill-rule="nonzero"></path>
                    </g>
                </g>
            </g>
        </g>
    </g>
</svg>