<?xml version="1.0" encoding="UTF-8"?>
<svg width="96px" height="94px" viewBox="0 0 96 94" version="1.1" xmlns="http://www.w3.org/2000/svg" xmlns:xlink="http://www.w3.org/1999/xlink">
    <title>编组 3</title>
    <g id="v1.3" stroke="none" stroke-width="1" fill="none" fill-rule="evenodd">
        <g id="我的模板/无模板时" transform="translate(-1021.000000, -276.000000)">
            <g id="编组-3" transform="translate(1021.000000, 276.000000)">
                <g id="编组" fill-rule="nonzero">
                    <path d="M73.1381659,0.00255678144 L62.7173097,0.00255678144 L56.6446691,10.0689648 L23.3553245,10.0689648 L17.2826839,0.00255678144 L6.86182765,0.00255678144 C3.07731703,-0.00255178271 0.00512459122,3.05491678 0,6.82758574 C0,6.8326943 0,6.83780286 0,6.84291141 L0,87.1672993 C0,90.9399683 3.06963014,94 6.85414076,94 C6.85670306,94 6.85926535,94 6.86182765,94 L73.1381659,94 C76.9226766,94.0051022 79.994869,90.9476311 80,87.1749621 L80,6.84035713 C80.0051182,3.06768817 76.9380503,0.00510855649 73.1535397,0 C73.1484151,0.00255427824 73.1432905,0.00255678144 73.1381659,0.00255678144 Z" id="路径" fill="#EFF2F6"></path>
                    <path d="M28.224137,5 L51.775863,5 C53.0743372,4.92269464 54.0689685,3.74102706 53.9962539,2.36057979 C53.9287333,1.08780232 52.9730562,0.071783545 51.775863,0 L28.224137,0 C26.9256628,0.0773053562 25.9310315,1.25897294 26.0037461,2.63942573 C26.0712667,3.91496411 27.0269438,4.93097736 28.224137,5 Z" id="路径" fill="#EFF2F6"></path>
                    <path d="M18.2731045,33 L62.72687,33 C63.9809226,33 65,34.1179775 65,35.5 C65,36.8792135 63.9834767,38 62.72687,38 L18.2731045,38 C17.0190519,38 16,36.8820225 16,35.5 C16,34.1179775 17.0190519,33 18.2731045,33 Z" id="路径" fill="#FFFFFF"></path>
                    <path d="M18.2731045,50 L62.72687,50 C63.9809226,50 65,51.1179775 65,52.5 C65,53.8792135 63.9834767,55 62.72687,55 L18.2731045,55 C17.0190519,55 16,53.8820225 16,52.5 C16,51.1207865 17.0190519,50 18.2731045,50 Z" id="路径" fill="#FFFFFF"></path>
                    <path d="M18.2731045,66 L62.72687,66 C63.9809226,66 65,67.1179775 65,68.5 C65,69.8792135 63.9834767,71 62.72687,71 L18.2731045,71 C17.0190519,71 16,69.8820225 16,68.5 C16,67.1179775 17.0190519,66 18.2731045,66 Z" id="路径" fill="#FFFFFF"></path>
                </g>
                <g id="编组-2" transform="translate(64.000000, 62.000000)">
                    <circle id="椭圆形" fill="#4096FF" cx="16" cy="16" r="16"></circle>
                    <text id="?" font-family="MicrosoftYaHei, Microsoft YaHei" font-size="24" font-weight="normal" letter-spacing="1.33714286" fill="#FFFFFF">
                        <tspan x="11" y="26">?</tspan>
                    </text>
                </g>
            </g>
        </g>
    </g>
</svg>