<?xml version="1.0" encoding="UTF-8"?>
<svg width="400px" height="200px" viewBox="0 0 400 200" version="1.1" xmlns="http://www.w3.org/2000/svg" xmlns:xlink="http://www.w3.org/1999/xlink">
    <title>无权限</title>
    <defs>
        <rect id="path-1" x="0" y="0" width="400" height="200"></rect>
        <linearGradient x1="50%" y1="0%" x2="50%" y2="16.3769448%" id="linearGradient-3">
            <stop stop-color="#5DA6FF" offset="0%"></stop>
            <stop stop-color="#FFFFFF" stop-opacity="0" offset="100%"></stop>
        </linearGradient>
        <linearGradient x1="0%" y1="46.0895407%" x2="28.4653005%" y2="50%" id="linearGradient-4">
            <stop stop-color="#1178E3" offset="0%"></stop>
            <stop stop-color="#043EB8" offset="100%"></stop>
        </linearGradient>
        <linearGradient x1="104.957749%" y1="12.6984809%" x2="22.302863%" y2="65.4625542%" id="linearGradient-5">
            <stop stop-color="#74C7FF" offset="0%"></stop>
            <stop stop-color="#2583F6" offset="100%"></stop>
        </linearGradient>
        <linearGradient x1="36.737163%" y1="100%" x2="50%" y2="0%" id="linearGradient-6">
            <stop stop-color="#77C9FF" offset="0%"></stop>
            <stop stop-color="#77C9FF" offset="0%"></stop>
            <stop stop-color="#0062D9" offset="100%"></stop>
        </linearGradient>
        <linearGradient x1="22.8343703%" y1="18.0013171%" x2="28.4653005%" y2="50%" id="linearGradient-7">
            <stop stop-color="#1178E3" offset="0%"></stop>
            <stop stop-color="#043EB8" offset="100%"></stop>
        </linearGradient>
        <linearGradient x1="104.957749%" y1="18.0013171%" x2="22.302863%" y2="63.2643758%" id="linearGradient-8">
            <stop stop-color="#74C7FF" offset="0%"></stop>
            <stop stop-color="#2583F6" offset="100%"></stop>
        </linearGradient>
        <linearGradient x1="51.7749871%" y1="75.1420522%" x2="51.7749871%" y2="100%" id="linearGradient-9">
            <stop stop-color="#74C7FF" stop-opacity="0" offset="0%"></stop>
            <stop stop-color="#2583F6" stop-opacity="0.48" offset="100%"></stop>
        </linearGradient>
        <linearGradient x1="51.7749871%" y1="64.9238503%" x2="51.7749871%" y2="105.988612%" id="linearGradient-10">
            <stop stop-color="#74C7FF" stop-opacity="0" offset="0%"></stop>
            <stop stop-color="#2583F6" stop-opacity="0.48" offset="100%"></stop>
        </linearGradient>
        <linearGradient x1="50%" y1="83.1718814%" x2="50%" y2="121.150322%" id="linearGradient-11">
            <stop stop-color="#74C7FF" stop-opacity="0" offset="0%"></stop>
            <stop stop-color="#2583F6" stop-opacity="0.48" offset="100%"></stop>
        </linearGradient>
    </defs>
    <g id="总览" stroke="none" stroke-width="1" fill="none" fill-rule="evenodd">
        <g id="无权限403" transform="translate(-869.000000, -404.000000)">
            <g id="无权限" transform="translate(869.000000, 404.000000)">
                <mask id="mask-2" fill="white">
                    <use xlink:href="#path-1"></use>
                </mask>
                <use id="蒙版" fill="#D8D8D8" opacity="0" xlink:href="#path-1"></use>
                <g id="编组-5" mask="url(#mask-2)">
                    <g transform="translate(19.000000, 19.000000)">
                        <g id="编组-4" stroke-width="1" fill="none" fill-rule="evenodd" transform="translate(227.739044, 79.022879)">
                            <g id="编组-3" transform="translate(56.991118, 27.795747) rotate(8.000000) translate(-56.991118, -27.795747) translate(37.055660, 4.699846)">
                                <path d="M8.47151586,32.9927842 C8.38632209,33.1064264 5.81008797,36.5413658 5.48999838,39.706934 L0.954502895,39.7019953 C3.09108067,35.4550151 8.35375415,33.0455339 8.47151586,32.9927842" id="Fill-35" fill="#C3E4FF" transform="translate(4.713009, 36.349859) rotate(21.000000) translate(-4.713009, -36.349859) "></path>
                                <path d="M21.8336635,41.3878328 C21.7743003,41.4689108 20.4692096,43.2066477 19.5953281,45.3356914 L16.3112886,45.3321154 C18.7082734,42.8179501 21.7444613,41.4268194 21.8336635,41.3878328" id="Fill-41" fill="#D6EEFF" transform="translate(19.072476, 43.361762) rotate(21.000000) translate(-19.072476, -43.361762) "></path>
                                <path d="M34.682648,21.68685 C34.6911788,29.5535065 30.9457909,36.6943112 22.4483219,36.6850672 C13.9507174,36.6758051 10.1898068,29.5268267 10.1812497,21.6601702 C10.1712369,12.431938 16.5825476,3.26235887 22.4120223,3.26870335 C28.2413616,3.27505426 34.6726089,12.4586178 34.682648,21.68685" id="Fill-51" fill="#E8F6FF" transform="translate(22.431949, 19.976885) rotate(21.000000) translate(-22.431949, -19.976885) "></path>
                                <line x1="17.8739121" y1="20.0987553" x2="17.8994454" y2="43.603923" id="Stroke-53" stroke="#D6EEFF" stroke-width="2.032128" stroke-linecap="square" transform="translate(17.886679, 31.851339) rotate(21.000000) translate(-17.886679, -31.851339) "></line>
                                <line x1="25.5960529" y1="25.5965819" x2="29.106295" y2="22.1502176" id="Stroke-55" stroke="#D6EEFF" stroke-width="1.2192768" stroke-linecap="square" transform="translate(27.351174, 23.873400) rotate(21.000000) translate(-27.351174, -23.873400) "></line>
                                <line x1="17.112155" y1="24.6798943" x2="12.8164904" y2="20.8053873" id="Stroke-57" stroke="#D6EEFF" stroke-width="1.2192768" stroke-linecap="square" transform="translate(14.964323, 22.742641) rotate(21.000000) translate(-14.964323, -22.742641) "></line>
                            </g>
                            <path d="M76.043294,42.4912774 C75.9057889,42.6613082 68.7197961,50.9543726 65.1883272,59.1815402 L59.5340183,57.0010148 C61.3131763,53.356902 61.3687135,48.149197 61.3687135,48.149197 C61.3687135,48.149197 63.4968473,51.6141436 63.018263,55.2028878 C63.018263,55.2028878 69.3584614,45.6192868 76.043294,42.4912774" id="Fill-47" fill="#D6EEFF" transform="translate(67.788656, 50.836409) rotate(15.000000) translate(-67.788656, -50.836409) "></path>
                            <path d="M74.0130999,55.2590347 C74.0130999,55.2590347 69.0305829,58.3658615 66.8160345,61.50774 L63.7393607,60.3211428 C65.6102931,58.5761336 69.7945618,55.1889596 74.0130999,55.2590347" id="Fill-49" fill="#D6EEFF" transform="translate(68.876230, 58.382852) rotate(17.000000) translate(-68.876230, -58.382852) "></path>
                            <path d="M16.3248086,31.5477792 C16.3248086,31.5477792 15.7873691,24.4960307 19.7267116,16.2582529" id="Stroke-80" stroke="#AAD5FF" stroke-width="1.2192768" stroke-linecap="square" transform="translate(18.013412, 23.903016) rotate(21.000000) translate(-18.013412, -23.903016) "></path>
                            <path d="M15.7265468,28.8639376 C15.7265468,28.8639376 12.3290756,14.0742844 3.55698229,6.84898466" id="Stroke-82" stroke="#AAD5FF" stroke-width="1.2192768" stroke-linecap="square" transform="translate(9.641765, 17.856461) rotate(21.000000) translate(-9.641765, -17.856461) "></path>
                            <path d="M11.5671816,3.89556555 C11.9125448,5.79468024 10.6516871,7.61049751 8.75083769,7.95125546 C6.84998839,8.29214865 5.02892206,7.02907325 4.6834236,5.13009365 C4.33792513,3.23111405 5.59891824,1.41529693 7.49976754,1.07440374 C9.40061684,0.73351055 11.2216832,1.99658595 11.5671816,3.89556555" id="Fill-84" fill="#AAD5FF" transform="translate(8.125285, 4.512830) rotate(21.000000) translate(-8.125285, -4.512830) "></path>
                            <path d="M27.6123632,14.6856173 C27.9577262,16.5845967 26.6968686,18.400414 24.7960193,18.7413072 C22.8951698,19.0820652 21.0741035,17.8189898 20.728605,15.9200102 C20.383242,14.0210307 21.6440997,12.2052134 23.544949,11.8643202 C25.4457983,11.5234271 27.2668647,12.7866377 27.6123632,14.6856173" id="Fill-86" fill="#AAD5FF" transform="translate(24.170484, 15.302796) rotate(21.000000) translate(-24.170484, -15.302796) "></path>
                            <path d="M23.9471567,27.6731349 C24.0478154,27.7998223 26.2038979,32.7400465 25.9539964,37.4199564 L33.5253161,37.4293935 C33.6665199,34.8712882 35.2873229,31.2119374 35.2873229,31.2119374 C35.2873229,31.2119374 31.9549853,32.5553437 29.7062151,36.401456 C29.7062151,36.401456 27.9920369,29.455587 23.9471567,27.6731349" id="Fill-92" fill="#D6EEFF" transform="translate(29.617240, 32.551264) rotate(25.000000) translate(-29.617240, -32.551264) "></path>
                            <path d="M19.4822485,23.939329 C19.3923801,24.1130117 17.5739419,27.2639655 17.0981375,30.9493534 L9.88217941,31.6809761 C9.38702963,28.4036252 8.32386313,26.5782449 8.32386313,26.5782449 C8.32386313,26.5782449 11.3552086,27.4614029 12.9756473,30.0364721 C12.9756473,30.0364721 14.8460255,26.0795576 19.4822485,23.939329" id="Fill-94" fill="#D6EEFF" transform="translate(13.903056, 27.810153) rotate(21.000000) translate(-13.903056, -27.810153) "></path>
                        </g>
                        <path d="M210.588104,91.9506301 C210.694712,92.0921967 213.918318,96.376272 214.322185,100.322023 L219.990548,100.321085 C217.315497,95.025603 210.735346,92.0163413 210.588104,91.9506301" id="Fill-39" fill="#D6EEFF" fill-rule="evenodd" transform="translate(215.289326, 96.136327) rotate(21.000000) translate(-215.289326, -96.136327) "></path>
                        <g id="编组" stroke-width="1" fill="none" fill-rule="evenodd" transform="translate(86.213169, 115.298305) rotate(-28.000000) translate(-86.213169, -115.298305) translate(54.753169, 101.086410)">
                            <path d="M0.566910031,21.1066777 C0.652076511,21.2193672 3.22735053,24.6295667 3.55234149,27.7686879 L8.07549024,27.7718447 C5.93724617,23.5574493 0.684448578,21.1590522 0.566910031,21.1066777" id="Fill-37" fill="#D6EEFF" transform="translate(4.321200, 24.439261) rotate(-11.000000) translate(-4.321200, -24.439261) "></path>
                            <path d="M21.6192985,25.2055319 L16.826926,25.2036757 C16.7975025,21.786469 15.0287546,17.3370482 15.0287546,17.3370482 C15.0287546,17.3370482 20.2887841,21.6011947 21.6192985,25.2055319" id="Fill-43" fill="#D6EEFF" transform="translate(18.324027, 21.271290) rotate(-6.000000) translate(-18.324027, -21.271290) "></path>
                            <path d="M22.8587891,24.5529965 C24.0164288,22.1201015 24.0854826,20.1599151 24.0854826,20.1599151 C24.0854826,20.1599151 26.3594424,22.6127375 27.3284392,24.5541553 L22.8587891,24.5529965 Z" id="Fill-45" fill="#D6EEFF" transform="translate(25.093614, 22.357035) rotate(-4.000000) translate(-25.093614, -22.357035) "></path>
                            <path d="M47.6032961,24.2398902 C47.6032961,24.2398902 43.0314459,14.0416773 36.1320666,9.18274877" id="Stroke-72" stroke="#AAD5FF" stroke-width="1.2192768" stroke-linecap="square"></path>
                            <path d="M49.9002165,24.5535762 C49.9002165,24.5535762 49.1520194,9.12279477 54.8046287,3.46322833" id="Stroke-74" stroke="#AAD5FF" stroke-width="1.2192768" stroke-linecap="square"></path>
                            <path d="M50.533192,3.46317471 C50.533192,5.37575021 52.0953691,6.92621535 54.022527,6.92621535 C55.9495498,6.92621535 57.511727,5.37575021 57.511727,3.46317471 C57.511727,1.55046514 55.9495498,0 54.022527,0 C52.0953691,0 50.533192,1.55046514 50.533192,3.46317471" id="Fill-76" fill="#AAD5FF"></path>
                            <path d="M33.9540824,10.6553086 C33.9540824,12.5680181 35.5162595,14.1183492 37.4434174,14.1183492 C39.3704402,14.1183492 40.9326174,12.5680181 40.9326174,10.6553086 C40.9326174,8.742599 39.3704402,7.19213386 37.4434174,7.19213386 C35.5162595,7.19213386 33.9540824,8.742599 33.9540824,10.6553086" id="Fill-78" fill="#AAD5FF"></path>
                            <path d="M62.2173336,8.80788928 C62.1065256,8.95325602 54.9851035,18.2344814 54.8003927,25.5052419 L49.0516355,25.5071016 C49.8223269,23.1397284 53.1628218,14.4783209 62.2173336,8.80788928" id="Fill-88" fill="#C3E4FF" transform="translate(55.634485, 17.157495) rotate(5.000000) translate(-55.634485, -17.157495) "></path>
                            <path d="M46.5245446,24.4489219 L41.9440702,24.4495171 C41.0386869,21.0324289 38.2963534,18.9022099 38.2963534,18.9022099 C38.2963534,18.9022099 43.7425359,19.9594163 46.5245446,24.4489219" id="Fill-90" fill="#C3E4FF" transform="translate(42.410449, 21.675864) rotate(2.000000) translate(-42.410449, -21.675864) "></path>
                        </g>
                        <ellipse id="椭圆形" fill="url(#linearGradient-3)" fill-rule="evenodd" cx="181.5" cy="281.589763" rx="181.5" ry="181.410237"></ellipse>
                        <path d="M276.229949,41.4516246 C278.272818,41.8579834 279.8125,43.6634284 279.8125,45.8288931 C279.8125,48.2937801 277.817469,50.2917109 275.356459,50.2917109 L259.463541,50.2917109 C257.001645,50.2917109 255.0075,48.2937801 255.0075,45.8288931 C255.0075,44.2640553 255.811005,42.8881386 257.027336,42.0914615 C256.844633,41.467296 256.752144,40.8199376 256.752709,40.1692774 C256.752709,36.4086761 259.796637,33.3600888 263.551051,33.3600888 C266.280664,33.3567286 268.747811,34.9953245 269.816971,37.5217072 C270.437096,37.2044621 271.123663,37.0404928 271.819089,37.0404928 C274.252636,37.0404928 276.226406,39.015254 276.229949,41.4516246 Z" id="路径" fill="#4096FF" fill-rule="nonzero" opacity="0.200000003"></path>
                        <path d="M126.283984,70.5574643 C127.928244,70.8767462 129.1675,72.2953102 129.1675,73.9967468 C129.1675,75.9334437 127.561744,77.5032464 125.58093,77.5032464 L112.78907,77.5032464 C110.807543,77.5032464 109.2025,75.9334437 109.2025,73.9967468 C109.2025,72.7672313 109.849223,71.6861539 110.828221,71.0601933 C110.681168,70.5697776 110.606726,70.0611389 110.60718,69.5499058 C110.60718,66.5951477 113.057171,64.1998291 116.079016,64.1998291 C118.276023,64.1971889 120.261775,65.4846571 121.122318,67.4696721 C121.621443,67.2204081 122.174046,67.0915751 122.733779,67.0915751 C124.692488,67.0915751 126.281131,68.6431732 126.283984,70.5574643 Z" id="路径备份" fill="#4096FF" fill-rule="nonzero" opacity="0.200000003"></path>
                        <path d="M140.09815,6.35763527 C141.742411,6.67691719 142.981667,8.09548115 142.981667,9.7969177 C142.981667,11.7336146 141.37591,13.3034174 139.395097,13.3034174 L126.603236,13.3034174 C124.62171,13.3034174 123.016667,11.7336146 123.016667,9.7969177 C123.016667,8.56740224 123.66339,7.48632486 124.642388,6.86036426 C124.495335,6.36994852 124.420892,5.86130982 124.421347,5.35007675 C124.421347,2.39531865 126.871338,0 129.893183,0 C132.090189,-0.00264011931 134.075942,1.28482806 134.936485,3.26984303 C135.43561,3.02057908 135.988212,2.89174601 136.547945,2.89174601 C138.506655,2.89174601 140.095298,4.44334411 140.09815,6.35763527 Z" id="路径备份-2" fill="#4096FF" fill-rule="nonzero" opacity="0.200000003"></path>
                        <g id="编组-6" stroke-width="1" fill="none" fill-rule="evenodd" transform="translate(136.685185, 6.718259)">
                            <path d="M68.4435973,46.7053049 C71.3013396,46.7053049 73.6179973,49.0219627 73.6179973,51.8797049 L73.6179973,105.117015 C73.6179973,107.974757 71.3013396,110.291415 68.4435973,110.291415 L5.1744,110.291415 C2.31665779,110.291415 1.2381509e-15,107.974757 0,105.117015 L0,51.8797049 C-3.49972485e-16,49.0219627 2.31665779,46.7053049 5.1744,46.7053049 L68.4435973,46.7053049 Z M46.3048671,65.9876887 L46.283255,66.0063281 C42.6543212,68.9415005 40.3243013,73.4942541 40.3243013,78.6058155 C40.3243013,83.7274409 42.6635052,88.2880559 46.3048671,91.2239423 C50.0288701,89.9363355 52.8129045,84.7758845 52.8129045,78.6058155 C52.8129045,72.4357465 50.0288701,67.2752955 46.3048671,65.9876887 L46.3048671,65.9876887 Z" id="形状结合" fill="url(#linearGradient-4)" fill-rule="nonzero"></path>
                            <path d="M86.1357852,46.7053049 C88.9935274,46.7053049 91.3101852,49.0219627 91.3101852,51.8797049 L91.3101852,105.117015 C91.3101852,107.974757 88.9935274,110.291415 86.1357852,110.291415 L22.8665878,110.291415 C20.0088456,110.291415 17.6921878,107.974757 17.6921878,105.117015 L17.6921878,51.8797049 C17.6921878,49.0219627 20.0088456,46.7053049 22.8665878,46.7053049 L86.1357852,46.7053049 Z M46.3048671,65.9876887 L46.283255,66.0063281 C42.6543212,68.9415005 40.3243013,73.4942541 40.3243013,78.6058155 C40.3243013,83.7274409 42.6635052,88.2880559 46.3048671,91.2239423 C50.0288701,89.9363355 52.8129045,84.7758845 52.8129045,78.6058155 C52.8129045,72.4357465 50.0288701,67.2752955 46.3048671,65.9876887 L46.3048671,65.9876887 Z" id="形状结合" fill="url(#linearGradient-5)" fill-rule="nonzero"></path>
                            <path d="M55.9350553,56.371162 C58.8089157,56.371162 61.13864,59.1492439 61.13864,62.5761816 C61.13864,62.5832471 61.140073,62.59032 61.1428356,62.5973996 C61.2046297,63.1852354 61.5925075,63.6762316 62.1236241,63.8859054 L62.3469511,63.9863907 C67.7707024,66.4984688 71.5458093,72.0994509 71.5458093,78.6058155 C71.5458093,87.4587379 64.5566367,94.6354494 55.9350553,94.6354494 C52.3017167,94.6354494 48.9582905,93.3608804 46.3056982,91.2234215 C50.0293705,89.9354081 52.8129045,84.77533 52.8129045,78.6058155 C52.8129045,72.4357465 50.0288701,67.2752955 46.3048671,65.9876887 C47.423416,65.087615 48.6632742,64.3404444 49.9957302,63.7771248 C49.9945083,63.7725872 49.9936614,63.7678774 49.9928207,63.7631656 C50.3975538,63.513878 50.6784629,63.0872635 50.7259554,62.5929772 L50.7314706,62.5761816 C50.7314706,59.1492439 53.0611948,56.371162 55.9350553,56.371162 Z" id="形状结合" fill="url(#linearGradient-6)" fill-rule="nonzero"></path>
                            <path d="M26.2842508,46.7053049 L15.2368843,46.7053049 C15.2368843,45.9100201 15.2368843,40.7673267 15.2368843,31.2772248 C15.2368843,17.0420719 22.5759686,-0.655403577 45.8109036,0.0186874264 C69.0458386,0.69277843 73.6197169,23.7259628 73.6197169,31.2772248 C73.6197169,36.3113995 73.6197169,41.4540928 73.6197169,46.7053049 L62.8216714,46.7053049 C62.8216714,39.9003913 62.8216714,34.757698 62.8216714,31.2772248 C62.8216714,26.0565151 61.5160735,11.6025872 44.4283006,11.6025872 C27.3405277,11.6025872 26.2842508,25.3567315 26.2842508,31.2772248 C26.2842508,35.2242203 26.2842508,40.3669137 26.2842508,46.7053049 Z" id="路径-5备份" fill="url(#linearGradient-7)" fill-rule="nonzero"></path>
                            <path d="M33.0064731,46.7053049 L21.9591065,46.7053049 C21.9591065,45.9100201 21.9591065,40.7673267 21.9591065,31.2772248 C21.9591065,17.0420719 29.2981908,-0.655403577 52.5331258,0.0186874264 C75.7680608,0.69277843 80.3419391,23.7259628 80.3419391,31.2772248 C80.3419391,36.3113995 80.3419391,41.4540928 80.3419391,46.7053049 L69.5438936,46.7053049 C69.5438936,39.9003913 69.5438936,34.757698 69.5438936,31.2772248 C69.5438936,26.0565151 68.2382957,11.6025872 51.1505228,11.6025872 C34.0627499,11.6025872 33.0064731,25.3567315 33.0064731,31.2772248 C33.0064731,35.2242203 33.0064731,40.3669137 33.0064731,46.7053049 Z" id="路径-5" fill="url(#linearGradient-8)" fill-rule="nonzero"></path>
                        </g>
                        <g id="编组-6备份" stroke-width="1" fill="none" fill-rule="evenodd" transform="translate(182.340278, 148.802728) scale(1, -1) translate(-182.340278, -148.802728) translate(136.685185, 117.009674)">
                            <path d="M68.4435973,0 C71.3013396,-1.41313715e-15 73.6179973,2.31665779 73.6179973,5.1744 L73.6179973,58.4117099 C73.6179973,61.2694521 71.3013396,63.5861099 68.4435973,63.5861099 L5.1744,63.5861099 C2.31665779,63.5861099 3.49972485e-16,61.2694521 0,58.4117099 L0,5.1744 C-1.2381509e-15,2.31665779 2.31665779,1.41313715e-15 5.1744,0 L68.4435973,0 Z M46.3048671,19.2823838 L46.283255,19.3010232 C42.6543212,22.2361956 40.3243013,26.7889492 40.3243013,31.9005106 C40.3243013,37.022136 42.6635052,41.582751 46.3048671,44.5186374 C50.0288701,43.2310307 52.8129045,38.0705796 52.8129045,31.9005106 C52.8129045,25.7304417 50.0288701,20.5699906 46.3048671,19.2823838 L46.3048671,19.2823838 Z" id="形状结合" fill="url(#linearGradient-9)" fill-rule="nonzero"></path>
                            <path d="M86.1357852,0 C88.9935274,7.08959615e-15 91.3101852,2.31665779 91.3101852,5.1744 L91.3101852,58.4117099 C91.3101852,61.2694521 88.9935274,63.5861099 86.1357852,63.5861099 L22.8665878,63.5861099 C20.0088456,63.5861099 17.6921878,61.2694521 17.6921878,58.4117099 L17.6921878,5.1744 C17.6921878,2.31665779 20.0088456,1.41313715e-15 22.8665878,0 L86.1357852,0 Z M46.3048671,19.2823838 L46.283255,19.3010232 C42.6543212,22.2361956 40.3243013,26.7889492 40.3243013,31.9005106 C40.3243013,37.022136 42.6635052,41.582751 46.3048671,44.5186374 C50.0288701,43.2310307 52.8129045,38.0705796 52.8129045,31.9005106 C52.8129045,25.7304417 50.0288701,20.5699906 46.3048671,19.2823838 L46.3048671,19.2823838 Z" id="形状结合" fill="url(#linearGradient-10)" fill-rule="nonzero"></path>
                            <path d="M55.9350553,9.66585711 C58.8089157,9.66585711 61.13864,12.443939 61.13864,15.8708767 C61.13864,15.8779422 61.140073,15.8850151 61.1428356,15.8920947 C61.2046297,16.4799306 61.5925075,16.9709267 62.1236241,17.1806006 L62.3469511,17.2810858 C67.7707024,19.7931639 71.5458093,25.394146 71.5458093,31.9005106 C71.5458093,40.753433 64.5566367,47.9301446 55.9350553,47.9301446 C52.3017167,47.9301446 48.9582905,46.6555755 46.3056982,44.5181167 C50.0293705,43.2301032 52.8129045,38.0700251 52.8129045,31.9005106 C52.8129045,25.7304417 50.0288701,20.5699906 46.3048671,19.2823838 C47.423416,18.3823102 48.6632742,17.6351395 49.9957302,17.0718199 C49.9945083,17.0672823 49.9936614,17.0625725 49.9928207,17.0578607 C50.3975538,16.8085731 50.6784629,16.3819586 50.7259554,15.8876724 L50.7314706,15.8708767 C50.7314706,12.443939 53.0611948,9.66585711 55.9350553,9.66585711 Z" id="形状结合" fill="url(#linearGradient-11)" fill-rule="nonzero"></path>
                        </g>
                    </g>
                </g>
            </g>
        </g>
    </g>
</svg>