<?xml version="1.0" encoding="UTF-8"?>
<svg width="400px" height="200px" viewBox="0 0 400 200" version="1.1" xmlns="http://www.w3.org/2000/svg" xmlns:xlink="http://www.w3.org/1999/xlink">
    <title>页面没找到</title>
    <defs>
        <rect id="path-1" x="0" y="0" width="400" height="200"></rect>
        <linearGradient x1="50%" y1="0%" x2="50%" y2="16.3769448%" id="linearGradient-3">
            <stop stop-color="#5DA6FF" offset="0%"></stop>
            <stop stop-color="#FFFFFF" stop-opacity="0" offset="100%"></stop>
        </linearGradient>
        <linearGradient x1="51.7749871%" y1="53.9341931%" x2="51.7749871%" y2="81.6399634%" id="linearGradient-4">
            <stop stop-color="#74C7FF" stop-opacity="0" offset="0%"></stop>
            <stop stop-color="#2583F6" stop-opacity="0.48" offset="100%"></stop>
        </linearGradient>
        <linearGradient x1="47.068921%" y1="11.7815807%" x2="47.068921%" y2="56.0511915%" id="linearGradient-5">
            <stop stop-color="#1178E3" offset="0%"></stop>
            <stop stop-color="#043EB8" offset="100%"></stop>
        </linearGradient>
        <linearGradient x1="47.068921%" y1="11.7815807%" x2="47.068921%" y2="50%" id="linearGradient-6">
            <stop stop-color="#2490FF" offset="0%"></stop>
            <stop stop-color="#043EB8" offset="100%"></stop>
        </linearGradient>
        <linearGradient x1="69.9463731%" y1="80.5731552%" x2="48.2549447%" y2="47.4607632%" id="linearGradient-7">
            <stop stop-color="#74C7FF" offset="0%"></stop>
            <stop stop-color="#2583F6" offset="100%"></stop>
        </linearGradient>
        <linearGradient x1="50%" y1="73.2328779%" x2="74.5231053%" y2="96.3848295%" id="linearGradient-8">
            <stop stop-color="#4096FF" offset="0%"></stop>
            <stop stop-color="#74C7FF" offset="100%"></stop>
        </linearGradient>
        <linearGradient x1="66.473038%" y1="43.8976516%" x2="35.0319332%" y2="55.4609055%" id="linearGradient-9">
            <stop stop-color="#74C7FF" offset="0%"></stop>
            <stop stop-color="#4096FF" offset="100%"></stop>
        </linearGradient>
        <linearGradient x1="66.473038%" y1="38.0933875%" x2="35.0319332%" y2="60.6550595%" id="linearGradient-10">
            <stop stop-color="#74C7FF" offset="0%"></stop>
            <stop stop-color="#4096FF" offset="100%"></stop>
        </linearGradient>
        <linearGradient x1="145.862465%" y1="61.6780158%" x2="0%" y2="43.7138272%" id="linearGradient-11">
            <stop stop-color="#74C7FF" offset="0%"></stop>
            <stop stop-color="#2D86F3" offset="100%"></stop>
        </linearGradient>
        <linearGradient x1="154.851301%" y1="72.78559%" x2="0%" y2="37.7347182%" id="linearGradient-12">
            <stop stop-color="#74C7FF" offset="0%"></stop>
            <stop stop-color="#2D86F3" offset="100%"></stop>
        </linearGradient>
        <linearGradient x1="100%" y1="56.4558176%" x2="0%" y2="43.4115975%" id="linearGradient-13">
            <stop stop-color="#2D86F3" offset="0%"></stop>
            <stop stop-color="#74C7FF" offset="100%"></stop>
        </linearGradient>
        <linearGradient x1="100%" y1="62.5962848%" x2="0%" y2="37.7347182%" id="linearGradient-14">
            <stop stop-color="#2D86F3" offset="0%"></stop>
            <stop stop-color="#74C7FF" offset="100%"></stop>
        </linearGradient>
        <linearGradient x1="77.5563781%" y1="58.5769764%" x2="84.8711766%" y2="64.402473%" id="linearGradient-15">
            <stop stop-color="#0087E1" offset="0%"></stop>
            <stop stop-color="#0056BE" offset="100%"></stop>
        </linearGradient>
        <linearGradient x1="66.473038%" y1="42.0089163%" x2="35.0319332%" y2="57.151108%" id="linearGradient-16">
            <stop stop-color="#74C7FF" offset="0%"></stop>
            <stop stop-color="#4096FF" offset="100%"></stop>
        </linearGradient>
        <linearGradient x1="24.6762725%" y1="67.3987778%" x2="30.6872224%" y2="57.0616967%" id="linearGradient-17">
            <stop stop-color="#0056BE" offset="0%"></stop>
            <stop stop-color="#0087E1" offset="100%"></stop>
        </linearGradient>
        <linearGradient x1="45.6201767%" y1="36.1408538%" x2="72.3140134%" y2="59.537998%" id="linearGradient-18">
            <stop stop-color="#74C7FF" offset="0%"></stop>
            <stop stop-color="#4096FF" offset="100%"></stop>
        </linearGradient>
    </defs>
    <g id="总览" stroke="none" stroke-width="1" fill="none" fill-rule="evenodd">
        <g id="页面没找到404" transform="translate(-869.000000, -403.000000)">
            <g id="页面没找到" transform="translate(869.000000, 403.000000)">
                <mask id="mask-2" fill="white">
                    <use xlink:href="#path-1"></use>
                </mask>
                <use id="蒙版" fill="#D8D8D8" opacity="0" xlink:href="#path-1"></use>
                <g id="编组-2" mask="url(#mask-2)">
                    <g transform="translate(20.000000, 18.000000)">
                        <g id="编组-4" stroke-width="1" fill="none" fill-rule="evenodd" transform="translate(227.739044, 79.022879)">
                            <g id="编组-3" transform="translate(56.991098, 27.795754) rotate(8.000000) translate(-56.991098, -27.795754) translate(37.055659, 4.699862)">
                                <path d="M8.47151586,32.9927655 C8.38632209,33.1064077 5.81008797,36.5413471 5.48999838,39.7069153 L0.954502895,39.7019766 C3.09108067,35.4549964 8.35375415,33.0455152 8.47151586,32.9927655" id="Fill-35" fill="#C3E4FF" transform="translate(4.713009, 36.349840) rotate(21.000000) translate(-4.713009, -36.349840) "></path>
                                <path d="M21.8336635,41.3878141 C21.7743003,41.4688921 20.4692096,43.206629 19.5953281,45.3356727 L16.3112886,45.3320967 C18.7082734,42.8179314 21.7444613,41.4268007 21.8336635,41.3878141" id="Fill-41" fill="#D6EEFF" transform="translate(19.072476, 43.361743) rotate(21.000000) translate(-19.072476, -43.361743) "></path>
                                <path d="M34.682648,21.6868313 C34.6911788,29.5534878 30.9457909,36.6942925 22.4483219,36.6850485 C13.9507174,36.6757864 10.1898068,29.526808 10.1812497,21.6601515 C10.1712369,12.4319193 16.5825476,3.26234018 22.4120223,3.26868466 C28.2413616,3.27503558 34.6726089,12.4585991 34.682648,21.6868313" id="Fill-51" fill="#E8F6FF" transform="translate(22.431949, 19.976867) rotate(21.000000) translate(-22.431949, -19.976867) "></path>
                                <line x1="17.8739121" y1="20.0987366" x2="17.8994454" y2="43.6039043" id="Stroke-53" stroke="#D6EEFF" stroke-width="2.032128" stroke-linecap="square" transform="translate(17.886679, 31.851320) rotate(21.000000) translate(-17.886679, -31.851320) "></line>
                                <line x1="25.5960529" y1="25.5965632" x2="29.106295" y2="22.150199" id="Stroke-55" stroke="#D6EEFF" stroke-width="1.2192768" stroke-linecap="square" transform="translate(27.351174, 23.873381) rotate(21.000000) translate(-27.351174, -23.873381) "></line>
                                <line x1="17.112155" y1="24.6798756" x2="12.8164904" y2="20.8053686" id="Stroke-57" stroke="#D6EEFF" stroke-width="1.2192768" stroke-linecap="square" transform="translate(14.964323, 22.742622) rotate(21.000000) translate(-14.964323, -22.742622) "></line>
                            </g>
                            <path d="M76.043294,42.4912774 C75.9057889,42.6613082 68.7197961,50.9543726 65.1883272,59.1815402 L59.5340183,57.0010148 C61.3131763,53.356902 61.3687135,48.149197 61.3687135,48.149197 C61.3687135,48.149197 63.4968473,51.6141436 63.018263,55.2028878 C63.018263,55.2028878 69.3584614,45.6192868 76.043294,42.4912774" id="Fill-47" fill="#D6EEFF" transform="translate(67.788656, 50.836409) rotate(15.000000) translate(-67.788656, -50.836409) "></path>
                            <path d="M74.0130999,55.2590347 C74.0130999,55.2590347 69.0305829,58.3658615 66.8160345,61.50774 L63.7393607,60.3211428 C65.6102931,58.5761336 69.7945618,55.1889596 74.0130999,55.2590347" id="Fill-49" fill="#D6EEFF" transform="translate(68.876230, 58.382852) rotate(17.000000) translate(-68.876230, -58.382852) "></path>
                            <path d="M16.3248086,31.5477792 C16.3248086,31.5477792 15.7873691,24.4960307 19.7267116,16.2582529" id="Stroke-80" stroke="#AAD5FF" stroke-width="1.2192768" stroke-linecap="square" transform="translate(18.013412, 23.903016) rotate(21.000000) translate(-18.013412, -23.903016) "></path>
                            <path d="M15.7265468,28.8639376 C15.7265468,28.8639376 12.3290756,14.0742844 3.55698229,6.84898466" id="Stroke-82" stroke="#AAD5FF" stroke-width="1.2192768" stroke-linecap="square" transform="translate(9.641765, 17.856461) rotate(21.000000) translate(-9.641765, -17.856461) "></path>
                            <path d="M11.5671816,3.89556555 C11.9125448,5.79468024 10.6516871,7.61049751 8.75083769,7.95125546 C6.84998839,8.29214865 5.02892206,7.02907325 4.6834236,5.13009365 C4.33792513,3.23111405 5.59891824,1.41529693 7.49976754,1.07440374 C9.40061684,0.73351055 11.2216832,1.99658595 11.5671816,3.89556555" id="Fill-84" fill="#AAD5FF" transform="translate(8.125285, 4.512830) rotate(21.000000) translate(-8.125285, -4.512830) "></path>
                            <path d="M27.6123632,14.6856173 C27.9577262,16.5845967 26.6968686,18.400414 24.7960193,18.7413072 C22.8951698,19.0820652 21.0741035,17.8189898 20.728605,15.9200102 C20.383242,14.0210307 21.6440997,12.2052134 23.544949,11.8643202 C25.4457983,11.5234271 27.2668647,12.7866377 27.6123632,14.6856173" id="Fill-86" fill="#AAD5FF" transform="translate(24.170484, 15.302796) rotate(21.000000) translate(-24.170484, -15.302796) "></path>
                            <path d="M23.9471567,27.6731349 C24.0478154,27.7998223 26.2038979,32.7400465 25.9539964,37.4199564 L33.5253161,37.4293935 C33.6665199,34.8712882 35.2873229,31.2119374 35.2873229,31.2119374 C35.2873229,31.2119374 31.9549853,32.5553437 29.7062151,36.401456 C29.7062151,36.401456 27.9920369,29.455587 23.9471567,27.6731349" id="Fill-92" fill="#D6EEFF" transform="translate(29.617240, 32.551264) rotate(25.000000) translate(-29.617240, -32.551264) "></path>
                            <path d="M19.4822485,23.939329 C19.3923801,24.1130117 17.5739419,27.2639655 17.0981375,30.9493534 L9.88217941,31.6809761 C9.38702963,28.4036252 8.32386313,26.5782449 8.32386313,26.5782449 C8.32386313,26.5782449 11.3552086,27.4614029 12.9756473,30.0364721 C12.9756473,30.0364721 14.8460255,26.0795576 19.4822485,23.939329" id="Fill-94" fill="#D6EEFF" transform="translate(13.903056, 27.810153) rotate(21.000000) translate(-13.903056, -27.810153) "></path>
                        </g>
                        <path d="M210.588104,91.9506301 C210.694712,92.0921967 213.918318,96.376272 214.322185,100.322023 L219.990548,100.321085 C217.315497,95.025603 210.735346,92.0163413 210.588104,91.9506301" id="Fill-39" fill="#D6EEFF" fill-rule="evenodd" transform="translate(215.289326, 96.136327) rotate(21.000000) translate(-215.289326, -96.136327) "></path>
                        <g id="编组" stroke-width="1" fill="none" fill-rule="evenodd" transform="translate(86.213169, 115.298305) rotate(-28.000000) translate(-86.213169, -115.298305) translate(54.753169, 101.086410)">
                            <path d="M0.566910031,21.1066777 C0.652076511,21.2193672 3.22735053,24.6295667 3.55234149,27.7686879 L8.07549024,27.7718447 C5.93724617,23.5574493 0.684448578,21.1590522 0.566910031,21.1066777" id="Fill-37" fill="#D6EEFF" transform="translate(4.321200, 24.439261) rotate(-11.000000) translate(-4.321200, -24.439261) "></path>
                            <path d="M21.6192985,25.2055319 L16.826926,25.2036757 C16.7975025,21.786469 15.0287546,17.3370482 15.0287546,17.3370482 C15.0287546,17.3370482 20.2887841,21.6011947 21.6192985,25.2055319" id="Fill-43" fill="#D6EEFF" transform="translate(18.324027, 21.271290) rotate(-6.000000) translate(-18.324027, -21.271290) "></path>
                            <path d="M22.8587891,24.5529965 C24.0164288,22.1201015 24.0854826,20.1599151 24.0854826,20.1599151 C24.0854826,20.1599151 26.3594424,22.6127375 27.3284392,24.5541553 L22.8587891,24.5529965 Z" id="Fill-45" fill="#D6EEFF" transform="translate(25.093614, 22.357035) rotate(-4.000000) translate(-25.093614, -22.357035) "></path>
                            <path d="M47.6032961,24.2398902 C47.6032961,24.2398902 43.0314459,14.0416773 36.1320666,9.18274877" id="Stroke-72" stroke="#AAD5FF" stroke-width="1.2192768" stroke-linecap="square"></path>
                            <path d="M49.9002165,24.5535762 C49.9002165,24.5535762 49.1520194,9.12279477 54.8046287,3.46322833" id="Stroke-74" stroke="#AAD5FF" stroke-width="1.2192768" stroke-linecap="square"></path>
                            <path d="M50.533192,3.46317471 C50.533192,5.37575021 52.0953691,6.92621535 54.022527,6.92621535 C55.9495498,6.92621535 57.511727,5.37575021 57.511727,3.46317471 C57.511727,1.55046514 55.9495498,0 54.022527,0 C52.0953691,0 50.533192,1.55046514 50.533192,3.46317471" id="Fill-76" fill="#AAD5FF"></path>
                            <path d="M33.9540824,10.6553086 C33.9540824,12.5680181 35.5162595,14.1183492 37.4434174,14.1183492 C39.3704402,14.1183492 40.9326174,12.5680181 40.9326174,10.6553086 C40.9326174,8.742599 39.3704402,7.19213386 37.4434174,7.19213386 C35.5162595,7.19213386 33.9540824,8.742599 33.9540824,10.6553086" id="Fill-78" fill="#AAD5FF"></path>
                            <path d="M62.2173336,8.80788928 C62.1065256,8.95325602 54.9851035,18.2344814 54.8003927,25.5052419 L49.0516355,25.5071016 C49.8223269,23.1397284 53.1628218,14.4783209 62.2173336,8.80788928" id="Fill-88" fill="#C3E4FF" transform="translate(55.634485, 17.157495) rotate(5.000000) translate(-55.634485, -17.157495) "></path>
                            <path d="M46.5245446,24.4489219 L41.9440702,24.4495171 C41.0386869,21.0324289 38.2963534,18.9022099 38.2963534,18.9022099 C38.2963534,18.9022099 43.7425359,19.9594163 46.5245446,24.4489219" id="Fill-90" fill="#C3E4FF" transform="translate(42.410449, 21.675864) rotate(2.000000) translate(-42.410449, -21.675864) "></path>
                        </g>
                        <ellipse id="椭圆形" fill="url(#linearGradient-3)" fill-rule="evenodd" cx="181.5" cy="281.589763" rx="181.5" ry="181.410237"></ellipse>
                        <g id="彩色-炫彩盒子" stroke-width="1" fill="none" fill-rule="evenodd" transform="translate(180.293545, 131.377126) scale(1, -1) translate(-180.293545, -131.377126) translate(131.533145, 94.203382)">
                            <path d="M0,61.7219986 L0,2.14952234 L50.5624023,12.979808 L97.5208008,0 L97.5208008,61.3676817 L50.5624023,74.3474897 L0,61.7219986 Z" id="形状结合" fill="url(#linearGradient-4)" fill-rule="nonzero"></path>
                        </g>
                        <g id="彩色-炫彩盒子" stroke-width="1" fill="none" fill-rule="evenodd" transform="translate(120.697500, 38.570909)">
                            <polygon id="路径" fill="url(#linearGradient-5)" fill-rule="nonzero" points="108.356445 7.21625357 54.1782227 0 54.1782227 28.6169925 108.356445 34.2978729"></polygon>
                            <polygon id="路径" fill="url(#linearGradient-6)" fill-rule="nonzero" points="10.8356445 9.36577591 54.1782227 0 54.1782227 32.4908569 10.8356445 41.8566328"></polygon>
                            <polygon id="路径" fill="url(#linearGradient-7)" fill-rule="nonzero" points="61.3980469 20.1960615 108.356445 7.21625357 108.356445 68.5839353 61.3980469 81.5637433"></polygon>
                            <polygon id="路径" fill="url(#linearGradient-8)" fill-rule="nonzero" points="10.8356445 9.36577591 61.3980469 20.1960615 61.3980469 81.5637433 10.8356445 68.9382522"></polygon>
                            <polygon id="路径-2" fill="url(#linearGradient-9)" fill-rule="nonzero" points="14.52 56.4686605 14.52 58.7184716 26.2972199 62.1603646 26.2972199 59.9952821"></polygon>
                            <polygon id="路径-2备份" fill="url(#linearGradient-10)" fill-rule="nonzero" points="14.52 60.0968652 14.52 62.3466763 19.957057 63.7672283 19.957057 61.6308987"></polygon>
                            <polygon id="路径-2" fill="url(#linearGradient-11)" fill-rule="nonzero" points="14.52 56.4686605 14.52 58.7184716 26.2972199 62.1603646 26.2972199 59.9952821"></polygon>
                            <polygon id="路径-2备份-2" fill="url(#linearGradient-9)" fill-rule="nonzero" opacity="0.200000003" points="14.52 77.0284873 14.52 79.2782984 26.2972199 82.7201914 26.2972199 80.5551089"></polygon>
                            <polygon id="路径-2备份" fill="url(#linearGradient-12)" fill-rule="nonzero" points="14.52 60.0968652 14.52 62.3466763 19.957057 63.7672283 19.957057 61.6308987"></polygon>
                            <polygon id="路径-2备份-3" fill="url(#linearGradient-10)" fill-rule="nonzero" opacity="0.200000003" points="14.52 74.0049834 14.52 76.2547945 19.957057 77.6753464 19.957057 75.5390168"></polygon>
                            <polygon id="路径-2" fill="url(#linearGradient-13)" fill-rule="nonzero" transform="translate(98.453610, 58.407461) scale(-1, 1) translate(-98.453610, -58.407461) " points="92.565 55.5616093 92.565 57.8114204 104.34222 61.2533134 104.34222 59.0882309"></polygon>
                            <polygon id="路径-2备份-4" fill="url(#linearGradient-9)" fill-rule="nonzero" opacity="0.200000003" transform="translate(98.453610, 80.176690) scale(-1, 1) translate(-98.453610, -80.176690) " points="92.565 77.3308377 92.565 79.5806488 104.34222 83.0225418 104.34222 80.8574593"></polygon>
                            <polygon id="路径-2备份" fill="url(#linearGradient-14)" fill-rule="nonzero" transform="translate(101.636029, 61.024996) scale(-1, 1) translate(-101.636029, -61.024996) " points="98.9175 59.189814 98.9175 61.4396251 104.354557 62.8601771 104.354557 60.7238475"></polygon>
                            <polygon id="路径-2备份-5" fill="url(#linearGradient-10)" fill-rule="nonzero" opacity="0.200000003" transform="translate(101.636029, 76.142515) scale(-1, 1) translate(-101.636029, -76.142515) " points="98.9175 74.3073338 98.9175 76.5571449 104.354557 77.9776968 104.354557 75.8413672"></polygon>
                            <polygon id="路径" fill="#1164CA" fill-rule="nonzero" opacity="0.400000006" points="61.3980469 20.101577 10.8356445 9.36577591 10.8356445 38.355583 57.0946196 49.7646975"></polygon>
                            <polygon id="路径" fill="url(#linearGradient-15)" fill-rule="nonzero" points="61.7005469 21.0086282 61.3980469 20.101577 11.1381445 10.2728271 4.55249003e-13 31.0263472 0.0584748173 31.565034 52.9750215 43.9659992"></polygon>
                            <polygon id="路径" fill="url(#linearGradient-16)" fill-rule="nonzero" points="61.3980469 20.101577 10.8356445 9.36577591 0 31.0263472 52.3703125 43.3211425"></polygon>
                            <polygon id="路径" fill="#1164CA" fill-rule="nonzero" opacity="0.400000006" points="61.7005469 20.142734 108.356445 7.21625357 108.356445 36.7402943 65.2181242 51.6396209 61.7005469 21.2437657"></polygon>
                            <polygon id="路径" fill="url(#linearGradient-17)" fill-rule="nonzero" points="61.7005469 21.2437657 61.7005469 20.142734 108.356445 8.12330475 121 28.8768248 121 29.4279372 75.4137782 44.3899984"></polygon>
                            <polygon id="路径" fill="url(#linearGradient-18)" fill-rule="nonzero" points="61.7005469 20.142734 108.356445 7.21625357 121 28.8768248 75.8495117 43.6636488"></polygon>
                            <polygon id="路径-3" stroke="#DCECFF" stroke-width="0.7" stroke-linejoin="bevel" points="10.8356445 9.36577591 54.1782227 0 108.356445 7.21625357 61.7005469 19.9556264"></polygon>
                        </g>
                        <path d="M147.9225,22.4754746 C147.9225,22.4754746 151.421541,25.7741646 149.672021,31.3617416 C147.9225,36.9493187 150.49435,39.4277652 154.815722,40.6164983 C154.815722,40.6164983 165.929133,28.0169904 147.9225,22.4754746 Z M154.812042,40.3312732 L154.622557,40.3312732 C154.622557,40.3312732 154.764211,38.7899948 154.802844,36.9192017 C151.668056,35.0873835 151.677254,32.0951775 151.677254,32.0951775 C152.14085,35.1157289 154.810203,36.2814314 154.812042,36.2814314 C154.82492,34.1661596 154.677747,31.8152672 154.044902,30.8196368 C154.044902,30.8196368 156.506373,33.8667619 154.812042,40.3312732 L154.812042,40.3312732 Z" id="形状" fill="#4096FF" fill-rule="nonzero" transform="translate(153.065000, 31.545986) rotate(-45.000000) translate(-153.065000, -31.545986) "></path>
                        <path d="M200.5575,10.3814588 C200.5575,10.3814588 203.850715,13.5701925 202.204108,18.9715169 C200.5575,24.3728414 202.978065,26.768673 207.045238,27.9177817 C207.045238,27.9177817 217.504919,15.7382574 200.5575,10.3814588 Z M207.041775,27.6420641 L206.863436,27.6420641 C206.863436,27.6420641 206.996757,26.1521617 207.033118,24.3437284 C204.082729,22.5729707 204.091386,19.680505 204.091386,19.680505 C204.527712,22.6003712 207.040044,23.727217 207.041775,23.727217 C207.053895,21.6824543 206.915379,19.409925 206.319761,18.4474823 C206.319761,18.4474823 208.636439,21.3930365 207.041775,27.6420641 L207.041775,27.6420641 Z" id="形状" fill="#4096FF" fill-rule="nonzero" transform="translate(205.397500, 19.149620) scale(-1, 1) rotate(-45.000000) translate(-205.397500, -19.149620) "></path>
                        <path d="M187.2475,44.244703 C187.2475,44.244703 189.30576,46.1139607 188.27663,49.2802543 C187.2475,52.446548 188.760353,53.851001 191.302336,54.5246164 C191.302336,54.5246164 197.839637,47.3848953 187.2475,44.244703 Z M191.300172,54.3629889 L191.18871,54.3629889 C191.18871,54.3629889 191.272036,53.4895978 191.294761,52.4294817 C189.450768,51.3914514 189.456179,49.695868 189.456179,49.695868 C189.728882,51.4075138 191.29909,52.0680785 191.300172,52.0680785 C191.307747,50.8694245 191.221175,49.5372522 190.848913,48.9730616 C190.848913,48.9730616 192.296837,50.6997658 191.300172,54.3629889 L191.300172,54.3629889 Z" id="形状备份" fill="#93C4FF" fill-rule="nonzero" transform="translate(190.272500, 49.384660) scale(-1, 1) rotate(-45.000000) translate(-190.272500, -49.384660) "></path>
                        <path d="M276.229949,41.4516246 C278.272818,41.8579834 279.8125,43.6634284 279.8125,45.8288931 C279.8125,48.2937801 277.817469,50.2917109 275.356459,50.2917109 L259.463541,50.2917109 C257.001645,50.2917109 255.0075,48.2937801 255.0075,45.8288931 C255.0075,44.2640553 255.811005,42.8881386 257.027336,42.0914615 C256.844633,41.467296 256.752144,40.8199376 256.752709,40.1692774 C256.752709,36.4086761 259.796637,33.3600888 263.551051,33.3600888 C266.280664,33.3567286 268.747811,34.9953245 269.816971,37.5217072 C270.437096,37.2044621 271.123663,37.0404928 271.819089,37.0404928 C274.252636,37.0404928 276.226406,39.015254 276.229949,41.4516246 Z" id="路径" fill="#4096FF" fill-rule="nonzero" opacity="0.200000003"></path>
                        <path d="M126.283984,70.5574643 C127.928244,70.8767462 129.1675,72.2953102 129.1675,73.9967468 C129.1675,75.9334437 127.561744,77.5032464 125.58093,77.5032464 L112.78907,77.5032464 C110.807543,77.5032464 109.2025,75.9334437 109.2025,73.9967468 C109.2025,72.7672313 109.849223,71.6861539 110.828221,71.0601933 C110.681168,70.5697776 110.606726,70.0611389 110.60718,69.5499058 C110.60718,66.5951477 113.057171,64.1998291 116.079016,64.1998291 C118.276023,64.1971889 120.261775,65.4846571 121.122318,67.4696721 C121.621443,67.2204081 122.174046,67.0915751 122.733779,67.0915751 C124.692488,67.0915751 126.281131,68.6431732 126.283984,70.5574643 Z" id="路径备份" fill="#4096FF" fill-rule="nonzero" opacity="0.200000003"></path>
                        <path d="M140.09815,6.35763527 C141.742411,6.67691719 142.981667,8.09548115 142.981667,9.7969177 C142.981667,11.7336146 141.37591,13.3034174 139.395097,13.3034174 L126.603236,13.3034174 C124.62171,13.3034174 123.016667,11.7336146 123.016667,9.7969177 C123.016667,8.56740224 123.66339,7.48632486 124.642388,6.86036426 C124.495335,6.36994852 124.420892,5.86130982 124.421347,5.35007675 C124.421347,2.39531865 126.871338,0 129.893183,0 C132.090189,-0.00264011931 134.075942,1.28482806 134.936485,3.26984303 C135.43561,3.02057908 135.988212,2.89174601 136.547945,2.89174601 C138.506655,2.89174601 140.095298,4.44334411 140.09815,6.35763527 Z" id="路径备份-2" fill="#4096FF" fill-rule="nonzero" opacity="0.200000003"></path>
                    </g>
                </g>
            </g>
        </g>
    </g>
</svg>