<?xml version="1.0" encoding="UTF-8"?>
<svg width="16px" height="17px" viewBox="0 0 16 17" version="1.1" xmlns="http://www.w3.org/2000/svg" xmlns:xlink="http://www.w3.org/1999/xlink">
    <title>切片</title>
    <g id="通用" stroke="none" stroke-width="1" fill="none" fill-rule="evenodd">
        <g id="通用" transform="translate(-301.000000, -411.000000)">
            <g id="通用" transform="translate(259.000000, 143.000000)">
                <g id="通用" transform="translate(0.000000, 48.000000)">
                    <g id="通用" transform="translate(42.000000, 220.049080)">
                        <rect id="矩形" fill="#D8D8D8" opacity="0" x="0" y="0" width="16" height="16"></rect>
                        <line x1="6.82434212" y1="7.6115902" x2="4.82434212" y2="10.4354359" id="路径-53" stroke="#4096FF" stroke-width="1.2"></line>
                        <line x1="10.8243421" y1="7.93543591" x2="12.8243421" y2="10.8168043" id="路径-54" stroke="#4096FF" stroke-width="1.2"></line>
                        <path d="M8.82434212,1.53543591 C9.76322619,1.53543591 10.6132262,1.91599388 11.2285052,2.53127286 C11.8437842,3.14655184 12.2243421,3.99655184 12.2243421,4.93543591 C12.2243421,5.87431999 11.8437842,6.72431999 11.2285052,7.33959897 C10.6132262,7.95487795 9.76322619,8.33543591 8.82434212,8.33543591 C7.88545804,8.33543591 7.03545804,7.95487795 6.42017906,7.33959897 C5.80490008,6.72431999 5.42434212,5.87431999 5.42434212,4.93543591 C5.42434212,3.99655184 5.80490008,3.14655184 6.42017906,2.53127286 C7.03545804,1.91599388 7.88545804,1.53543591 8.82434212,1.53543591 Z" id="椭圆形" stroke="#4096FF" stroke-width="1.2"></path>
                        <path d="M3.82434212,10.0354359 C4.48708382,10.0354359 5.08708382,10.3040651 5.52139839,10.7383796 C5.95571297,11.1726942 6.22434212,11.7726942 6.22434212,12.4354359 C6.22434212,13.0981776 5.95571297,13.6981776 5.52139839,14.1324922 C5.08708382,14.5668068 4.48708382,14.8354359 3.82434212,14.8354359 C3.16160042,14.8354359 2.56160042,14.5668068 2.12728584,14.1324922 C1.69297127,13.6981776 1.42434212,13.0981776 1.42434212,12.4354359 C1.42434212,11.7726942 1.69297127,11.1726942 2.12728584,10.7383796 C2.56160042,10.3040651 3.16160042,10.0354359 3.82434212,10.0354359 Z" id="椭圆形备份-2" stroke="#4096FF" stroke-width="1.2"></path>
                        <path d="M13.3243421,10.5354359 C13.7109414,10.5354359 14.0609414,10.6921363 14.3142916,10.9454864 C14.5676418,11.1988366 14.7243421,11.5488366 14.7243421,11.9354359 C14.7243421,12.3220352 14.5676418,12.6720352 14.3142916,12.9253854 C14.0609414,13.1787356 13.7109414,13.3354359 13.3243421,13.3354359 C12.9377428,13.3354359 12.5877428,13.1787356 12.3343926,12.9253854 C12.0810425,12.6720352 11.9243421,12.3220352 11.9243421,11.9354359 C11.9243421,11.5488366 12.0810425,11.1988366 12.3343926,10.9454864 C12.5877428,10.6921363 12.9377428,10.5354359 13.3243421,10.5354359 Z" id="椭圆形备份-3" stroke="#4096FF" stroke-width="1.2"></path>
                    </g>
                </g>
            </g>
        </g>
    </g>
</svg>