<?xml version="1.0" encoding="UTF-8"?>
<svg width="56px" height="56px" viewBox="0 0 56 56" version="1.1" xmlns="http://www.w3.org/2000/svg" xmlns:xlink="http://www.w3.org/1999/xlink">
    <title>编组 5</title>
    <g id="设备管理" stroke="none" stroke-width="1" fill="none" fill-rule="evenodd">
        <g id="广告机/LED1-截屏" transform="translate(-764.000000, -308.000000)">
            <g id="编组-7" transform="translate(640.000000, 149.000000)">
                <g id="编组-6" transform="translate(93.000000, 159.000000)">
                    <g id="编组-5" transform="translate(31.000000, 0.000000)">
                        <circle id="椭圆形" fill="#4096FF" cx="28" cy="28" r="28"></circle>
                        <g id="编组" transform="translate(17.500000, 17.000000)" stroke="#FFFFFF" stroke-linecap="round" stroke-linejoin="round" stroke-width="1.92">
                            <polyline id="路径" points="0 10.1315789 0 0 21 0 21 10.1315789"></polyline>
                            <path d="M3.15,22 C4.8896925,22 6.3,20.639177 6.3,18.9605263 C6.3,17.2818757 4.8896925,15.9210526 3.15,15.9210526 C1.41030225,15.9210526 0,17.2818757 0,18.9605263 C0,20.639177 1.41030225,22 3.15,22 Z" id="路径"></path>
                            <path d="M16.8,5.78947368 C8.6050125,16.5625336 6.1974675,20.3184112 5.377365,21.1097382 C4.1472375,22.2967539 2.15274675,22.2967539 0.922593,21.1097382" id="路径"></path>
                            <path d="M17.85,22 C19.5896925,22 21,20.639177 21,18.9605263 C21,17.2818757 19.5896925,15.9210526 17.85,15.9210526 C16.1103075,15.9210526 14.7,17.2818757 14.7,18.9605263 C14.7,20.639177 16.1103075,22 17.85,22 Z" id="路径"></path>
                            <path d="M20.077365,21.1097382 C18.8472375,22.2967539 16.8527625,22.2967539 15.622635,21.1097382 C14.8025325,20.3184112 12.3949875,16.5625336 4.2,5.78947368" id="路径"></path>
                        </g>
                    </g>
                </g>
            </g>
        </g>
    </g>
</svg>