<?xml version="1.0" encoding="UTF-8"?>
<svg width="16px" height="16px" viewBox="0 0 16 16" version="1.1" xmlns="http://www.w3.org/2000/svg" xmlns:xlink="http://www.w3.org/1999/xlink">
    <title>icon/xiafa备份</title>
    <g id="icon/xiafa备份" stroke="none" stroke-width="1" fill="none" fill-rule="evenodd" opacity="0.300000012">
        <g id="编组" transform="translate(1.500000, 1.443114)">
            <path d="M5.5,9.05688606 L5.5,4.55705091 C5.5,1.28730252 6.52113703,0 9.57580175,0 L10.8973084,0 C11.2301658,3.46782296e-16 11.5,0.269834235 11.5,0.602691633 C11.5,0.93554903 11.2301658,1.20538327 10.8973084,1.20538327 L9.57580175,1.20538327 L9.57580175,1.20538327 C7.14212828,1.20538327 6.62827988,1.94967817 6.62827988,4.55471036 L6.62827988,9.05688606 L5.5,9.05688606 Z" id="路径" fill="#4096FF" fill-rule="nonzero"></path>
            <path d="M3.69766498,8.10314941 L5.92977143,10.7603262 C5.99970688,10.8433629 6.13083585,10.8433629 6.20368527,10.7603262 L8.45327559,8.10314941 C8.54652285,7.9952016 8.4649315,7.83466384 8.31631866,7.83466384 L3.8346219,7.83466384 C3.68892305,7.83189595 3.60733169,7.9952016 3.69766498,8.10314941 Z" id="路径" fill="#4096FF" fill-rule="nonzero"></path>
            <line x1="0" y1="12.5568861" x2="12.9157792" y2="12.5568861" id="路径-12" stroke="#4096FF" stroke-width="1.1" stroke-linecap="round"></line>
        </g>
    </g>
</svg>