<?xml version="1.0" encoding="UTF-8"?>
<svg width="16px" height="16px" viewBox="0 0 16 16" version="1.1" xmlns="http://www.w3.org/2000/svg" xmlns:xlink="http://www.w3.org/1999/xlink">
    <title>切片</title>
    <g id="数据总览" stroke="none" stroke-width="1" fill="none" fill-rule="evenodd">
        <g id="广告统计-导出数据" transform="translate(-487.000000, -920.000000)">
            <g id="编组-12" transform="translate(382.000000, 767.000000)">
                <g id="编组" transform="translate(32.000000, 150.000000)">
                    <g id="icon/beizhu" transform="translate(73.000000, 3.000000)">
                        <rect id="矩形" fill="#D8D8D8" opacity="0" x="0" y="0" width="18" height="18"></rect>
                        <g id="编组" transform="translate(2.500000, 2.500000)" stroke="#CFD8E4">
                            <path d="M5.5,11 C4.75779927,11 4.03688029,10.8550181 3.35852479,10.5677146 C2.70411125,10.291052 2.11487304,9.89467956 1.61076179,9.38923821 C1.10532044,8.88379686 0.708948005,8.29588875 0.432285369,7.64147521 C0.144981862,6.96311971 0,6.24220073 0,5.5 C0,4.75779927 0.144981862,4.03688029 0.432285369,3.35852479 C0.708948005,2.70411125 1.10532044,2.11487304 1.61076179,1.61076179 C2.11620314,1.10665054 2.70411125,0.708948005 3.35852479,0.432285369 C4.03688029,0.144981862 4.75779927,0 5.5,0 C6.24220073,0 6.96311971,0.144981862 7.64147521,0.432285369 C8.29588875,0.708948005 8.88512696,1.10532044 9.38923821,1.61076179 C9.89467956,2.11620314 10.291052,2.70411125 10.5677146,3.35852479 C10.8550181,4.03688029 11,4.75779927 11,5.5 C11,6.24220073 10.8550181,6.96311971 10.5677146,7.64147521 C10.291052,8.29588875 9.89467956,8.88512696 9.38923821,9.38923821 C8.88379686,9.89467956 8.29588875,10.291052 7.64147521,10.5677146 C6.96311971,10.853688 6.24220073,11 5.5,11 Z M5.5,0.686336155 C2.84643289,0.686336155 0.687666264,2.84510278 0.687666264,5.49866989 C0.687666264,8.152237 2.84643289,10.3110036 5.5,10.3110036 C8.15356711,10.3110036 10.3123337,8.15356711 10.3123337,5.49866989 C10.3123337,2.84510278 8.15356711,0.686336155 5.5,0.686336155 Z" id="形状" stroke-width="0.5" fill="#CFD8E4" fill-rule="nonzero"></path>
                            <line x1="5.54886562" y1="2.92608949" x2="5.54886562" y2="6.17032912" id="路径-2" stroke-width="1.2" stroke-linecap="round"></line>
                            <path d="M5.34057069,7.9078341 C5.53600529,7.75881301 5.64449776,7.70889272 5.69615238,7.76054734 C5.73384635,7.79824131 5.75716055,7.85031504 5.75716055,7.9078341 C5.75716055,7.96535316 5.73384635,8.01742689 5.69615238,8.05512086 C5.65845841,8.09281483 5.60638468,8.11612903 5.54886562,8.11612903 C5.49134656,8.11612903 5.43927283,8.09281483 5.40157886,8.05512086 C5.36388489,8.01742689 5.34057069,7.96535316 5.34057069,7.9078341 Z" id="椭圆形" stroke-width="0.8" fill="#CFD8E4"></path>
                        </g>
                    </g>
                </g>
            </g>
        </g>
    </g>
</svg>