<?xml version="1.0" encoding="UTF-8"?>
<svg width="31px" height="165px" viewBox="0 0 31 165" version="1.1" xmlns="http://www.w3.org/2000/svg" xmlns:xlink="http://www.w3.org/1999/xlink">
    <title>编组 7</title>
    <defs>
        <path d="M0,0 L8,0 C12.418278,-8.11624501e-16 16,3.581722 16,8 L16,152 C16,156.418278 12.418278,160 8,160 L0,160 L0,160 L0,0 Z" id="path-1"></path>
        <filter x="-140.6%" y="-7.8%" width="287.5%" height="112.5%" filterUnits="objectBoundingBox" id="filter-2">
            <feMorphology radius="5" operator="erode" in="SourceAlpha" result="shadowSpreadOuter1"></feMorphology>
            <feOffset dx="0" dy="10" in="shadowSpreadOuter1" result="shadowOffsetOuter1"></feOffset>
            <feGaussianBlur stdDeviation="7.5" in="shadowOffsetOuter1" result="shadowBlurOuter1"></feGaussianBlur>
            <feColorMatrix values="0 0 0 0 0   0 0 0 0 0.0696732026   0 0 0 0 0.160784314  0 0 0 0.12 0" type="matrix" in="shadowBlurOuter1"></feColorMatrix>
        </filter>
    </defs>
    <g id="V1.2" stroke="none" stroke-width="1" fill="none" fill-rule="evenodd">
        <g id="广告统计" transform="translate(-505.000000, -755.000000)">
            <g id="编组-7" transform="translate(520.000000, 760.000000)">
                <g id="矩形">
                    <use fill="black" fill-opacity="1" filter="url(#filter-2)" xlink:href="#path-1"></use>
                    <use fill="#FFFFFF" fill-rule="evenodd" xlink:href="#path-1"></use>
                </g>
                <g id="编组-5" transform="translate(0.000000, 29.000000)">
                    <g id="编组" stroke="#333333" stroke-linejoin="round" stroke-width="0.84">
                        <g id="路径" transform="translate(3.000000, 3.000000)">
                            <path d="M4.66666667,9.33333333 C7.24399667,9.33333333 9.33333333,7.24399667 9.33333333,4.66666667 C9.33333333,2.08933667 7.24399667,-1.77635684e-15 4.66666667,-1.77635684e-15 C2.08933667,-1.77635684e-15 -1.77635684e-15,2.08933667 -1.77635684e-15,4.66666667 C-1.77635684e-15,7.24399667 2.08933667,9.33333333 4.66666667,9.33333333 Z" transform="translate(4.666667, 4.666667) rotate(-90.000000) translate(-4.666667, -4.666667) "></path>
                            <polyline stroke-linecap="round" transform="translate(4.316667, 4.666667) rotate(-90.000000) translate(-4.316667, -4.666667) " points="6.41666667 5.71666667 4.31666667 3.61666667 2.21666667 5.71666667"></polyline>
                        </g>
                    </g>
                    <path d="M3.546875,27.40625 C4.51692708,27.2630208 5.48372396,27.1295573 6.44726562,27.0058594 C6.46679688,26.843099 6.48958333,26.6217448 6.515625,26.3417969 C5.79296875,26.4329427 5.09960938,26.5208333 4.43554688,26.6054688 C5.30794271,25.4010417 6.11523438,24.141276 6.85742188,22.8261719 L6.85742188,22.8261719 L6.10546875,22.4941406 C5.8125,23.0768229 5.53580729,23.6009115 5.27539062,24.0664062 C4.953125,24.0761719 4.5234375,24.0826823 3.98632812,24.0859375 C4.48763021,23.2786458 5.02148438,22.3411458 5.58789062,21.2734375 L5.58789062,21.2734375 L4.796875,21 C4.19140625,22.484375 3.63476562,23.5325521 3.12695312,24.1445312 L3.12695312,24.1445312 L3.32226562,24.7890625 C3.67708333,24.7565104 4.2125651,24.7174479 4.92871094,24.671875 C4.31673177,25.6972656 3.80403646,26.3710938 3.390625,26.6933594 L3.390625,26.6933594 L3.546875,27.40625 Z M12.7851562,30.0722656 L12.7851562,29.3691406 L11.9257812,29.3691406 L11.9257812,21.546875 L7.19921875,21.546875 L7.19921875,29.3691406 L6.03710938,29.3691406 L6.03710938,30.0722656 L12.7851562,30.0722656 Z M11.1835938,24.1738281 L7.94140625,24.1738281 L7.94140625,22.25 L11.1835938,22.25 L11.1835938,24.1738281 Z M11.1835938,26.7714844 L7.94140625,26.7714844 L7.94140625,24.8476562 L11.1835938,24.8476562 L11.1835938,26.7714844 Z M11.1835938,29.3691406 L7.94140625,29.3691406 L7.94140625,27.4453125 L11.1835938,27.4453125 L11.1835938,29.3691406 Z M3.41992188,29.5546875 C4.16210938,29.3658854 5.21028646,29.1315104 6.56445312,28.8515625 C6.56445312,28.65625 6.57747396,28.4088542 6.60351562,28.109375 C5.28190104,28.4023438 4.14908854,28.6367188 3.20507812,28.8125 L3.20507812,28.8125 L3.41992188,29.5546875 Z M3.44921875,41.6699219 C4.41276042,41.5136719 5.33723958,41.3704427 6.22265625,41.2402344 C6.2421875,40.999349 6.27148438,40.7519531 6.31054688,40.4980469 C5.73111979,40.5957031 5.07356771,40.6966146 4.33789062,40.8007812 C5.04752604,39.7981771 5.80924479,38.5872396 6.62304688,37.1679688 L6.62304688,37.1679688 L5.890625,36.8457031 C5.62044271,37.360026 5.36328125,37.8320312 5.11914062,38.2617188 C4.77734375,38.2747396 4.39322917,38.2845052 3.96679688,38.2910156 C4.48763021,37.4576823 5.06380208,36.422526 5.6953125,35.1855469 L5.6953125,35.1855469 L4.953125,34.8925781 C4.30208333,36.422526 3.68359375,37.5748698 3.09765625,38.3496094 L3.09765625,38.3496094 L3.28320312,39.0136719 C3.67708333,38.9713542 4.16536458,38.9339193 4.74804688,38.9013672 C4.19466146,39.8193359 3.70963542,40.5013021 3.29296875,40.9472656 L3.29296875,40.9472656 L3.44921875,41.6699219 Z M7.66796875,40.859375 L7.66796875,40.3125 L11.3789062,40.3125 L11.3789062,40.859375 L12.1308594,40.859375 L12.1308594,35.5859375 L6.91601562,35.5859375 L6.91601562,40.859375 L7.66796875,40.859375 Z M11.3789062,39.6289062 L7.66796875,39.6289062 L7.66796875,36.2695312 L11.3789062,36.2695312 L11.3789062,39.6289062 Z M6.45703125,44.609375 C7.29036458,43.7434896 8.09440104,42.7441406 8.86914062,41.6113281 L8.86914062,41.6113281 L8.15625,41.1816406 C7.42708333,42.3470052 6.64583333,43.3138021 5.8125,44.0820312 C6.05338542,44.2578125 6.26822917,44.4335938 6.45703125,44.609375 Z M12.1796875,44.453125 L12.8925781,43.9257812 C12.1308594,42.96875 11.3886719,42.0670573 10.6660156,41.2207031 L10.6660156,41.2207031 L10.0214844,41.6796875 C10.7636719,42.578125 11.4830729,43.5026042 12.1796875,44.453125 L12.1796875,44.453125 Z M3.29296875,43.7988281 C3.96354167,43.610026 4.98567708,43.3528646 6.359375,43.0273438 C6.359375,42.8971354 6.36914062,42.65625 6.38867188,42.3046875 C5.11914062,42.6106771 4.015625,42.8580729 3.078125,43.046875 L3.078125,43.046875 L3.29296875,43.7988281 Z M5.12890625,58.5898438 L5.12890625,53.3164062 C5.43489583,53.625651 5.72135417,53.9479167 5.98828125,54.2832031 L5.98828125,54.2832031 L6.4765625,53.8144531 C6.1640625,53.4824219 5.83528646,53.1536458 5.49023438,52.828125 L5.49023438,52.828125 L5.12890625,53.1650391 L5.12890625,51.6171875 L6.18359375,51.6171875 L6.18359375,50.953125 L5.12890625,50.953125 L5.12890625,48.9609375 L4.42578125,48.9609375 L4.42578125,50.953125 L3.14648438,50.953125 L3.14648438,51.6171875 L4.3671875,51.6171875 C4.04817708,52.9811198 3.59244792,54.15625 3,55.1425781 C3.12369792,55.4290365 3.22460938,55.7122396 3.30273438,55.9921875 C3.72591146,55.3411458 4.10026042,54.4410807 4.42578125,53.2919922 L4.42578125,53.2919922 L4.42578125,58.5898438 L5.12890625,58.5898438 Z M10.6757812,58.3945312 C11.4700521,58.3945312 11.8671875,57.9908854 11.8671875,57.1835938 L11.8671875,57.1835938 L11.8671875,51.6953125 L12.7949219,51.6953125 L12.7949219,51.0117188 L11.8671875,51.0117188 L11.8671875,49.0097656 L11.1445312,49.0097656 L11.1445312,51.0117188 L9.3671875,51.0117188 L9.3671875,51.6953125 L11.1445312,51.6953125 L11.1445312,57.0957031 C11.1445312,57.4667969 10.9394531,57.6523438 10.5292969,57.6523438 C10.2623698,57.6523438 9.9140625,57.6295573 9.484375,57.5839844 C9.55598958,57.889974 9.60481771,58.156901 9.63085938,58.3847656 C10.093099,58.391276 10.4414062,58.3945312 10.6757812,58.3945312 Z M6.03710938,57.8476562 C6.80208333,57.1184896 7.43196615,56.2623698 7.92675781,55.2792969 C8.26529948,55.9042969 8.60221354,56.5390625 8.9375,57.1835938 L8.9375,57.1835938 L9.62109375,56.7441406 C9.20442708,56.0084635 8.76497396,55.2434896 8.30273438,54.4492188 C8.75520833,53.3196615 9.05143229,52.0436198 9.19140625,50.6210938 L9.19140625,50.6210938 L9.19140625,49.9765625 L6.13476562,49.9765625 L6.13476562,50.6796875 L8.43945312,50.6796875 C8.35807292,51.7604167 8.1578776,52.7532552 7.83886719,53.6582031 C7.4938151,53.0722656 7.13736979,52.4700521 6.76953125,51.8515625 L6.76953125,51.8515625 L6.18359375,52.2128906 C6.62630208,52.9550781 7.0641276,53.7167969 7.49707031,54.4980469 C7.0250651,55.5104167 6.38541667,56.3990885 5.578125,57.1640625 C5.76692708,57.4244792 5.91992188,57.6523438 6.03710938,57.8476562 Z M9.97265625,54.9765625 L10.6074219,54.6542969 C10.327474,53.9902344 10.0214844,53.3326823 9.68945312,52.6816406 L9.68945312,52.6816406 L9.09375,52.9746094 C9.38671875,53.5540365 9.6796875,54.2213542 9.97265625,54.9765625 L9.97265625,54.9765625 Z M9.15234375,66.1640625 C10.4088542,65.3893229 11.4765625,64.5201823 12.3554688,63.5566406 L12.3554688,63.5566406 L11.7890625,63.0585938 C10.9166667,64.0286458 9.875,64.8554688 8.6640625,65.5390625 C8.87239583,65.7864583 9.03515625,65.9947917 9.15234375,66.1640625 Z M3.55664062,72.5800781 C4.69596354,71.5709635 5.2639974,69.9889323 5.26074219,67.8339844 L5.26074219,67.8339844 L6.8671875,67.8339844 L6.8671875,72.5019531 L7.61914062,72.5019531 L7.61914062,67.8339844 L9.1328125,67.8339844 L9.1328125,67.1308594 L7.61914062,67.1308594 L7.61914062,64.3574219 L8.8203125,64.3574219 L8.8203125,63.6542969 L3.46875,63.6542969 L3.46875,64.3574219 L4.51367188,64.3574219 L4.51367188,67.1308594 L3.1953125,67.1308594 L3.1953125,67.8339844 L4.50878906,67.8339844 C4.51855469,69.7415365 4.02864583,71.108724 3.0390625,71.9355469 C3.22786458,72.1373698 3.40039062,72.3522135 3.55664062,72.5800781 Z M6.8671875,67.1308594 L5.265625,67.1308594 L5.265625,64.3574219 L6.8671875,64.3574219 L6.8671875,67.1308594 Z M9.20117188,69.1621094 C10.483724,68.3157552 11.5872396,67.3652344 12.5117188,66.3105469 L12.5117188,66.3105469 L11.9453125,65.8222656 C10.9882812,66.9095052 9.90429688,67.827474 8.69335938,68.5761719 C8.89518229,68.7779948 9.06445312,68.9733073 9.20117188,69.1621094 Z M8.76171875,72.5703125 C10.421875,71.5286458 11.766276,70.3893229 12.7949219,69.1523438 L12.7949219,69.1523438 L12.2285156,68.6542969 C11.1542969,69.9824219 9.81640625,71.0729167 8.21484375,71.9257812 C8.46875,72.1796875 8.65104167,72.3945312 8.76171875,72.5703125 Z M3.41992188,83.6894531 C4.66992188,83.4876302 5.65625,83.3346354 6.37890625,83.2304688 C6.3984375,82.9895833 6.42773438,82.7421875 6.46679688,82.4882812 C5.90039062,82.5859375 5.18424479,82.6966146 4.31835938,82.8203125 C5.06705729,81.765625 5.8125,80.6197917 6.5546875,79.3828125 L6.5546875,79.3828125 L5.83203125,79.0214844 C5.59114583,79.4674479 5.36002604,79.8792318 5.13867188,80.2568359 C4.72851562,80.2698568 4.33463542,80.28125 3.95703125,80.2910156 C4.40625,79.594401 4.98242188,78.5559896 5.68554688,77.1757812 L5.68554688,77.1757812 L4.94335938,76.8828125 C4.29882812,78.3932292 3.67708333,79.5488281 3.078125,80.3496094 L3.078125,80.3496094 L3.26367188,81.0136719 C3.70963542,80.9778646 4.20605469,80.9420573 4.75292969,80.90625 C4.17675781,81.8470052 3.68033854,82.5338542 3.26367188,82.9667969 L3.26367188,82.9667969 L3.41992188,83.6894531 Z M12.3847656,81.4433594 L12.3847656,80.7402344 L9.9921875,80.7402344 L9.9921875,79.2167969 L12.7265625,79.2167969 L12.7265625,78.5136719 L9.9921875,78.5136719 L9.9921875,76.9511719 L9.2109375,76.9511719 L9.2109375,78.5136719 L6.50585938,78.5136719 L6.50585938,79.2167969 L9.2109375,79.2167969 L9.2109375,80.7402344 L6.828125,80.7402344 L6.828125,81.4433594 L12.3847656,81.4433594 Z M7.78515625,86.5605469 L7.78515625,85.9550781 L11.4179688,85.9550781 L11.4179688,86.5605469 L12.1796875,86.5605469 L12.1796875,82.5957031 L7.0234375,82.5957031 L7.0234375,86.5605469 L7.78515625,86.5605469 Z M11.4179688,85.2714844 L7.78515625,85.2714844 L7.78515625,83.2792969 L11.4179688,83.2792969 L11.4179688,85.2714844 Z M3.25390625,85.8769531 C4.38671875,85.577474 5.48046875,85.3170573 6.53515625,85.0957031 C6.53515625,84.8613281 6.54492188,84.6139323 6.56445312,84.3535156 C5.41861979,84.6334635 4.24348958,84.890625 3.0390625,85.125 L3.0390625,85.125 L3.25390625,85.8769531 Z M10.3144531,100.433594 C11.0110677,100.433594 11.4928385,100.306641 11.7597656,100.052734 C12.0397135,99.7988281 12.1959635,99.3300781 12.2285156,98.6464844 C12.2675781,97.858724 12.3326823,95.8014323 12.4238281,92.4746094 L12.4238281,92.4746094 L8.21484375,92.4746094 C8.390625,92.0839844 8.57291667,91.6640625 8.76171875,91.2148438 L8.76171875,91.2148438 L8.00976562,90.9707031 C7.57356771,92.2858073 6.99088542,93.4576823 6.26171875,94.4863281 C6.50260417,94.6360677 6.70442708,94.7727865 6.8671875,94.8964844 C7.19270833,94.4342448 7.52799479,93.8645833 7.87304688,93.1875 L7.87304688,93.1875 L11.6328125,93.1875 C11.5677083,95.8697917 11.5123698,97.6503906 11.4667969,98.5292969 C11.4472656,98.985026 11.3561198,99.28125 11.1933594,99.4179688 C11.0371094,99.5807292 10.734375,99.6588542 10.2851562,99.6523438 C9.76432292,99.6393229 9.18164062,99.5970052 8.53710938,99.5253906 C8.60872396,99.8378906 8.6640625,100.124349 8.703125,100.384766 C9.26302083,100.417318 9.80013021,100.433594 10.3144531,100.433594 Z M5.16796875,100.570312 L5.16796875,95.3359375 C5.51953125,95.6744792 5.89713542,96.0748698 6.30078125,96.5371094 L6.30078125,96.5371094 L6.81835938,96 C6.34309896,95.5442708 5.88411458,95.1145833 5.44140625,94.7109375 L5.44140625,94.7109375 L5.16796875,94.9941406 L5.16796875,93.6757812 L6.4375,93.6757812 L6.4375,93.0214844 L5.16796875,93.0214844 L5.16796875,91.0878906 L4.49414062,91.0878906 L4.49414062,93.0214844 L3.1171875,93.0214844 L3.1171875,93.6757812 L4.484375,93.6757812 C4.20442708,94.9322917 3.72591146,96.0878906 3.04882812,97.1425781 C3.17252604,97.4355469 3.27669271,97.7220052 3.36132812,98.0019531 C3.79752604,97.3769531 4.17513021,96.5566406 4.49414062,95.5410156 L4.49414062,95.5410156 L4.49414062,100.570312 L5.16796875,100.570312 Z M10.4316406,98.4902344 L11.125,98.1191406 C10.6171875,97.1490885 10.125651,96.2539062 9.65039062,95.4335938 L9.65039062,95.4335938 L9.0546875,95.7460938 C9.35416667,96.2799479 9.63411458,96.8170573 9.89453125,97.3574219 C9.2890625,97.3834635 8.51757812,97.4095052 7.58007812,97.4355469 C8.36783854,96.1660156 8.95377604,95.1080729 9.33789062,94.2617188 L9.33789062,94.2617188 L8.60546875,93.9589844 C8.08463542,95.1829427 7.55729167,96.2148438 7.0234375,97.0546875 C6.88020833,97.2630208 6.70442708,97.4388021 6.49609375,97.5820312 L6.49609375,97.5820312 L6.828125,98.2851562 C7.19921875,98.2070312 7.48567708,98.1582031 7.6875,98.1386719 C8.5078125,98.0735677 9.34114583,98.014974 10.1875,97.9628906 C10.2721354,98.1386719 10.3535156,98.3144531 10.4316406,98.4902344 L10.4316406,98.4902344 Z" id="组织树形结构" fill="#333333" fill-rule="nonzero"></path>
                </g>
            </g>
        </g>
    </g>
</svg>