<?xml version="1.0" encoding="UTF-8"?>
<svg width="24px" height="24px" viewBox="0 0 24 24" version="1.1" xmlns="http://www.w3.org/2000/svg" xmlns:xlink="http://www.w3.org/1999/xlink">
    <title>编组 33备份</title>
    <g id="v1.3" stroke="none" stroke-width="1" fill="none" fill-rule="evenodd">
        <g id="我的模板/全选删除备份" transform="translate(-1186.000000, -629.000000)">
            <g id="编组-14" transform="translate(1033.000000, 355.000000)">
                <g id="编组-38" transform="translate(24.000000, 266.000000)">
                    <g id="编组-33备份" transform="translate(129.000000, 8.000000)">
                        <rect id="矩形备份-9" x="0" y="0" width="24" height="24"></rect>
                        <g id="编组" transform="translate(3.000000, 3.000000)" fill="#97A1AF">
                            <path d="M8.98977,1.2 C10.3701,1.2 11.6141,1.78389 12.4881,2.71816 L13.6856,2.27105 C12.5885,0.887439 10.8928,0 8.98977,0 C5.68171,0 3,2.68171 3,5.98977 L3,6 L1,6 C0.447716,6 0,6.44772 0,7 L0,17 C0,17.5523 0.447715,18 1,18 L17,18 C17.5523,18 18,17.5523 18,17 L18,7 C18,6.44771 17.5523,6 17,6 L4.2,6 L4.2,5.98977 C4.2,3.34445 6.34445,1.2 8.98977,1.2 Z M1.2,16.8 L16.8,16.8 L16.8,7.2 L1.2,7.2 L1.2,16.8 Z M7,11 L7,13 L11,13 L11,11 L7,11 Z" id="形状"></path>
                        </g>
                    </g>
                </g>
            </g>
        </g>
    </g>
</svg>