<?xml version="1.0" encoding="UTF-8"?>
<svg width="56px" height="56px" viewBox="0 0 56 56" version="1.1" xmlns="http://www.w3.org/2000/svg" xmlns:xlink="http://www.w3.org/1999/xlink">
    <title>编组 5</title>
    <g id="V1.2" stroke="none" stroke-width="1" fill="none" fill-rule="evenodd">
        <g id="设备列表-日志下载" transform="translate(-1110.000000, -380.000000)">
            <g id="编组-6" transform="translate(1094.000000, 380.000000)">
                <g id="编组-5" transform="translate(16.000000, 0.000000)">
                    <circle id="椭圆形" fill="#4096FF" cx="28" cy="28" r="28"></circle>
                    <g id="编组" transform="translate(15.000000, 17.000000)" stroke="#FFFFFF" stroke-linecap="round" stroke-linejoin="round" stroke-width="1.92">
                        <path d="M23.8624261,17.3608996 C25.993714,15.8920673 26.9075493,13.2387503 26.1206212,10.8044456 C25.3336931,8.37014095 22.9238838,7.0364913 20.3184287,7.03846152 L18.8133112,7.03846152 C17.8293754,3.28029477 14.5829646,0.505726416 10.6501398,0.0617781919 C6.71725015,-0.382170032 2.91231169,1.59639049 1.08237149,5.03697016 C-0.747568706,8.47754983 -0.223572505,12.6677036 2.39997513,15.5733363" id="路径"></path>
                        <line x1="13.1565723" y1="22.88" x2="13.1511251" y2="11.4400011" id="路径" transform="translate(13.153849, 17.160001) scale(1, -1) translate(-13.153849, -17.160001) "></line>
                        <polyline id="路径" transform="translate(13.150866, 13.462339) scale(1, -1) translate(-13.150866, -13.462339) " points="17.27778 11.4400011 13.1508657 15.4846763 9.02395141 11.4400011"></polyline>
                    </g>
                </g>
            </g>
        </g>
    </g>
</svg>