<?xml version="1.0" encoding="UTF-8"?>
<svg width="16px" height="16px" viewBox="0 0 16 16" version="1.1" xmlns="http://www.w3.org/2000/svg" xmlns:xlink="http://www.w3.org/1999/xlink">
    <title>编组</title>
    <g id="v1.3" stroke="none" stroke-width="1" fill="none" fill-rule="evenodd">
        <g id="我的素材/默认状态" transform="translate(-281.000000, -233.000000)" fill="#FFFFFF">
            <g id="编组-182" transform="translate(267.000000, 225.000000)">
                <g id="编组" transform="translate(14.000000, 8.000000)">
                    <path d="M7.99999823,0 L2.99999823,5 L7.16666012,5 L7.16666012,10.8333209 L8.83334155,10.8333209 L8.83334155,5 L12.9999982,5 L7.99999823,0 Z M1,8.33332436 C1,8.05718243 0.776142444,7.83332436 0.5,7.83332436 C0.223857243,7.83332436 0,8.05718243 0,8.33332436 L0,14.1666504 C0,14.9030663 0.596950983,15.4999822 1.33333347,15.4999822 L14.6666682,15.4999822 C15.4030007,15.4999822 16,14.9030663 16,14.1666504 L16,8.33332436 C16,8.05718243 15.7760836,7.83332436 15.5,7.83332436 C15.2238342,7.83332436 15,8.05718243 15,8.33332436 L15,14.1666504 C15,14.3507336 14.8507513,14.4999834 14.6666682,14.4999834 L1.33333347,14.4999834 C1.14923368,14.4999834 1,14.3507336 1,14.1666504 L1,8.33332436 Z" id="形状"></path>
                </g>
            </g>
        </g>
    </g>
</svg>