<?xml version="1.0" encoding="UTF-8"?>
<svg width="94px" height="83px" viewBox="0 0 94 83" version="1.1" xmlns="http://www.w3.org/2000/svg" xmlns:xlink="http://www.w3.org/1999/xlink">
    <title>编组 25</title>
    <g id="缺省页" stroke="none" stroke-width="1" fill="none" fill-rule="evenodd">
        <g id="暂无数据" transform="translate(-1023.000000, -814.000000)">
            <g id="编组-25" transform="translate(1023.000000, 814.000000)">
                <polygon id="路径-46" fill="#E6EBF1" points="18.432 25.8048 0 25.8048 0 81.1008 18.432 81.1008"></polygon>
                <path d="M17.5792213,0 L62.6135429,0 L81.1008,19.236244 L81.1008,81.1008 L7.3728,81.1008 C14.1770808,77.0725428 17.5792213,71.255566 17.5792213,63.6498696 C17.5792213,56.0441733 17.5792213,34.8275501 17.5792213,0 Z" id="路径-45" fill="#EFF2F6"></path>
                <polygon id="路径-47" fill="#D8E1EC" points="62.6135429 6.54836185e-13 62.6135429 19.8967918 81.1008 19.8967918"></polygon>
                <line x1="27.8919958" y1="40.5504" x2="74.241028" y2="40.5504" id="路径-48" stroke="#FFFFFF" stroke-width="3.6864"></line>
                <line x1="27.8919958" y1="51.6096" x2="74.241028" y2="51.6096" id="路径-49" stroke="#FFFFFF" stroke-width="3.6864"></line>
                <line x1="27.8919958" y1="64.442312" x2="49.0167804" y2="64.442312" id="路径-50" stroke="#FFFFFF" stroke-width="3.6864"></line>
                <circle id="椭圆形" fill="#4096FF" cx="79.2576" cy="68.1984" r="14.7456"></circle>
                <polygon id="路径-51" fill="#FFFFFF" fill-rule="nonzero" points="81.1008 58.9824 81.1008 70.0416 77.4144 70.0416 77.4144 58.9824"></polygon>
                <polygon id="路径-52" fill="#FFFFFF" fill-rule="nonzero" points="81.1008 71.8848 81.1008 75.5712 77.4144 75.5712 77.4144 71.8848"></polygon>
                <g id="编组" transform="translate(28.000000, 8.000000)" fill="#FFFFFF" fill-rule="nonzero">
                    <circle id="椭圆形" transform="translate(16.187739, 10.813980) rotate(-76.020000) translate(-16.187739, -10.813980) " cx="16.1877385" cy="10.8139799" r="2.33033143"></circle>
                    <circle id="椭圆形" transform="translate(10.923501, 7.574866) rotate(-45.000000) translate(-10.923501, -7.574866) " cx="10.9235014" cy="7.57486565" r="1.76420571"></circle>
                    <circle id="椭圆形" transform="translate(5.798040, 10.820177) rotate(-76.720000) translate(-5.798040, -10.820177) " cx="5.79804045" cy="10.8201768" r="1.49650286"></circle>
                    <circle id="椭圆形" transform="translate(5.796299, 4.322017) rotate(-76.720000) translate(-5.796299, -4.322017) " cx="5.79629928" cy="4.32201676" r="1.49650286"></circle>
                    <circle id="椭圆形" transform="translate(5.795756, 17.551698) rotate(-76.720000) translate(-5.795756, -17.551698) " cx="5.79575613" cy="17.5516976" r="1.49650286"></circle>
                    <path d="M1.97488576,20.7842767 C1.97488576,21.1838538 1.73406742,21.5440441 1.36482119,21.6967498 C0.995574953,21.8494556 0.570692704,21.7645724 0.288463526,21.4817147 C0.00623434785,21.1988569 -0.0777033651,20.7737869 0.0758234346,20.4048813 C0.229350234,20.0359757 0.590075418,19.7959602 0.989651478,19.7968457 C1.5341361,19.7980581 1.97488576,20.2397908 1.97488576,20.7842767 Z" id="路径"></path>
                    <path d="M1.97488821,0.987431027 C1.97488821,1.38700807 1.73406742,1.7471984 1.36482119,1.89990412 C0.995574953,2.05260984 0.570692704,1.96772669 0.288463526,1.68486894 C0.00623434785,1.40201118 -0.0777033651,0.976941149 0.0758234346,0.608035554 C0.229350234,0.239129958 0.590075418,-0.000885493613 0.989651478,1.52259158e-16 C1.25133249,1.52259158e-16 1.50226379,0.104104136 1.68709427,0.289346261 C1.87192475,0.474588387 1.97546857,0.725750668 1.97488821,0.987431027 Z" id="路径"></path>
                    <path d="M1.97488821,7.57687103 C1.97488821,7.97644807 1.73406742,8.3366384 1.36482119,8.48934412 C0.995574953,8.64204984 0.570692704,8.55716669 0.288463526,8.27430894 C0.00623434785,7.99145118 -0.0777033651,7.56638115 0.0758234346,7.19747555 C0.229350234,6.82856996 0.590075418,6.58855451 0.989651478,6.58944 C1.25133249,6.58944 1.50226379,6.69354414 1.68709427,6.87878626 C1.87192475,7.06402839 1.97546857,7.31519067 1.97488821,7.57687103 Z" id="路径"></path>
                    <path d="M1.97488821,14.1794767 C1.97577317,14.5792523 1.73551978,14.940116 1.36634445,15.0935137 C0.99716912,15.2469114 0.571926885,15.1625707 0.289242186,14.879886 C0.00655748773,14.5972013 -0.077783158,14.1719591 0.0756145333,13.8027838 C0.229012225,13.4336084 0.589875928,13.193355 0.989651478,13.19424 C1.53378135,13.19424 1.97488821,13.6353469 1.97488821,14.1794767 Z" id="路径"></path>
                    <circle id="椭圆形" transform="translate(10.922535, 14.189903) rotate(-76.660000) translate(-10.922535, -14.189903) " cx="10.9225353" cy="14.1899031" r="1.76420571"></circle>
                </g>
            </g>
        </g>
    </g>
</svg>