<?xml version="1.0" encoding="UTF-8"?>
<svg width="18px" height="18px" viewBox="0 0 18 18" version="1.1" xmlns="http://www.w3.org/2000/svg" xmlns:xlink="http://www.w3.org/1999/xlink">
    <title>切片</title>
    <g id="设备管理" stroke="none" stroke-width="1" fill="none" fill-rule="evenodd">
        <g id="广告机/LED" transform="translate(-1746.000000, -357.000000)" stroke="#4096FF" stroke-width="1.2">
            <g id="编组-6" transform="translate(1704.000000, 270.000000)">
                <g id="icon/bianji备份-3" transform="translate(42.000000, 87.000000)">
                    <g id="编组" transform="translate(2.000000, 1.500000)">
                        <rect id="矩形" x="0" y="0" width="4.66666667" height="15" rx="2.33333333"></rect>
                        <rect id="矩形" x="9.33333333" y="0" width="4.66666667" height="15" rx="2.33333333"></rect>
                        <path d="M2.33333333,15 C3.62199444,15 4.66666667,13.9396184 4.66666667,12.6315789 C4.66666667,11.3235395 3.62199444,10.2631579 2.33333333,10.2631579 C1.04466833,10.2631579 0,11.3235395 0,12.6315789 C0,13.9396184 1.04466833,15 2.33333333,15 Z" id="路径"></path>
                        <path d="M11.6666667,15 C12.9553278,15 14,13.9396184 14,12.6315789 C14,11.3235395 12.9553278,10.2631579 11.6666667,10.2631579 C10.3780056,10.2631579 9.33333333,11.3235395 9.33333333,12.6315789 C9.33333333,13.9396184 10.3780056,15 11.6666667,15 Z" id="路径"></path>
                        <path d="M9.33333333,6.31578947 C9.33333333,5.00775 8.28866111,3.94736842 7,3.94736842 C5.71133889,3.94736842 4.66666667,5.00775 4.66666667,6.31578947" id="路径" stroke-linecap="square"></path>
                        <path d="M9.33333333,10.2631579 C9.33333333,8.95511842 8.28866111,7.89473684 7,7.89473684 C5.71133889,7.89473684 4.66666667,8.95511842 4.66666667,10.2631579" id="路径" stroke-linecap="square"></path>
                    </g>
                </g>
            </g>
        </g>
    </g>
</svg>