<?xml version="1.0" encoding="UTF-8"?>
<svg width="56px" height="56px" viewBox="0 0 56 56" version="1.1" xmlns="http://www.w3.org/2000/svg" xmlns:xlink="http://www.w3.org/1999/xlink">
    <title>切片</title>
    <g id="数据总览" stroke="none" stroke-width="1" fill="none" fill-rule="evenodd">
        <g id="设备统计" transform="translate(-1267.000000, -142.000000)" fill="#FFFFFF">
            <g id="卡片/广告任务备份" transform="translate(1242.000000, 120.000000)">
                <g id="icon/guanggaorenwu备份" transform="translate(25.000000, 22.000000)">
                    <path d="M28,0 C49.3429774,0 56,7.67847329 56,28 C56,48.3215267 49.3429774,56 28,56 C6.65702262,56 0,48.3215267 0,28 C0,7.67847329 6.65702262,0 28,0 Z" id="Rectangle" opacity="0.300000012"></path>
                    <g id="1在线监测" transform="translate(15.000000, 14.000000)">
                        <path d="M24,0 L4,0 C1.8,0 0,1.8 0,4 L0,20 C0,22.2 1.8,24 4,24 L24,24 C26.2,24 28,22.2 28,20 L28,4 C28,1.8 26.2,0 24,0 Z" id="路径" stroke="#FFFFFF" stroke-width="1.12" opacity="0.5" stroke-linejoin="round"></path>
                        <polygon id="路径" opacity="0.5" points="15.9863864 24.5663 12.9863864 24.5663 12.9863864 26 15.9863864 26"></polygon>
                        <path d="M28,27 C28,26.4 27.6,26 27,26 L1,26 C0.4,26 0,26.4 0,27 C0,27.6 0.4,28 1,28 L27,28 C27.6,28 28,27.6 28,27 Z" id="路径" opacity="0.5"></path>
                        <path d="M18.2629587,10.7513105 L19.4,14 L19.4,14 L23.2,14 C23.6,14 24,13.6 24,13 C24,12.4 23.6,12 23,12 L20.8,12 L18.8858045,6.53086992 C18.703357,6.00959134 18.1328743,5.73491448 17.6115957,5.91736199 C17.3378061,6.01318835 17.1191179,6.2231787 17.0122646,6.49285597 L14.0506223,13.9674771 C13.9895897,14.1215118 13.8152432,14.1969049 13.6612085,14.1358722 C13.5915963,14.10829 13.5348149,14.0556728 13.5020209,13.9883586 L10.887344,8.6213903 C10.6454602,8.12489191 10.0468831,7.91848602 9.5503847,8.16036986 C9.35269818,8.25667867 9.19226853,8.41546294 9.09392693,8.61214613 L7.4,12 L7.4,12 L5,12 C4.4,12 4,12.4 4,13 C4,13.6 4.4,14 5,14 L8.6,14 L9.73489687,11.7302063 C9.80899364,11.5820127 9.98919555,11.5219454 10.1373891,11.5960422 C10.1945565,11.6246259 10.2411007,11.6707204 10.270238,11.7276076 L13.2027311,17.4529512 C13.4545044,17.9445086 14.057093,18.138892 14.5486504,17.8871187 C14.7625362,17.7775674 14.9298192,17.5946578 15.0198845,17.3718645 L17.7016681,10.7379788 C17.7637652,10.5843702 17.9386293,10.5101855 18.0922379,10.5722826 C18.1722456,10.6046261 18.2344501,10.6698574 18.2629587,10.7513105 Z" id="路径" fill-rule="nonzero"></path>
                    </g>
                </g>
            </g>
        </g>
    </g>
</svg>