<?xml version="1.0" encoding="UTF-8"?>
<svg width="18px" height="18px" viewBox="0 0 18 18" version="1.1" xmlns="http://www.w3.org/2000/svg" xmlns:xlink="http://www.w3.org/1999/xlink">
    <title>切片</title>
    <g id="设备管理" stroke="none" stroke-width="1" fill="none" fill-rule="evenodd">
        <g id="广告机/LED" transform="translate(-1704.000000, -313.000000)">
            <g id="编组-6" transform="translate(1704.000000, 270.000000)">
                <g id="icon/bianji" transform="translate(0.000000, 43.000000)">
                    <rect id="矩形" fill="#D8D8D8" opacity="0" x="0" y="0" width="18" height="18"></rect>
                    <g id="编组" transform="translate(2.500000, 2.500000)" stroke="#4096FF" stroke-linecap="round" stroke-linejoin="round" stroke-width="1.2">
                        <polyline id="路径" points="0 6.44736842 0 0 13 0 13 6.44736842"></polyline>
                        <path d="M1.95,14 C3.0269525,14 3.9,13.1340217 3.9,12.0657895 C3.9,10.9975572 3.0269525,10.1315789 1.95,10.1315789 C0.87304425,10.1315789 0,10.9975572 0,12.0657895 C0,13.1340217 0.87304425,14 1.95,14 Z" id="路径"></path>
                        <path d="M10.4,3.68421053 C5.3269125,10.5397941 3.8365275,12.929898 3.328845,13.4334697 C2.5673375,14.1888434 1.33265275,14.1888434 0.571129,13.4334697" id="路径"></path>
                        <path d="M11.05,14 C12.1269525,14 13,13.1340217 13,12.0657895 C13,10.9975572 12.1269525,10.1315789 11.05,10.1315789 C9.9730475,10.1315789 9.1,10.9975572 9.1,12.0657895 C9.1,13.1340217 9.9730475,14 11.05,14 Z" id="路径"></path>
                        <path d="M12.428845,13.4334697 C11.6673375,14.1888434 10.4326625,14.1888434 9.671155,13.4334697 C9.1634725,12.929898 7.6730875,10.5397941 2.6,3.68421053" id="路径"></path>
                    </g>
                </g>
            </g>
        </g>
    </g>
</svg>