<?xml version="1.0" encoding="UTF-8"?>
<svg width="56px" height="56px" viewBox="0 0 56 56" version="1.1" xmlns="http://www.w3.org/2000/svg" xmlns:xlink="http://www.w3.org/1999/xlink">
    <title>切片</title>
    <g id="数据总览" stroke="none" stroke-width="1" fill="none" fill-rule="evenodd">
        <g id="设备统计" transform="translate(-593.000000, -142.000000)">
            <g id="卡片/广告任务" transform="translate(568.000000, 120.000000)">
                <g id="编组-2" transform="translate(25.000000, 22.000000)">
                    <path d="M28,0 C49.3429774,0 56,7.67847329 56,28 C56,48.3215267 49.3429774,56 28,56 C6.65702262,56 0,48.3215267 0,28 C0,7.67847329 6.65702262,0 28,0 Z" id="Rectangle" fill="#FFFFFF" opacity="0.300000012"></path>
                    <g id="编组" transform="translate(12.600000, 14.000000)" stroke="#FFFFFF">
                        <polyline id="路径-16" stroke-width="1.68" stroke-linecap="round" stroke-linejoin="round" points="14.8931916 8.96 14.8931916 6.33904027 16.9398907 5.49941558 12.88 2.62107983 17.36 -4.97379915e-16"></polyline>
                        <rect id="矩形" stroke-width="1.12" fill="#FFFFFF" opacity="0.5" stroke-linejoin="round" x="2.8" y="7.84" width="24.64" height="20.16" rx="2.24"></rect>
                        <rect id="矩形" stroke-width="1.4" fill="#FFFFFF" opacity="0.800000012" x="0.7" y="15.26" width="1" height="6.44" rx="0.5"></rect>
                        <rect id="矩形备份-2" stroke-width="1.4" fill="#FFFFFF" x="10.22" y="16.38" width="1" height="3.08" rx="0.5"></rect>
                        <rect id="矩形备份-3" stroke-width="1.4" fill="#FFFFFF" x="19.18" y="16.38" width="1" height="3.08" rx="0.5"></rect>
                        <rect id="矩形备份" stroke-width="1.4" fill="#FFFFFF" opacity="0.800000012" x="28.7" y="15.26" width="1" height="6.44" rx="0.5"></rect>
                    </g>
                </g>
            </g>
        </g>
    </g>
</svg>