<?xml version="1.0" encoding="UTF-8"?>
<svg width="56px" height="56px" viewBox="0 0 56 56" version="1.1" xmlns="http://www.w3.org/2000/svg" xmlns:xlink="http://www.w3.org/1999/xlink">
    <title>切片</title>
    <g id="数据总览" stroke="none" stroke-width="1" fill="none" fill-rule="evenodd">
        <g id="广告统计" transform="translate(-1604.000000, -142.000000)">
            <g id="卡片/广告任务备份-3" transform="translate(1579.000000, 120.000000)">
                <g id="编组-22" transform="translate(25.000000, 22.000000)">
                    <path d="M28,0 C49.3429774,0 56,7.67847329 56,28 C56,48.3215267 49.3429774,56 28,56 C6.65702262,56 0,48.3215267 0,28 C0,7.67847329 6.65702262,0 28,0 Z" id="Rectangle备份" fill="#FFFFFF" opacity="0.300000012"></path>
                    <g id="编组" transform="translate(14.000000, 14.875000)">
                        <path d="M6.10909091,0 C8.14545456,0 9.67272727,1.55940595 9.67272727,3.63861385 C9.67272727,5.71782178 8.14545453,7.2772277 6.10909091,7.2772277 C4.32727273,7.2772277 2.54545456,5.71782178 2.54545456,3.63861385 C2.54545456,1.81930693 4.32727273,0 6.10909091,0 Z" id="路径" stroke="#FFFFFF" stroke-width="1.18653465" fill="#FFFFFF" opacity="0.5" stroke-linejoin="round"></path>
                        <path d="M3.73333333,3.07549504 C3.73333333,2.14851485 4.66666667,1.22153465 5.6,1.22153465" id="路径" stroke="#FFFFFF" stroke-width="0.926980198" stroke-linecap="round" stroke-linejoin="round"></path>
                        <path d="M15.8666667,3.07549504 C15.8666667,2.14851485 16.8,1.22153465 17.7333333,1.22153465" id="路径备份" stroke="#FFFFFF" stroke-width="0.926980198" stroke-linecap="round" stroke-linejoin="round"></path>
                        <path d="M17.5636364,0 C19.6,0 21.1272727,1.55940595 21.1272727,3.63861385 C21.1272727,5.71782178 19.6,7.2772277 17.5636364,7.2772277 C15.7818182,7.2772277 14.2545455,5.71782178 14.2545455,3.63861385 C14.2545455,1.81930693 15.7818182,0 17.5636364,0 Z" id="路径" stroke="#FFFFFF" stroke-width="1.18653465" fill="#FFFFFF" opacity="0.5" stroke-linejoin="round"></path>
                        <path d="M21.2073071,23.3910891 C21.2073071,23.3910891 21.2073071,23.8199257 21.2073071,23.3910891 L21.2073071,23.3910891 C21.2073071,23.8199257 21.2073071,23.3910891 21.2073071,23.3910891 Z" id="路径" fill="#000000" fill-rule="nonzero"></path>
                        <path d="M27.4909091,10.6559406 C27.2363636,10.3960396 26.9818182,10.1361386 26.4727273,10.1361386 C26.2181818,10.1361386 25.7090909,10.1361386 25.4545454,10.3960396 C24.1818182,11.4356436 22.1454546,12.2153465 21.1272727,12.9950495 L21.1272727,12.7351485 C21.1272727,12.7351485 21.1272727,12.7351485 21.1272727,12.7351485 C21.1272727,11.1757426 19.8545455,9.61633666 18.3272727,9.61633666 L3.05454547,9.61633666 C1.27272727,9.35643563 0,10.9158416 0,12.7351485 L0,23.6509901 C0,25.210396 1.27272727,26.25 2.8,26.25 L18.0727273,26.25 C19.6,26.25 20.8727273,25.210396 20.8727273,23.3910891 L20.8727273,22.6113861 C22.1454546,23.3910891 23.6727273,24.4306931 25.4545455,25.210396 C25.4545455,25.210396 25.4545455,25.210396 25.7090909,25.210396 C26.2181818,25.470297 26.4727273,25.470297 26.7272727,25.470297 C27.2363636,25.470297 27.7454546,25.210396 27.7454546,24.950495 C28,24.6905941 28,24.1707921 28,23.6509901 L28,12.4752475 C28,11.9554455 28,11.1757426 27.4909091,10.6559406 Z" id="路径" stroke="#FFFFFF" stroke-width="1.18653465" fill="#FFFFFF" opacity="0.5" stroke-linejoin="round"></path>
                        <path d="M4.92121214,11.4702971 C3.13939393,11.210396 1.86666667,12.769802 1.86666667,14.5891089" id="路径" stroke="#FFFFFF" stroke-width="1.18653465" stroke-linecap="round" stroke-linejoin="round"></path>
                        <line x1="26.3146754" y1="15.6404817" x2="26.3146754" y2="20.8904817" id="路径-2" stroke="#FFFFFF" stroke-width="1.18653465" stroke-linecap="round" stroke-linejoin="round"></line>
                    </g>
                </g>
            </g>
        </g>
    </g>
</svg>