<?xml version="1.0" encoding="UTF-8"?>
<svg width="665px" height="56px" viewBox="0 0 665 56" version="1.1" xmlns="http://www.w3.org/2000/svg" xmlns:xlink="http://www.w3.org/1999/xlink">
    <title>tab-LED</title>
    <defs>
        <linearGradient x1="50%" y1="0%" x2="50%" y2="99.1477273%" id="linearGradient-1">
            <stop stop-color="#FFB67C" offset="0%"></stop>
            <stop stop-color="#FF8C30" offset="100%"></stop>
        </linearGradient>
        <path d="M16,0 C28.1959871,0 32,4.38769902 32,16 C32,27.612301 28.1959871,32 16,32 C3.80401293,32 0,27.612301 0,16 C0,4.38769902 3.80401293,0 16,0 Z" id="path-2"></path>
        <filter x="-23.4%" y="-14.1%" width="146.9%" height="156.2%" filterUnits="objectBoundingBox" id="filter-3">
            <feMorphology radius="3" operator="erode" in="SourceAlpha" result="shadowSpreadOuter1"></feMorphology>
            <feOffset dx="0" dy="6" in="shadowSpreadOuter1" result="shadowOffsetOuter1"></feOffset>
            <feGaussianBlur stdDeviation="4.5" in="shadowOffsetOuter1" result="shadowBlurOuter1"></feGaussianBlur>
            <feColorMatrix values="0 0 0 0 0.804489357   0 0 0 0 0.395380493   0 0 0 0 0.0680934017  0 0 0 0.6 0" type="matrix" in="shadowBlurOuter1"></feColorMatrix>
        </filter>
    </defs>
    <g id="tab-LED" stroke="none" stroke-width="1" fill="none" fill-rule="evenodd">
        <path d="M166.439,46.029 L166.434373,46.0175802 C168.769826,51.7673847 174.352103,55.8520183 180.905787,55.9960646 L181.264211,56 L0,56 L0,4 L0.00489530723,3.80035966 C0.105565453,1.75223915 1.74668502,0.109093099 3.7939606,0.00521491464 L4,0 L138.735789,0 L139.094213,0.00393537341 C145.528739,0.14536264 151.026861,4.08538588 153.435032,9.67045923 L153.565627,9.98241985 L166.439,46.029 Z" id="形状结合" fill="#F7F9FC"></path>
        <path d="M327.703211,46.029 L327.698584,46.0175802 C330.034036,51.7673847 335.616313,55.8520183 342.169998,55.9960646 L342.528421,56 L161.264211,56 L161.264211,4 L161.269106,3.80035966 C161.369776,1.75223915 163.010896,0.109093099 165.058171,0.00521491464 L165.264211,-8.52651283e-14 L300,-8.52651283e-14 L300.358423,0.00393537341 C306.79295,0.14536264 312.291072,4.08538588 314.699243,9.67045923 L314.829837,9.98241985 L327.703211,46.029 Z" id="形状结合备份-2" fill="#F7F9FC"></path>
        <path d="M650.231632,46.029 L650.227005,46.0175802 C652.562458,51.7673847 658.144734,55.8520183 664.698419,55.9960646 L665.056842,56 L483.792632,56 L483.792632,4 L483.797527,3.80035966 C483.898197,1.75223915 485.539317,0.109093099 487.586592,0.00521491464 L487.792632,0 L622.528421,0 L622.886844,0.00393537341 C629.321371,0.14536264 634.819493,4.08538588 637.227664,9.67045923 L637.358259,9.98241985 L650.231632,46.029 Z" id="形状结合备份-4" fill="#F7F9FC"></path>
        <path d="M489.439,46.029 L489.434373,46.0175802 C491.769826,51.7673847 497.352103,55.8520183 503.905787,55.9960646 L504.264211,56 L323,56 L323,4 L323.004895,3.80035966 C323.105565,1.75223915 324.746685,0.109093099 326.793961,0.00521491464 L327,0 L461.735789,0 L462.094213,0.00393537341 C468.528739,0.14536264 474.026861,4.08538588 476.435032,9.67045923 L476.565627,9.98241985 L489.439,46.029 Z" id="形状结合备份-3" fill="#FFFFFF"></path>
        <g id="通用图标/识别次数" transform="translate(193.000000, 17.000000)">
            <path d="M16,0 C28.1959871,0 32,4.38769902 32,16 C32,27.612301 28.1959871,32 16,32 C3.80401293,32 0,27.612301 0,16 C0,4.38769902 3.80401293,0 16,0 Z" id="Rectangle" fill="#97C0FF" opacity="0.160178961"></path>
            <g id="编组" transform="translate(7.200000, 7.600000)">
                <rect id="矩形" fill="#8AB9FF" opacity="0.5" x="0" y="3.204" width="17.1428571" height="9.968" rx="1.1392"></rect>
                <rect id="矩形备份" fill="#8AB9FF" opacity="0.5" x="0" y="13.884" width="17.088" height="1.71428571" rx="0.857142857"></rect>
                <circle id="椭圆形" fill="#8AB9FF" opacity="0.800000012" cx="8.40342857" cy="14.8114286" r="1"></circle>
                <polygon id="路径-17" fill="#8AB9FF" fill-rule="nonzero" points="11.748 1.78 11.748 3.204 11.036 3.204 11.036 1.78"></polygon>
                <polygon id="路径-17备份" fill="#8AB9FF" fill-rule="nonzero" points="13.528 1.78 13.528 3.204 12.816 3.204 12.816 1.78"></polygon>
                <rect id="矩形" fill="#8AB9FF" x="9.968" y="0" width="4.5568" height="2.2784" rx="0.5696"></rect>
                <circle id="椭圆形" fill="#8AB9FF" cx="4.31171429" cy="6.586" r="1"></circle>
                <circle id="椭圆形备份-3" fill="#8AB9FF" cx="4.31171429" cy="8.366" r="1"></circle>
                <circle id="椭圆形备份-6" fill="#8AB9FF" cx="4.31171429" cy="10.146" r="1"></circle>
                <circle id="椭圆形备份" fill="#8AB9FF" cx="8.66542857" cy="6.586" r="1"></circle>
                <circle id="椭圆形备份-4" fill="#8AB9FF" cx="8.66542857" cy="8.366" r="1"></circle>
                <circle id="椭圆形备份-2" fill="#8AB9FF" cx="13.0191429" cy="6.586" r="1"></circle>
                <circle id="椭圆形备份-5" fill="#8AB9FF" cx="13.0191429" cy="8.366" r="1"></circle>
                <line x1="8.54790777" y1="10.146" x2="10.3279078" y2="10.146" id="路径-18" stroke="#8AB9FF" stroke-width="1.068" stroke-linecap="round"></line>
            </g>
        </g>
        <g id="编组" transform="translate(355.000000, 17.000000)">
            <g id="Rectangle备份">
                <use fill="black" fill-opacity="1" filter="url(#filter-3)" xlink:href="#path-2"></use>
                <use fill="url(#linearGradient-1)" fill-rule="evenodd" xlink:href="#path-2"></use>
            </g>
            <path d="M10.4763515,24.22344 C10.2776991,24.3200844 10.0383136,24.2373905 9.94166922,24.0387381 C9.85381067,23.8581449 9.91416558,23.6438881 10.0751159,23.5338145 L10.1263712,23.5040557 L12.3755714,22.285 L8.56571429,22.2857143 C7.93768763,22.2857143 7.42857143,21.7765981 7.42857143,21.1485714 L7.42857143,9.13714286 C7.42857143,8.5091162 7.93768763,8 8.56571429,8 L23.4342857,8 C24.0623124,8 24.5714286,8.5091162 24.5714286,9.13714286 L24.5714286,21.1485714 C24.5714286,21.7765981 24.0623124,22.2857143 23.4342857,22.2857143 L19.6125714,22.285 L21.8631154,23.5040557 L21.9143707,23.5338145 C22.075321,23.6438881 22.1356759,23.8581449 22.0478174,24.0387381 C21.951173,24.2373905 21.7117876,24.3200844 21.5131351,24.22344 L21.5131351,24.22344 L17.9335714,22.285 L14.0545714,22.285 L10.4763515,24.22344 Z" id="形状结合" fill="#FFFFFF" opacity="0.5"></path>
            <rect id="矩形" fill="#FFFFFF" opacity="0.600000024" x="16.6465397" y="14.7763595" width="5.40127768" height="5.39888552" rx="0.771611097"></rect>
            <rect id="矩形" fill="#FFFFFF" opacity="0.800000012" x="16.6465397" y="16.7088659" width="3.46791504" height="3.46637914" rx="0.771611097"></rect>
            <line x1="9.67022067" y1="15.8293142" x2="11.955935" y2="15.8293142" id="路径-25" stroke="#FFFFFF" stroke-width="0.743124652" stroke-linecap="round"></line>
            <line x1="9.67022067" y1="17.686303" x2="13.0987921" y2="17.686303" id="路径-25备份" stroke="#FFFFFF" stroke-width="0.743124652" stroke-linecap="round"></line>
            <line x1="9.67022067" y1="19.5432918" x2="14.2416492" y2="19.5432918" id="路径-25备份-2" stroke="#FFFFFF" stroke-width="0.743124652" stroke-linecap="round"></line>
            <polyline id="路径-26" stroke="#FFFFFF" stroke-width="0.743124652" opacity="0.400000006" stroke-linecap="round" stroke-linejoin="round" points="9.67022067 12.7474914 13.6645562 10.5076321 17.6 12.7474914 22.0478174 10.5076321"></polyline>
        </g>
        <g id="编组" transform="translate(516.000000, 17.000000)">
            <path d="M16,0 C28.1959871,0 32,4.38769902 32,16 C32,27.612301 28.1959871,32 16,32 C3.80401293,32 0,27.612301 0,16 C0,4.38769902 3.80401293,0 16,0 Z" id="Rectangle备份" fill="#97C0FF" opacity="0.160178961"></path>
            <g transform="translate(6.500000, 7.000000)" fill="#8AB9FF" fill-rule="nonzero">
                <path d="M5.70015833,5.94984571 C5.70015833,5.87890563 5.70015833,5.82695035 5.70015833,5.79397987 L5.70015833,5.31114821 C5.70015833,5.14040832 5.76688433,4.97666149 5.88565737,4.85593016 C6.00443042,4.73519883 6.16552123,4.66737268 6.33349168,4.66737268 L12.666825,4.66737268 C13.0166053,4.66737268 13.3001583,4.9556008 13.3001583,5.31114821 L13.3001583,5.94984571 L12.61125,5.94984571 L12.61125,5.753422 C12.600856,5.47727936 12.3729746,5.26153393 12.1012583,5.27059034 L7.00054999,5.27059034 C6.72883372,5.26153393 6.50095229,5.47727936 6.49055832,5.753422 L6.49055832,5.94984571 L5.70015833,5.94984571 Z" id="路径" opacity="0.5"></path>
                <path d="M18.3666667,12.8755108 L0.633333325,12.8755108 C0.465362879,12.8755108 0.304272066,12.8076846 0.185499027,12.6869533 C0.0667259884,12.566222 0,12.4024751 0,12.2317352 L0,6.5986993 C0,6.4279594 0.0667259884,6.26421257 0.185499027,6.14348124 C0.304272066,6.0227499 0.465362879,5.95492374 0.633333325,5.95492374 L18.3666667,5.95492374 C18.5346371,5.95492374 18.6957279,6.0227499 18.814501,6.14348124 C18.933274,6.26421257 19,6.4279594 19,6.5986993 L19,12.2317352 C19,12.4024751 18.933274,12.566222 18.814501,12.6869533 C18.6957279,12.8076846 18.5346371,12.8755108 18.3666667,12.8755108 L18.3666667,12.8755108 Z" id="路径" opacity="0.5"></path>
                <path d="M3.16666668,16.5824063 C2.81710327,16.5818745 2.5338565,16.2939576 2.53333332,15.9386307 L2.53333332,13.5244725 C2.5338565,13.1691456 2.81710327,12.8812287 3.16666668,12.8806969 L16.15,12.8806969 C16.4997803,12.8806969 16.7833333,13.1689251 16.7833333,13.5244725 L16.7833333,15.9386307 C16.7833333,16.2941781 16.4997803,16.5824063 16.15,16.5824063 L3.16666668,16.5824063 Z" id="路径" opacity="0.5"></path>
                <path d="M13.725,15 C13.725,15.2761424 13.9488576,15.5 14.225,15.5 C14.5011424,15.5 14.725,15.2761424 14.725,15 C14.7247244,14.7239719 14.5010281,14.5002756 14.225,14.5 C13.9489719,14.5002756 13.7252756,14.7239719 13.725,15 Z" id="路径"></path>
                <path d="M10.725,15 C10.725,15.2761424 10.9488576,15.5 11.225,15.5 C11.5011424,15.5 11.725,15.2761424 11.725,15 C11.7247244,14.7239719 11.5010281,14.5002756 11.225,14.5 C10.9489719,14.5002756 10.7252756,14.7239719 10.725,15 Z" id="路径"></path>
                <path d="M7.72500002,15 C7.72500002,15.2761424 7.94885764,15.5 8.22500002,15.5 C8.50100533,15.4996694 8.72466941,15.2760053 8.72500002,15 C8.72461446,14.7240175 8.50098253,14.5003856 8.22500002,14.5 C7.94897189,14.5002756 7.72527563,14.7239719 7.72500002,15 Z" id="路径"></path>
                <path d="M4.72500002,15 C4.72500002,15.2761424 4.94885764,15.5 5.22500002,15.5 C5.50114239,15.5 5.72500002,15.2761424 5.72500002,15 C5.7247244,14.7239719 5.50102815,14.5002756 5.22500002,14.5 C4.94897189,14.5002756 4.72527563,14.7239719 4.72500002,15 Z" id="路径"></path>
                <path d="M14.0916667,18 L5.22499999,18 C4.87555834,18 4.59166667,17.7688846 4.59166667,17.4849796 C4.59166667,17.0883265 4.59166667,16.7908368 4.59166667,16.5925103 C4.59166667,16.5463312 14.725,16.549904 14.725,16.5978695 C14.725,16.7950051 14.725,17.0907084 14.725,17.4849796 C14.725,17.7688846 14.44095,18 14.0916667,18 Z M5.27994168,16.6007322 C5.27994168,16.7207297 5.27994168,16.9007258 5.27994168,17.1407206 C5.27994168,17.3241967 5.52567502,17.4733916 5.82761666,17.4733916 L13.49095,17.4733916 C13.792575,17.4733916 14.0379917,17.3240357 14.0379917,17.1407206 C14.0379917,16.9000748 14.0379917,16.7195905 14.0379917,16.5992676 C14.0379917,16.5580786 5.27994168,16.559055 5.27994168,16.6007322 Z" id="形状" opacity="0.5"></path>
                <polygon id="路径" opacity="0.5" points="9.18333334 4.02359713 9.81666666 4.02359713 9.81666666 4.66737268 9.18333334 4.66737268"></polygon>
                <path d="M6.64999999,0 L12.35,0 C12.7722222,0 12.9833333,0.214591852 12.9833333,0.643775555 L12.9833333,3.3798216 C12.9833333,3.80900528 12.7722222,4.02359713 12.35,4.02359713 L6.64999999,4.02359713 C6.22777777,4.02359713 6.01666666,3.80900528 6.01666666,3.3798216 L6.01666666,0.643775555 C6.01666666,0.214591869 6.22777777,0 6.64999999,0 L6.64999999,0 Z" id="路径" opacity="0.5"></path>
            </g>
            <path d="M22,15 C21.8673917,15 21.7402148,15.0526784 21.6464466,15.1464466 C21.5526784,15.2402148 21.5,15.3673918 21.5,15.5 L21.5,17.5 C21.5,17.7761424 21.7238576,18 22,18 L24,18 C24.2761424,18 24.5,17.7761424 24.5,17.5 L24.5,15.5 C24.5,15.3673918 24.4473216,15.2402148 24.3535534,15.1464466 C24.2597852,15.0526784 24.1326083,15 24,15 L22,15 Z" id="路径" fill="#8AB9FF" fill-rule="nonzero" opacity="0.600000024"></path>
            <path d="M13.0708333,17.6566331 C12.9396657,17.6566331 12.8333333,17.7647186 12.8333333,17.8980489 C12.8333333,18.0313792 12.9396657,18.1394647 13.0708333,18.1394647 L18.9291667,18.1394647 C19.0603343,18.1394647 19.1666667,18.0313792 19.1666667,17.8980489 C19.1666667,17.7647186 19.0603343,17.6566331 18.9291667,17.6566331 L13.0708333,17.6566331 Z" id="路径" fill="#8AB9FF" fill-rule="nonzero"></path>
            <path d="M13.0708333,15.1738014 C12.9396657,15.1738014 12.8333333,15.281887 12.8333333,15.4152173 C12.8333333,15.5485476 12.9396657,15.6566331 13.0708333,15.6566331 L18.9291667,15.6566331 C19.0603343,15.6566331 19.1666667,15.5485476 19.1666667,15.4152173 C19.1666667,15.281887 19.0603343,15.1738014 18.9291667,15.1738014 L13.0708333,15.1738014 Z" id="路径" fill="#8AB9FF" fill-rule="nonzero"></path>
            <path d="M8,15 C7.86739174,15 7.74021478,15.0526784 7.64644659,15.1464466 C7.5526784,15.2402148 7.5,15.3673918 7.5,15.5 L7.5,17.5 C7.5,17.6326082 7.55267842,17.7597852 7.64644661,17.8535534 C7.7402148,17.9473216 7.86739175,18 8,18 L10,18 C10.1326082,18 10.2597852,17.9473216 10.3535534,17.8535534 C10.4473216,17.7597852 10.5,17.6326082 10.5,17.5 L10.5,15.5 C10.5,15.3673918 10.4473216,15.2402148 10.3535534,15.1464466 C10.2597852,15.0526784 10.1326083,15 10,15 L8,15 Z" id="路径" fill="#8AB9FF" fill-rule="nonzero" opacity="0.600000024"></path>
        </g>
        <g id="通用图标/识别次数" transform="translate(32.000000, 17.000000)">
            <path d="M16,0 C28.1959871,0 32,4.38769902 32,16 C32,27.612301 28.1959871,32 16,32 C3.80401293,32 0,27.612301 0,16 C0,4.38769902 3.80401293,0 16,0 Z" id="Rectangle" fill="#97C0FF" opacity="0.160178961"></path>
            <g id="编组-6" transform="translate(7.200000, 8.509052)">
                <rect id="矩形" fill="#8AB9FF" opacity="0.5" x="0" y="11.8909478" width="17.6" height="1" rx="0.5"></rect>
                <rect id="矩形" stroke="#8AB9FF" stroke-width="0.64" fill="#8AB9FF" opacity="0.5" stroke-linejoin="round" x="0" y="1.09094784" width="17.6" height="10.4" rx="1.1392"></rect>
                <circle id="椭圆形" stroke="#8AB9FF" stroke-width="0.8" fill="#8AB9FF" cx="3.6" cy="4.29094784" r="1"></circle>
                <rect id="矩形备份" fill="#8AB9FF" opacity="0.5" x="7.2" y="12.6909478" width="3.2" height="1" rx="0.5"></rect>
                <rect id="矩形备份" fill="#8AB9FF" opacity="0.5" x="8" y="13.4909478" width="1.6" height="2.4"></rect>
                <path d="M4.95717187,11.2852368 L7.14130699,8.42657878 C7.1842256,8.37040569 7.26455528,8.35966081 7.32072837,8.40257941 C7.33037028,8.40994624 7.33891569,8.41864664 7.34610803,8.4284194 L9.44995998,11.2870774 C9.49186204,11.3440128 9.47967511,11.4241364 9.4227397,11.4660385 C9.40075294,11.4822198 9.37416865,11.4909478 9.34686932,11.4909478 L5.05888224,11.4909478 C4.98818979,11.4909478 4.93088224,11.4336403 4.93088224,11.3629478 C4.93088224,11.3348614 4.94012012,11.3075546 4.95717187,11.2852368 Z" id="路径-22" fill="#8AB9FF" opacity="0.800000012"></path>
                <path d="M8.25147499,11.1618102 L11.5015977,6.90795734 C11.5702675,6.8180804 11.698795,6.80088859 11.7886719,6.86955836 C11.804099,6.88134528 11.8177716,6.89526593 11.8292794,6.91090234 L14.959936,11.1647552 C15.0269793,11.2558519 15.0074802,11.3840496 14.9163835,11.4510929 C14.8812047,11.476983 14.8386698,11.4909478 14.7949909,11.4909478 L8.41421159,11.4909478 C8.30110367,11.4909478 8.20941159,11.3992558 8.20941159,11.2861478 C8.20941159,11.2412096 8.22419219,11.1975187 8.25147499,11.1618102 Z" id="路径-22备份" fill="#8AB9FF" opacity="0.600000024"></path>
                <g id="编组-5" transform="translate(1.200000, 0.000000)" stroke="#8AB9FF" stroke-width="0.5">
                    <g id="编组">
                        <line x1="0" y1="0.4" x2="1.42589023" y2="0.4" id="路径-23" stroke-linecap="round"></line>
                        <line x1="0.712945115" y1="0.4" x2="0.712945115" y2="0.931728979" id="路径-24" stroke-linecap="square"></line>
                    </g>
                    <g id="编组-2" transform="translate(4.533333, 0.000000)">
                        <line x1="0" y1="0.4" x2="1.42589023" y2="0.4" id="路径-23备份" stroke-linecap="round"></line>
                        <line x1="0.712945115" y1="0.4" x2="0.712945115" y2="0.931728979" id="路径-24备份" stroke-linecap="square"></line>
                    </g>
                    <g id="编组-3" transform="translate(9.066667, 0.000000)">
                        <line x1="0" y1="0.4" x2="1.42589023" y2="0.4" id="路径-23备份-2" stroke-linecap="round"></line>
                        <line x1="0.712945115" y1="0.4" x2="0.712945115" y2="0.931728979" id="路径-24备份-2" stroke-linecap="square"></line>
                    </g>
                    <g id="编组-4" transform="translate(13.600000, 0.000000)">
                        <line x1="0" y1="0.4" x2="1.42589023" y2="0.4" id="路径-23备份-3" stroke-linecap="round"></line>
                        <line x1="0.712945115" y1="0.4" x2="0.712945115" y2="0.931728979" id="路径-24备份-3" stroke-linecap="square"></line>
                    </g>
                </g>
            </g>
        </g>
        <path d="M323,24 C324.656854,24 326,25.3431458 326,27 L326,41 C326,42.6568542 324.656854,44 323,44 L323,44 L323,44 L323,24 Z" id="矩形" fill="#4096FF"></path>
    </g>
</svg>