<?xml version="1.0" encoding="UTF-8"?>
<svg width="18px" height="18px" viewBox="0 0 18 18" version="1.1" xmlns="http://www.w3.org/2000/svg" xmlns:xlink="http://www.w3.org/1999/xlink">
    <title>切片</title>
    <g id="设备管理" stroke="none" stroke-width="1" fill="none" fill-rule="evenodd">
        <g id="广告机/LED1-截屏" transform="translate(-684.000000, -525.000000)">
            <g id="编组-7" transform="translate(640.000000, 149.000000)">
                <g id="按钮/新增备份-2" transform="translate(32.000000, 369.000000)">
                    <g id="icon/xinzeng" transform="translate(12.000000, 7.000000)">
                        <rect id="矩形" fill="#D8D8D8" opacity="0" x="0" y="0" width="18" height="18"></rect>
                        <g id="刷新" transform="translate(2.500000, 1.500000)" fill="#4096FF" fill-rule="nonzero" stroke="#4096FF" stroke-width="0.3">
                            <path d="M12.5356768,7.78592407 C12.2792672,7.78592407 12.0714061,8.00123943 12.0714061,8.26684437 C12.0714061,9.04615459 11.9241791,9.801902 11.633761,10.5131298 C11.0673372,11.896644 10.0040828,12.9980285 8.66846616,13.5847653 C7.98186121,13.8855983 7.25227793,14.0381051 6.49994759,14.0381051 C5.74761725,14.0381051 5.01803397,13.8855983 4.33142901,13.5847653 C2.99581239,12.9980285 1.93255801,11.896644 1.36613421,10.5131298 C1.07571604,9.801902 0.928489071,9.04615459 0.928489071,8.26684437 C0.928489071,7.48753415 1.07571604,6.73178674 1.36613421,6.02055894 C1.93255801,4.63704477 2.99581239,3.53566023 4.33142901,2.94892349 C5.01803397,2.64809041 5.74761725,2.49558362 6.49994759,2.49558362 C6.78748627,2.49550598 7.07460677,2.51828509 7.35878031,2.56372034 L6.53847083,2.89490276 C6.2995305,2.99134872 6.18130922,3.27017943 6.2744162,3.51768857 C6.36752318,3.76519772 6.63670071,3.88765863 6.87564104,3.79121267 L8.86396513,2.98861108 C8.97869542,2.94229742 9.07096512,2.85066905 9.12047533,2.73388378 C9.16998555,2.61709852 9.17268051,2.48472313 9.12796735,2.36587957 L8.3530996,0.306305 C8.29286995,0.146214044 8.15476477,0.0315683539 7.99080695,0.0055538531 C7.82684913,-0.0204606477 7.66194777,0.0461082628 7.55821961,0.180184719 C7.45449146,0.314261175 7.42769528,0.495475772 7.48792495,0.655566721 L7.87525399,1.68510968 C7.42329704,1.58441298 6.96229313,1.53372741 6.5,1.53390592 C5.62271803,1.53390592 4.77143271,1.71198433 3.96978212,2.06320056 C2.41154861,2.74703648 1.17118416,4.03188257 0.511022777,5.64599706 C0.172070539,6.47639623 0,7.35821013 0,8.26695296 C0,9.17569579 0.171913306,10.0575097 0.510970371,10.8879089 C1.17113175,12.5020233 2.41149621,13.7868694 3.96972972,14.4707054 C4.77138031,14.8219216 5.62266562,15 6.49994759,15 C7.37722955,15 8.22851487,14.8219216 9.03016546,14.4707054 C10.5884416,13.7868974 11.8288481,12.5020468 12.4890296,10.8879089 C12.8280867,10.0572382 13,9.17569579 13,8.26695296 C13,8.13937675 12.9511188,8.01701666 12.8640368,7.92680156 C12.7769548,7.83658646 12.6588363,7.78590967 12.5356768,7.78592407 Z" id="路径"></path>
                        </g>
                    </g>
                </g>
            </g>
        </g>
    </g>
</svg>