<?xml version="1.0" encoding="UTF-8"?>
<svg width="18px" height="18px" viewBox="0 0 18 18" version="1.1" xmlns="http://www.w3.org/2000/svg" xmlns:xlink="http://www.w3.org/1999/xlink">
    <title>切片</title>
    <g id="设备管理" stroke="none" stroke-width="1" fill="none" fill-rule="evenodd">
        <g id="广告机/LED1" transform="translate(-653.000000, -344.000000)">
            <g id="编组-2" transform="translate(638.000000, 318.075874)">
                <g id="编组" transform="translate(15.000000, 23.924126)">
                    <g id="icon/xiafa" transform="translate(0.000000, 2.000000)">
                        <path d="M7.875,11.8125 L7.875,6.75018545 C7.875,3.07171851 9.02377915,1.62350318 12.460277,1.62350318 L13.9469719,1.62350318 C14.3214365,1.62350318 14.625,1.9270667 14.625,2.30153127 C14.625,2.67599584 14.3214365,2.97955935 13.9469719,2.97955935 L12.460277,2.97955935 L12.460277,2.97955935 C9.72239431,2.97955935 9.14431487,3.81689113 9.14431487,6.74755233 L9.14431487,11.8125 L7.875,11.8125 Z" id="路径" fill="#4096FF" fill-rule="nonzero"></path>
                        <path d="M5.8473731,10.7395463 L8.35849286,13.7288701 C8.43717024,13.8222865 8.58469033,13.8222865 8.66664593,13.7288701 L11.197435,10.7395463 C11.3023382,10.618105 11.2105479,10.4375 11.0433585,10.4375 L6.00144964,10.4375 C5.83753843,10.4343861 5.74574815,10.618105 5.8473731,10.7395463 Z" id="路径" fill="#4096FF" fill-rule="nonzero"></path>
                        <line x1="1.6875" y1="15.75" x2="16.2177516" y2="15.75" id="路径-12" stroke="#4096FF" stroke-width="1.2375" stroke-linecap="round"></line>
                    </g>
                </g>
            </g>
        </g>
    </g>
</svg>