<?xml version="1.0" encoding="UTF-8"?>
<svg width="56px" height="56px" viewBox="0 0 56 56" version="1.1" xmlns="http://www.w3.org/2000/svg" xmlns:xlink="http://www.w3.org/1999/xlink">
    <title>切片</title>
    <g id="数据总览" stroke="none" stroke-width="1" fill="none" fill-rule="evenodd">
        <g id="广告统计" transform="translate(-593.000000, -142.000000)" fill="#FFFFFF">
            <g id="卡片/广告任务" transform="translate(568.000000, 120.000000)">
                <g id="icon/guanggaorenwu" transform="translate(25.000000, 22.000000)">
                    <path d="M28,0 C49.3429774,0 56,7.67847329 56,28 C56,48.3215267 49.3429774,56 28,56 C6.65702262,56 0,48.3215267 0,28 C0,7.67847329 6.65702262,0 28,0 Z" id="Rectangle" opacity="0.300000012"></path>
                    <g id="编组" transform="translate(14.000000, 14.000000)">
                        <path d="M14.4665663,23.1139176 L21.4901455,27.7995864 C21.6888124,27.9338635 21.913567,28 22.1323013,28 C22.4975274,28 22.8547266,27.8276443 23.0774744,27.5029744 C23.4346735,26.9839033 23.2982154,26.2764435 22.7784706,25.9197073 L16.5294919,21.9294735 L24.8975847,21.9294735 C25.5277001,21.9294735 26.0374113,21.4204231 26.0374113,20.7911245 L26.0374113,3.91630348 L26.8601734,3.91630348 C27.4902888,3.91630348 28,3.60766661 28,2.97636393 C28,2.34906951 27.4902888,2.03642437 26.8601734,2.03642437 L15.9956998,2.03642437 L15.9956998,1.19268331 C15.9916864,0.529314458 15.9274708,0.252743757 15.353544,0.0543343407 C14.8297857,-0.0679179259 13.294632,0.0543343407 12.9494732,0.0543343407 C12.3213646,0.0543343407 12.1086505,0.563384762 12.1086505,1.19067918 L12.1086505,2.03442023 L1.13982656,2.03442023 C0.513724647,2.03642437 0,2.34706537 0,2.97435979 C0,3.60365834 0.513724647,3.91429935 1.13982656,3.91429935 L2.06292554,3.91429935 L2.06292554,20.7891204 C2.06292554,21.418419 2.57263671,21.9274694 3.2027521,21.9274694 L12.1849065,21.9274694 L5.83759765,25.9177032 C5.31985953,26.2744393 5.18540816,26.9818992 5.54060059,27.5009703 C5.76134165,27.8256402 6.11854082,27.9979959 6.48376693,27.9979959 C6.70450799,27.9979959 6.92926252,27.9338635 7.123916,27.7975823 L14.4665663,23.1139176 Z" id="路径" stroke="#FFFFFF" stroke-width="1.26563696" opacity="0.5" stroke-linejoin="round"></path>
                        <path d="M12.0404214,10.2918128 L12.0404214,15.5082588 C12.0404214,15.7982083 12.2754719,16.0332588 12.5654214,16.0332588 C12.6625091,16.0332588 12.7576953,16.0063369 12.8404004,15.9554853 L17.0824199,13.3472623 C17.3294163,13.1953955 17.4065341,12.8720531 17.2546674,12.6250568 C17.21155,12.5549306 17.152546,12.4959266 17.0824199,12.4528093 L12.8404004,9.8445863 C12.5934041,9.69271957 12.2700617,9.76983739 12.1181949,10.0168338 C12.0673433,10.0995389 12.0404214,10.1947251 12.0404214,10.2918128 Z" id="路径-2"></path>
                    </g>
                </g>
            </g>
        </g>
    </g>
</svg>