<?xml version="1.0" encoding="UTF-8"?>
<svg width="56px" height="56px" viewBox="0 0 56 56" version="1.1" xmlns="http://www.w3.org/2000/svg" xmlns:xlink="http://www.w3.org/1999/xlink">
    <title>切片</title>
    <g id="数据总览" stroke="none" stroke-width="1" fill="none" fill-rule="evenodd">
        <g id="广告统计" transform="translate(-930.000000, -142.000000)" fill="#FFFFFF">
            <g id="卡片/广告任务备份" transform="translate(905.000000, 120.000000)">
                <g id="icon/guanggaorenwu备份" transform="translate(25.000000, 22.000000)">
                    <path d="M28,0 C49.3429774,0 56,7.67847329 56,28 C56,48.3215267 49.3429774,56 28,56 C6.65702262,56 0,48.3215267 0,28 C0,7.67847329 6.65702262,0 28,0 Z" id="Rectangle" opacity="0.300000012"></path>
                    <path d="M24.5756453,33.6354526 C26.309328,36.665496 27.1827235,41.2767897 27.123451,42.9676208 C27.0502006,44.9527108 28.5738087,45.1515881 30.2951928,44.9269304 C32.016577,44.6985898 32.5110171,44.3634448 32.1008149,40.6842148 C31.8801378,38.7048939 29.9338101,35.6127901 27.9371972,32.9882325 C27.9310236,32.991006 24.5743834,33.6308606 24.5756453,33.6354526 Z" id="路径" fill-rule="nonzero" opacity="0.5"></path>
                    <path d="M31.2730855,12.2373957 C34.3166392,11.0294002 38.5541742,14.5502649 40.7297107,20.1004147 C42.9089098,25.6505644 42.2057061,31.1307388 39.1621524,32.3387342 C38.6823624,32.5302457 38.1696096,32.6039039 37.6422068,32.5670748 C32.3169036,32.2171981 27.7350917,32.8359274 23.6074323,33.8413626 C22.1790497,33.1784383 20.5821912,31.163885 19.5383732,28.5085048 C18.4982177,25.8531246 18.2967791,23.2861343 18.8864447,21.8240179 C22.519664,19.7579038 26.368972,17.0067678 30.0095163,13.110246 C30.3721057,12.7272231 30.7932955,12.4289071 31.2730855,12.2373957 Z" id="路径" fill-rule="nonzero" opacity="0.5"></path>
                    <path d="M22.0581866,34.2464831 C20.6078289,33.19317 19.219734,31.333299 18.3041042,29.0020151 C17.3884743,26.6744142 17.139423,24.3615449 17.4836998,22.5974296 C17.1906982,22.7521119 16.9013592,22.9031114 16.6156827,23.0504279 C14.8796485,23.7391326 14.4804338,26.8622427 15.7220279,30.0258649 C16.963622,33.1894871 19.3772223,35.1966746 21.1132566,34.5079699 C21.4282332,34.41958 21.7432099,34.3311901 22.0581866,34.2464831 L22.0581866,34.2464831 Z" id="路径" fill-rule="nonzero" opacity="0.5"></path>
                    <path d="M38.6530622,31.0423488 C41.0300373,30.0995231 41.4182644,25.414858 39.5210793,20.5828763 C37.6238942,15.7508945 34.1591508,12.5946382 31.7821757,13.5374639 C30.0534665,14.2224857 29.7348273,19.621636 31.3792986,23.9932536 C33.0970202,28.5526997 36.9023779,31.7384194 38.6530622,31.0423488 Z" id="路径" fill-rule="nonzero" opacity="0.5"></path>
                    <path d="M32.489042,12.0016892 C35.2579067,11.9611772 38.5761493,15.0179949 40.5136221,19.5700752 C40.5685599,19.706343 40.6271602,19.8426108 40.682098,19.9825615 C42.9711726,25.8199784 41.8724168,31.1822995 39.3819036,32.1730031 C36.8913903,33.1600238 32.6062426,29.8638167 30.5332566,24.354179 C28.5445085,19.0765649 29.3136376,13.0623681 31.3976112,12.2337127 C31.7455505,12.097445 32.1118025,12.0201038 32.489042,12.0016892 Z M38.6530622,31.0423488 C41.0300373,30.0995231 41.4182644,25.414858 39.5210793,20.5828763 C37.6238942,15.7508945 34.1591508,12.5946382 31.7821757,13.5374639 C30.0534665,14.2224857 29.7348273,19.621636 31.3792986,23.9932536 C33.0970202,28.5526997 36.9023779,31.7384194 38.6530622,31.0423488 L38.6530622,31.0423488 Z" id="形状" fill-rule="nonzero" opacity="0.200000003"></path>
                    <path d="M32.8223312,20.2514141 C34.5070902,20.2514141 35.8768725,21.6251406 35.8768725,23.3229634 C35.8768725,24.7703482 34.8806672,25.9857095 33.540185,26.3098058 C32.968832,25.5253453 32.4560793,24.6046171 32.0751773,23.595499 C31.7162504,22.6379416 31.4781866,21.6177748 31.3536609,20.634437 C31.7895008,20.3876819 32.2912659,20.2514141 32.8223312,20.2514141 Z" id="路径" fill-rule="nonzero"></path>
                </g>
            </g>
        </g>
    </g>
</svg>